<svg width="50" height="52" viewBox="0 0 50 52" fill="none" xmlns="http://www.w3.org/2000/svg">
<path d="M44.33 26V13.15L44.09 12.91L31.18 0H5.67V26H0V42.5H5.67V52H44.33V42.5H50V26H44.33ZM31.17 3.17L41.17 13.17H31.17V3.17ZM8 2.33H28.83V15.5H42V26H8V2.33ZM39.21 33.09V35H35V39.23H32.46V29.34H39.55V31.25H35V33.09H39.21ZM30.52 34.29C30.5348 35.158 30.3173 36.0143 29.89 36.77C29.5115 37.4534 28.964 38.0284 28.3 38.44C27.8113 38.7379 27.2725 38.9445 26.71 39.05C26.0345 39.1789 25.3477 39.2392 24.66 39.23H21.18V29.34H24.76C25.4618 29.3312 26.1626 29.3983 26.85 29.54C27.3677 29.6542 27.8639 29.85 28.32 30.12C28.9969 30.5296 29.5553 31.1087 29.94 31.8C30.342 32.5671 30.5417 33.4242 30.52 34.29V34.29ZM19.37 32.46C19.3741 32.9038 19.2961 33.3445 19.14 33.76C18.998 34.1593 18.7731 34.524 18.48 34.83C18.1002 35.2049 17.6521 35.5036 17.16 35.71C16.5816 35.9257 15.967 36.0276 15.35 36.01H13.76V39.23H11.21V29.34H15.41C15.945 29.331 16.479 29.3881 17 29.51C17.4056 29.6105 17.7934 29.7723 18.15 29.99C18.5338 30.2401 18.8471 30.5844 19.06 30.99C19.2815 31.4474 19.3879 31.9521 19.37 32.46V32.46ZM42 49.67H8V42.5H42V49.67Z" fill="#DC0000"/>
<path d="M15.99 31.38C15.742 31.2781 15.478 31.2205 15.21 31.21C14.96 31.21 14.62 31.21 14.21 31.21H13.77V34.16H14.51C14.8685 34.1692 15.2269 34.1424 15.58 34.08C15.8356 34.0368 16.0763 33.9302 16.28 33.77C16.4429 33.6347 16.5671 33.4587 16.64 33.26C16.7168 33.0278 16.754 32.7844 16.75 32.54C16.7551 32.2811 16.6742 32.0279 16.52 31.82C16.3893 31.6254 16.2053 31.4727 15.99 31.38Z" fill="#DC0000"/>
<path d="M26.4 31.52C26.1493 31.3903 25.879 31.3024 25.6 31.2599C25.1926 31.2028 24.7812 31.1794 24.37 31.19H23.73V37.38H24.37C24.8185 37.3919 25.2671 37.3618 25.71 37.29C26.0013 37.2365 26.2818 37.1351 26.54 36.99C26.972 36.7447 27.3203 36.3755 27.54 35.93C27.7705 35.4114 27.8799 34.8471 27.86 34.2799C27.8796 33.7032 27.7596 33.1303 27.51 32.61C27.2688 32.1352 26.879 31.7524 26.4 31.52V31.52Z" fill="#DC0000"/>
</svg>
