<svg width="50" height="52" viewBox="0 0 50 52" fill="none" xmlns="http://www.w3.org/2000/svg">
<path d="M44.35 26V13.15L44.11 12.91L31.2 0H5.69V26H0V42.5H5.67V52H44.33V42.5H50V26H44.35ZM31.19 3.17L41.19 13.17H31.19V3.17ZM8 2.33H28.85V15.5H42V26H8V2.33ZM36 36C35.7642 35.8144 35.4858 35.6906 35.19 35.64C34.82 35.55 34.43 35.46 34.01 35.39C33.6173 35.3149 33.2298 35.2147 32.85 35.09C32.138 34.9204 31.4934 34.5406 31 34C30.6283 33.5055 30.4376 32.8983 30.46 32.28C30.457 31.8227 30.5723 31.3724 30.7949 30.9728C31.0174 30.5733 31.3396 30.2381 31.73 30C32.6742 29.3782 33.7905 29.0702 34.92 29.12C35.5678 29.1233 36.214 29.1869 36.85 29.31C37.4103 29.4189 37.9594 29.5796 38.49 29.79V32.07H38.22C37.7788 31.7251 37.2861 31.4518 36.76 31.26C36.1928 31.0723 35.5973 30.9843 35 31C34.7891 31.0017 34.5786 31.0185 34.37 31.05C34.1598 31.0725 33.9542 31.1264 33.76 31.21C33.5896 31.2754 33.4359 31.3779 33.31 31.51C33.2436 31.5854 33.1938 31.6739 33.1637 31.7698C33.1335 31.8656 33.1238 31.9667 33.1351 32.0666C33.1464 32.1664 33.1785 32.2628 33.2293 32.3495C33.2801 32.4362 33.3484 32.5113 33.43 32.57C33.7794 32.7666 34.1628 32.8955 34.56 32.95L35.56 33.17C35.89 33.24 36.25 33.34 36.64 33.46C37.2805 33.6344 37.8614 33.9801 38.32 34.46C38.696 34.9292 38.888 35.5194 38.86 36.12C38.8656 36.5868 38.7553 37.0477 38.5389 37.4614C38.3224 37.875 38.0067 38.2285 37.62 38.49C36.6275 39.1487 35.4496 39.4712 34.26 39.41C33.5404 39.4225 32.822 39.3486 32.12 39.19C31.5343 39.0595 30.9619 38.8754 30.41 38.64V36.27H30.68C31.2073 36.7037 31.8063 37.0421 32.45 37.27C33.0562 37.4896 33.6953 37.6046 34.34 37.61C34.5432 37.6215 34.7468 37.6215 34.95 37.61C35.1577 37.5906 35.3624 37.5469 35.56 37.48C35.7404 37.411 35.9065 37.3093 36.05 37.18C36.1139 37.1081 36.1627 37.0242 36.1936 36.9332C36.2245 36.8422 36.2369 36.7459 36.23 36.65C36.25 36.531 36.2394 36.4089 36.1992 36.2952C36.159 36.1815 36.0904 36.0799 36 36V36ZM29.45 37.3V39.21H22.31V29.34H24.86V37.34L29.45 37.3ZM10.91 29.3H13.85L15.91 32.38L18 29.34H20.83L17.38 34.14L20.88 39.23H17.88L15.81 36L13.64 39.25H10.83L14.33 34.25L10.91 29.3ZM42 49.67H8V42.5H42V49.67Z" fill="#00990D"/>
</svg>
