<svg xmlns="http://www.w3.org/2000/svg" viewBox="0 0 50 52"><defs><style>.cls-1{fill:#a5a5a5;}</style></defs><title>Asset 2</title><g id="Layer_2" data-name="Layer 2"><g id="Layer_1-2" data-name="Layer 1"><path class="cls-1" d="M44.33,26V13.15L31.18,0H5.67V26H0V42.5H5.67V52H44.33V42.5H50V26ZM31.17,3.17l10,10h-10ZM8,2.33H28.83V15.5H42V26H8ZM40.9,33v1.91H36.62v2.45h4.61v1.91H34.08V29.34h7.15v1.92H36.62V33Zm-8.35,4.36v1.91H25.42V29.34H28v8Zm-9.21.15v1.76H17.55V37.47h1.62V31.1H17.55V29.34h5.79V31.1H21.72v6.37Zm-7.43-4.38V35H11.69v4.22H9.15V29.34h7.09v1.92H11.69v1.83ZM42,49.67H8V42.5H42Z"/></g></g></svg>