<svg width="50" height="52" viewBox="0 0 50 52" fill="none" xmlns="http://www.w3.org/2000/svg">
<path d="M44.33 26V13.15L31.18 0H5.67V26H0V42.5H5.67V52H44.33V42.5H50V26H44.33ZM31.17 3.17L41.17 13.17H31.17V3.17ZM8 2.33H28.83V15.5H42V26H8V2.33ZM30.61 31.25V29.34H39.33V31.25H36.25V39.25H33.7V31.25H30.61ZM29.8 32.46C29.8007 32.9044 29.7193 33.3451 29.56 33.76C29.4224 34.1613 29.1969 34.5269 28.9 34.83C28.522 35.2071 28.0735 35.5061 27.58 35.71C27.0018 35.9264 26.3871 36.0283 25.77 36.01H24.19V39.23H21.61V29.34H25.8C26.335 29.331 26.869 29.3881 27.39 29.51C27.8209 29.6049 28.2331 29.7705 28.61 30C28.9962 30.2472 29.3102 30.5922 29.52 31C29.7262 31.4578 29.8188 31.9587 29.79 32.46H29.8ZM19.8 32.46C19.7992 32.9034 19.7213 33.3432 19.57 33.76C19.4251 34.1602 19.1967 34.5249 18.9 34.83C18.5261 35.2074 18.0808 35.5066 17.59 35.71C17.0116 35.9257 16.397 36.0276 15.78 36.01H14.21V39.23H11.66V29.34H15.86C16.395 29.331 16.929 29.3881 17.45 29.51C17.8606 29.6096 18.2523 29.7751 18.61 30C18.9993 30.2466 19.3166 30.5916 19.53 31C19.743 31.4561 19.8425 31.9571 19.82 32.46H19.8ZM41.98 49.67H7.98V42.5H41.98V49.67Z" fill="#FF5722"/>
<path d="M16.4402 31.38C16.1922 31.2781 15.9282 31.2205 15.6602 31.21C15.4102 31.21 15.0702 31.21 14.6602 31.21H14.2202V34.16H14.9502C15.3087 34.1696 15.6672 34.1428 16.0202 34.08C16.2794 34.0388 16.5238 33.9321 16.7302 33.77C16.8902 33.632 17.0138 33.4569 17.0902 33.26C17.167 33.0278 17.2042 32.7844 17.2002 32.54C17.2053 32.2811 17.1244 32.0279 16.9702 31.82C16.8395 31.6254 16.6555 31.4727 16.4402 31.38V31.38Z" fill="#FF5722"/>
<path d="M26.3999 31.38C26.1522 31.277 25.888 31.2195 25.6199 31.21C25.3699 31.21 25.0399 31.21 24.6199 31.21H24.1899V34.16H24.9199C25.2784 34.1692 25.6369 34.1424 25.9899 34.08C26.2486 34.0368 26.4924 33.9303 26.6999 33.77C26.8572 33.6317 26.9775 33.4564 27.0499 33.26C27.1267 33.0278 27.1639 32.7844 27.1599 32.54C27.1699 32.2804 27.0885 32.0257 26.9299 31.82C26.7992 31.6254 26.6152 31.4727 26.3999 31.38V31.38Z" fill="#FF5722"/>
</svg>
