<svg width="50" height="52" viewBox="0 0 50 52" fill="none" xmlns="http://www.w3.org/2000/svg">
<path d="M44.33 26V13.15L44.09 12.91L31.18 0H5.67V26H0V42.5H5.67V52H44.33V42.5H50V26H44.33ZM31.17 3.17L41.17 13.17H31.17V3.17ZM8 2.33H28.83V15.5H42V26H8V2.33ZM35.1 35.85C35.2353 36.2321 35.4619 36.5754 35.76 36.85C36.016 37.0903 36.324 37.2683 36.66 37.37C36.9823 37.478 37.3201 37.532 37.66 37.53C37.9718 37.5283 38.2818 37.4811 38.58 37.39C38.8697 37.2976 39.1455 37.1664 39.4 37C39.6146 36.8809 39.8187 36.7437 40.01 36.59L40.46 36.22H40.73V38.58L40.02 38.89C39.7894 38.9897 39.5522 39.0733 39.31 39.14C39.0116 39.2323 38.7076 39.3058 38.4 39.36C38.0126 39.4154 37.6213 39.4388 37.23 39.43C36.5505 39.4317 35.8751 39.3237 35.23 39.11C34.621 38.9101 34.0658 38.5737 33.6065 38.1266C33.1473 37.6795 32.7962 37.1334 32.58 36.53C32.3271 35.8143 32.2051 35.0589 32.22 34.3C32.2069 33.5747 32.3255 32.853 32.57 32.17C32.7828 31.5584 33.1238 30.9993 33.57 30.53C34.0251 30.0854 34.5709 29.7443 35.17 29.53C35.8354 29.2836 36.5405 29.1615 37.25 29.17C37.6245 29.1658 37.9989 29.1892 38.37 29.24C38.71 29.2933 39.02 29.3533 39.3 29.42C39.59 29.51 39.86 29.6 40.11 29.7L40.74 29.99V32.39H40.45L40 32C39.7968 31.8452 39.5829 31.7049 39.36 31.58C39.1115 31.4299 38.8463 31.3091 38.57 31.22C38.2775 31.1184 37.9697 31.0676 37.66 31.07C37.3196 31.0717 36.9818 31.1292 36.66 31.24C36.3237 31.3607 36.0169 31.5516 35.76 31.8C35.4805 32.0841 35.2656 32.4252 35.13 32.8C34.9502 33.2825 34.8654 33.7953 34.88 34.31C34.8486 34.8329 34.9235 35.3568 35.1 35.85ZM30.82 34.29C30.8515 34.9678 30.7474 35.645 30.5139 36.2821C30.2804 36.9191 29.9221 37.5032 29.46 38C28.9654 38.476 28.3781 38.8451 27.7347 39.0842C27.0912 39.3234 26.4054 39.4274 25.72 39.39C25.0379 39.4247 24.3559 39.3192 23.7161 39.0802C23.0763 38.8411 22.4922 38.4735 22 38C21.5362 37.4966 21.1778 36.9055 20.9459 36.2615C20.7141 35.6174 20.6135 34.9335 20.65 34.25C20.6178 33.57 20.7206 32.8903 20.9522 32.2501C21.1839 31.6099 21.54 31.0219 22 30.52C22.4954 30.0458 23.0831 29.6786 23.7265 29.4411C24.3699 29.2037 25.0553 29.1012 25.74 29.14C26.4247 29.1012 27.1101 29.2037 27.7535 29.4411C28.3969 29.6786 28.9846 30.0458 29.48 30.52C29.9445 31.0266 30.3025 31.6214 30.5327 32.269C30.7629 32.9166 30.8606 33.6039 30.82 34.29V34.29ZM19.26 34.29C19.2748 35.158 19.0573 36.0143 18.63 36.77C18.2403 37.4583 17.6787 38.0338 17 38.44C16.5121 38.7395 15.973 38.9463 15.41 39.05C14.751 39.1763 14.081 39.2366 13.41 39.23H9.92V29.34H13.51C14.2085 29.3312 14.9059 29.3982 15.59 29.54C16.1084 29.6517 16.605 29.8476 17.06 30.12C17.7353 30.5284 18.2907 31.108 18.67 31.8C19.0793 32.5648 19.2827 33.4229 19.26 34.29V34.29ZM42 49.67H8V42.5H42V49.67Z" fill="#1565C0"/>
<path d="M27.43 31.7601C27.2216 31.5055 26.9537 31.3063 26.65 31.1801C26.3579 31.0609 26.0454 30.9998 25.73 31.0001C25.4144 30.9979 25.1015 31.0591 24.81 31.1801C24.5085 31.3055 24.2411 31.5009 24.03 31.7501C23.7833 32.0428 23.5995 32.3832 23.49 32.7501C23.2201 33.7318 23.2201 34.7683 23.49 35.7501C23.6016 36.114 23.7815 36.4534 24.02 36.7501C24.2283 37.0046 24.4962 37.2038 24.8 37.3301C25.0967 37.4582 25.4168 37.5229 25.74 37.5201C26.0599 37.5227 26.3767 37.4579 26.67 37.3301C26.9748 37.201 27.2428 36.9982 27.45 36.7401C27.6991 36.4436 27.8862 36.1002 28 35.7301C28.1283 35.2577 28.1889 34.7695 28.18 34.2801C28.2016 33.7703 28.1409 33.2604 28 32.7701C27.8817 32.3976 27.6877 32.0538 27.43 31.7601V31.7601Z" fill="#1565C0"/>
<path d="M15.1502 31.52C14.8983 31.3931 14.6286 31.3055 14.3502 31.26C13.9394 31.2033 13.5248 31.1799 13.1102 31.19H12.4702V37.38H13.1102C13.5587 37.3924 14.0074 37.3622 14.4502 37.29C14.7416 37.2366 15.022 37.1352 15.2802 36.99C15.7122 36.7448 16.0606 36.3755 16.2802 35.93C16.5145 35.4123 16.6273 34.848 16.6102 34.28C16.6267 33.7025 16.5032 33.1295 16.2502 32.61C16.0099 32.1382 15.6242 31.7561 15.1502 31.52V31.52Z" fill="#1565C0"/>
</svg>
