<svg width="24" height="504" viewBox="0 0 24 504" fill="none" xmlns="http://www.w3.org/2000/svg">
<path d="M10.9393 503.061C11.5251 503.646 12.4749 503.646 13.0607 503.061L22.6066 493.515C23.1924 492.929 23.1924 491.979 22.6066 491.393C22.0208 490.808 21.0711 490.808 20.4853 491.393L12 499.879L3.51472 491.393C2.92893 490.808 1.97919 490.808 1.3934 491.393C0.807612 491.979 0.807612 492.929 1.3934 493.515L10.9393 503.061ZM13.0607 0.93934C12.4749 0.353553 11.5251 0.353553 10.9394 0.93934L1.39342 10.4853C0.807633 11.0711 0.807633 12.0208 1.39342 12.6066C1.97921 13.1924 2.92895 13.1924 3.51474 12.6066L12 4.12132L20.4853 12.6066C21.0711 13.1924 22.0208 13.1924 22.6066 12.6066C23.1924 12.0208 23.1924 11.0711 22.6066 10.4853L13.0607 0.93934ZM13.5 502L13.5 2L10.5 2L10.5 502L13.5 502Z" fill="#EE5252"/>
</svg>
