<svg width="120" height="120" viewBox="0 0 120 120" fill="none" xmlns="http://www.w3.org/2000/svg">
<g clip-path="url(#clip0_33_3)">
<mask id="mask0_33_3" style="mask-type:luminance" maskUnits="userSpaceOnUse" x="-1" y="0" width="121" height="131">
<path d="M119.964 0.312012H-0.0361328V130.092H119.964V0.312012Z" fill="white"/>
</mask>
<g mask="url(#mask0_33_3)">
<path d="M85.1038 28.3319C86.8798 31.9919 88.4998 36.5879 89.1838 41.9519C90.9238 55.8119 86.4838 65.6759 79.7998 74.6759C71.3758 86.0519 55.7038 91.9799 41.6398 90.5519C29.3398 89.2919 20.0998 84.2519 14.1838 77.0759C8.69977 70.4159 6.74377 63.3719 9.35977 55.1519C12.0358 46.7519 17.5438 41.6759 26.2438 40.2479C33.6838 39.0239 39.1678 41.4479 44.1238 45.7679C47.6038 48.7919 50.6398 52.3439 55.7038 53.8919C62.2438 55.8959 70.0198 55.0319 76.3438 49.6919C81.3598 45.4319 83.2438 41.1119 83.9038 34.5719C84.0838 32.7479 83.9878 30.9959 83.7238 29.3759C82.3078 30.2159 76.7998 33.2759 72.0478 33.2519C66.5518 33.2519 64.7518 28.0919 64.7518 28.0919C64.7518 28.0919 67.9918 23.6519 71.0278 22.3319C73.5238 21.2519 78.2518 20.9759 79.0078 20.9519C79.1038 20.7479 79.2838 20.2919 79.5838 19.7279C79.6078 19.7039 79.6078 19.6319 79.6438 19.6079C80.3998 18.1079 81.6598 15.8039 83.0278 14.5319C85.4878 12.2759 90.8518 11.1719 90.8518 11.1719C90.8518 11.1719 94.8118 14.9279 92.5678 19.9679C90.8638 23.5919 87.0838 26.7959 85.1038 28.3319Z" fill="url(#paint0_linear_33_3)"/>
<path d="M85.1037 28.3318C85.4037 28.9318 85.6797 29.5318 85.9437 30.1318C86.2197 30.7318 86.4597 31.3558 86.6997 31.9558C87.1797 33.1798 87.5997 34.4518 87.9237 35.7358C88.6437 38.2918 89.0637 40.8958 89.3037 43.5358C89.5437 46.1758 89.5797 48.8398 89.3637 51.4918C89.2437 52.8118 89.0637 54.1318 88.8237 55.4158C88.5477 56.7118 88.2837 58.0198 87.8997 59.2918C87.1437 61.8358 86.1237 64.2958 84.9237 66.6718C84.3237 67.8478 83.6637 69.0118 82.9437 70.1278C82.2477 71.2318 81.5037 72.3838 80.7477 73.4278C80.5677 73.7038 80.3637 73.9678 80.1717 74.2318L79.8717 74.6518L79.5717 75.0478L79.2717 75.4438C79.1517 75.5998 79.0557 75.7198 78.9717 75.8398L78.3477 76.6198C78.2277 76.7398 78.1317 76.8598 78.0237 77.0158L77.6997 77.3758L77.3757 77.7358L77.0157 78.0958C76.7757 78.3358 76.5597 78.5758 76.3197 78.8158L75.5997 79.5118C75.4797 79.6318 75.3597 79.7158 75.2397 79.8358L74.8437 80.1598L74.4597 80.4838L74.0637 80.8078C73.7877 81.0118 73.5477 81.2278 73.2837 81.4318L72.5037 82.0318L72.3237 82.1878L72.1077 82.3438L71.6877 82.6438L71.2677 82.9438C71.1117 83.0398 70.9917 83.1238 70.8477 83.2198C70.5717 83.3998 70.3077 83.5798 70.0077 83.7598L69.1677 84.2638C64.6077 87.0238 59.5677 88.9438 54.3477 89.9638L53.8677 90.0598C53.7117 90.0838 53.5437 90.1198 53.3877 90.1558L52.4037 90.3118C52.0797 90.3718 51.7437 90.4078 51.4197 90.4678L50.9397 90.5278L50.4597 90.5878C49.1397 90.7438 47.8197 90.7918 46.4757 90.8278C43.7997 90.8878 41.1357 90.6718 38.4957 90.2038C37.1757 89.9638 35.8797 89.6998 34.5957 89.3278C33.3117 88.9678 32.0397 88.5718 30.7797 88.1278C29.5197 87.6718 28.2957 87.1678 27.0597 86.6278C25.8597 86.0878 24.6597 85.4878 23.4837 84.8278C21.1677 83.5078 18.9237 82.0078 16.9077 80.2318C15.8877 79.3318 14.9517 78.3718 14.0877 77.3278C13.2477 76.2718 12.4677 75.1318 11.8677 73.9078L12.7437 73.4878C13.2837 74.6278 14.0037 75.7078 14.8197 76.7278C15.6357 77.7478 16.5357 78.6838 17.5197 79.5478C19.4757 81.2878 21.6357 82.7878 23.8797 84.0718C25.0197 84.7318 26.1957 85.3318 27.3957 85.8718C28.5957 86.4118 29.7957 86.9518 31.0197 87.3718C32.2437 87.8278 33.5037 88.2118 34.7757 88.5718C36.0477 88.9318 37.3317 89.1958 38.6157 89.4478C43.7757 90.4078 49.1157 90.3238 54.2757 89.3278C59.4357 88.3318 64.4517 86.5078 68.9757 83.8078L69.8157 83.3038C70.0917 83.1238 70.3557 82.9438 70.6317 82.7638C70.7877 82.6678 70.9077 82.5838 71.0517 82.4878L71.4717 82.2118L71.8917 81.9358L72.1077 81.7798L72.2877 81.6238L73.0677 81.0238C73.3437 80.8198 73.5837 80.6038 73.8477 80.3998L74.2437 80.0998L74.6037 79.7758L74.9637 79.4518C75.0837 79.3318 75.2037 79.2478 75.3237 79.1278L76.0437 78.4318C76.2837 78.2278 76.4997 77.9758 76.7397 77.7358L77.0997 77.3758L77.4237 77.0158L77.7477 76.6558C77.8677 76.5358 77.9637 76.4158 78.0717 76.2958L78.6957 75.5398C78.8157 75.4198 78.9117 75.2998 78.9957 75.1438L79.2957 74.7478L79.5957 74.3518L79.8957 73.9558C80.0757 73.6798 80.2917 73.4158 80.4717 73.1758C81.2517 72.0958 81.9717 71.0158 82.6917 69.8998C83.4117 68.7838 84.0477 67.6438 84.6717 66.4798C85.8957 64.1398 86.9277 61.7038 87.6957 59.1838C88.0917 57.9238 88.3917 56.6278 88.6557 55.3438C88.8957 54.0478 89.1117 52.7398 89.2317 51.4438C89.4717 48.8398 89.4717 46.1638 89.2317 43.5238C89.0157 40.8838 88.5717 38.2678 87.8757 35.7238C87.5517 34.4278 87.1197 33.1678 86.6757 31.9438C86.4357 31.3198 86.1957 30.7198 85.9197 30.1198C85.6797 29.5318 85.4037 28.8958 85.1037 28.3318Z" fill="#2E2E2E"/>
<path d="M85.1037 28.3318C85.4037 28.9318 85.6797 29.5318 85.9437 30.1318C86.2197 30.7318 86.4597 31.3558 86.6997 31.9558C87.1797 33.1798 87.5997 34.4518 87.9237 35.7358C88.6437 38.2918 89.0637 40.8958 89.3037 43.5358C89.5437 46.1758 89.5797 48.8398 89.3637 51.4918C89.2437 52.8118 89.0637 54.1318 88.8237 55.4158C88.5477 56.7118 88.2837 58.0198 87.8997 59.2918C87.1437 61.8358 86.1237 64.2958 84.9237 66.6718C84.3237 67.8478 83.6637 69.0118 82.9437 70.1278C82.2477 71.2318 81.5037 72.3838 80.7477 73.4278C80.5677 73.7038 80.3637 73.9678 80.1717 74.2318L79.8717 74.6518L79.5717 75.0478L79.2717 75.4438C79.1517 75.5998 79.0557 75.7198 78.9717 75.8398L78.3477 76.6198C78.2277 76.7398 78.1317 76.8598 78.0237 77.0158L77.6997 77.3758L77.3757 77.7358L77.0157 78.0958C76.7757 78.3358 76.5597 78.5758 76.3197 78.8158L75.5997 79.5118C75.4797 79.6318 75.3597 79.7158 75.2397 79.8358L74.8437 80.1598L74.4597 80.4838L74.0637 80.8078C73.7877 81.0118 73.5477 81.2278 73.2837 81.4318L72.5037 82.0318L72.3237 82.1878L72.1077 82.3438L71.6877 82.6438L71.2677 82.9438C71.1117 83.0398 70.9917 83.1238 70.8477 83.2198C70.5717 83.3998 70.3077 83.5798 70.0077 83.7598L69.1677 84.2638C64.6077 87.0238 59.5677 88.9438 54.3477 89.9638L53.8677 90.0598C53.7117 90.0838 53.5437 90.1198 53.3877 90.1558L52.4037 90.3118C52.0797 90.3718 51.7437 90.4078 51.4197 90.4678L50.9397 90.5278L50.4597 90.5878C49.1397 90.7438 47.8197 90.7918 46.4757 90.8278C43.7997 90.8878 41.1357 90.6718 38.4957 90.2038C37.1757 89.9638 35.8797 89.6998 34.5957 89.3278C33.3117 88.9678 32.0397 88.5718 30.7797 88.1278C29.5197 87.6718 28.2957 87.1678 27.0597 86.6278C25.8597 86.0878 24.6597 85.4878 23.4837 84.8278C21.1677 83.5078 18.9237 82.0078 16.9077 80.2318C15.8877 79.3318 14.9517 78.3718 14.0877 77.3278C13.2477 76.2718 12.4677 75.1318 11.8677 73.9078L12.7437 73.4878C13.2837 74.6278 14.0037 75.7078 14.8197 76.7278C15.6357 77.7478 16.5357 78.6838 17.5197 79.5478C19.4757 81.2878 21.6357 82.7878 23.8797 84.0718C25.0197 84.7318 26.1957 85.3318 27.3957 85.8718C28.5957 86.4118 29.7957 86.9518 31.0197 87.3718C32.2437 87.8278 33.5037 88.2118 34.7757 88.5718C36.0477 88.9318 37.3317 89.1958 38.6157 89.4478C43.7757 90.4078 49.1157 90.3238 54.2757 89.3278C59.4357 88.3318 64.4517 86.5078 68.9757 83.8078L69.8157 83.3038C70.0917 83.1238 70.3557 82.9438 70.6317 82.7638C70.7877 82.6678 70.9077 82.5838 71.0517 82.4878L71.4717 82.2118L71.8917 81.9358L72.1077 81.7798L72.2877 81.6238L73.0677 81.0238C73.3437 80.8198 73.5837 80.6038 73.8477 80.3998L74.2437 80.0998L74.6037 79.7758L74.9637 79.4518C75.0837 79.3318 75.2037 79.2478 75.3237 79.1278L76.0437 78.4318C76.2837 78.2278 76.4997 77.9758 76.7397 77.7358L77.0997 77.3758L77.4237 77.0158L77.7477 76.6558C77.8677 76.5358 77.9637 76.4158 78.0717 76.2958L78.6957 75.5398C78.8157 75.4198 78.9117 75.2998 78.9957 75.1438L79.2957 74.7478L79.5957 74.3518L79.8957 73.9558C80.0757 73.6798 80.2917 73.4158 80.4717 73.1758C81.2517 72.0958 81.9717 71.0158 82.6917 69.8998C83.4117 68.7838 84.0477 67.6438 84.6717 66.4798C85.8957 64.1398 86.9277 61.7038 87.6957 59.1838C88.0917 57.9238 88.3917 56.6278 88.6557 55.3438C88.8957 54.0478 89.1117 52.7398 89.2317 51.4438C89.4717 48.8398 89.4717 46.1638 89.2317 43.5238C89.0157 40.8838 88.5717 38.2678 87.8757 35.7238C87.5517 34.4278 87.1197 33.1678 86.6757 31.9438C86.4357 31.3198 86.1957 30.7198 85.9197 30.1198C85.6797 29.5318 85.4037 28.8958 85.1037 28.3318Z" fill="#2E2E2E"/>
<path d="M85.1039 28.3318C85.4039 28.9318 85.6799 29.5318 85.9439 30.1318C86.2199 30.7318 86.4599 31.3558 86.6999 31.9558C87.1799 33.1798 87.5999 34.4518 87.9239 35.7358C88.6439 38.2918 89.0639 40.9318 89.3039 43.5598C89.5439 46.1998 89.5799 48.8638 89.3639 51.5158C89.1479 54.1558 88.6439 56.7958 87.8879 59.3398C87.1319 61.8838 86.1119 64.3438 84.8879 66.7198C83.6639 69.0958 82.2479 71.3398 80.7119 73.4998C80.3279 74.0398 79.9319 74.5798 79.5359 75.1198C79.1159 75.6598 78.7199 76.1758 78.2759 76.6798C77.3999 77.6998 76.4759 78.6598 75.5159 79.5598C73.5599 81.3598 71.3999 82.9798 69.1559 84.3598C64.5959 87.1558 59.5559 89.0638 54.2999 90.0838C51.6839 90.5878 49.0199 90.8878 46.3439 90.9598C43.6679 91.0198 41.0039 90.8038 38.3639 90.3598C35.7239 89.9158 33.1439 89.1838 30.6239 88.2838C29.3639 87.8278 28.1399 87.3238 26.9039 86.7838L26.4479 86.5798C26.2919 86.5198 26.1479 86.4238 25.9919 86.3758C25.6919 86.2198 25.3919 86.0758 25.0919 85.9198C24.7919 85.7638 24.4919 85.6198 24.1919 85.4398C23.8919 85.2838 23.5919 85.1158 23.3159 84.9598C22.1399 84.2638 21.0359 83.5558 19.9559 82.7398C18.8759 81.9358 17.8559 81.0838 16.8719 80.1838C15.8879 79.2838 14.9159 78.3238 14.0519 77.3038C13.5959 76.7998 13.1759 76.2478 12.7919 75.7078C12.6119 75.4318 12.4079 75.1318 12.2519 74.8318C12.0719 74.5318 11.9279 74.2078 11.7959 73.8358L12.7199 73.5598C12.8039 73.8358 12.9359 74.0998 13.0799 74.3638C13.2359 74.6398 13.4039 74.9038 13.5599 75.1678C13.9199 75.6718 14.3399 76.2238 14.7359 76.6918C15.5759 77.6878 16.5119 78.6118 17.4599 79.5118C18.4199 80.4118 19.4399 81.2158 20.4839 82.0318C21.5399 82.8118 22.6079 83.5558 23.7239 84.2278C23.9999 84.3838 24.2999 84.5518 24.5639 84.7078C24.8399 84.8638 25.1399 85.0078 25.4399 85.1638C25.7399 85.3198 26.0159 85.4638 26.3159 85.6198C26.4719 85.6798 26.6159 85.7758 26.7719 85.8238L27.2279 86.0278C28.4279 86.5678 29.6279 87.0838 30.8519 87.5278C33.3119 88.4278 35.8679 89.1478 38.4359 89.6278C41.0039 90.1078 43.6559 90.3238 46.2959 90.2878C48.9119 90.2638 51.5519 89.9878 54.1559 89.5078C59.3159 88.5118 64.3319 86.6518 68.8559 83.9518C71.1119 82.5958 73.2359 81.0478 75.1799 79.2478C76.1399 78.3478 77.0759 77.4238 77.9399 76.4278C78.3959 75.9478 78.7799 75.4078 79.1999 74.9038C79.6199 74.3998 79.9799 73.8478 80.3759 73.3078C81.8999 71.1838 83.3519 68.9278 84.5759 66.5878C85.7999 64.2478 86.8319 61.8118 87.5999 59.2678C88.3799 56.7478 88.8959 54.1438 89.1239 51.4918C89.3639 48.8518 89.3639 46.2118 89.1239 43.5718C88.9079 40.9318 88.4639 38.3158 87.7679 35.7478C87.4439 34.4518 87.0119 33.1918 86.5679 31.9678C86.3279 31.3438 86.0879 30.7438 85.8119 30.1438C85.6799 29.5318 85.4039 28.8958 85.1039 28.3318Z" fill="#2E2E2E"/>
<path d="M86.0038 30.552C86.2198 31.272 86.3998 31.992 86.5438 32.748C86.6878 33.504 86.8438 34.224 86.9638 34.968C87.2038 36.468 87.3478 37.968 87.4438 39.468C87.5998 42.468 87.4678 45.528 86.9878 48.492C86.7478 49.992 86.4118 51.468 86.0278 52.932C85.6078 54.372 85.1278 55.812 84.5278 57.228C83.9278 58.608 83.2678 59.988 82.4878 61.284C81.7078 62.604 80.8678 63.864 79.9318 65.028C79.0078 66.228 77.9758 67.368 76.9078 68.448C75.8398 69.528 74.6878 70.524 73.5478 71.508L72.6478 72.228L72.1918 72.588C72.0358 72.708 71.8918 72.792 71.7358 72.912L70.8118 73.572C70.5118 73.776 70.1878 73.992 69.8878 74.196C68.6278 75.036 67.3078 75.816 65.9638 76.5C63.2398 77.88 60.3238 78.9 57.3238 79.44L56.7478 79.536C56.5678 79.56 56.3638 79.596 56.1718 79.632C55.9918 79.656 55.7878 79.692 55.5958 79.728L55.0198 79.788C54.9358 79.788 54.8398 79.812 54.7198 79.812L54.4198 79.836C54.2398 79.836 54.0358 79.86 53.8438 79.86C53.4598 79.86 53.0638 79.884 52.7038 79.884C51.9238 79.884 51.1798 79.86 50.3878 79.764C50.0038 79.704 49.6078 79.668 49.2478 79.608C49.0678 79.584 48.8638 79.548 48.6718 79.488C48.5878 79.464 48.4918 79.464 48.3718 79.428C48.2878 79.404 48.1918 79.368 48.0718 79.332L48.3718 78.408C48.4318 78.432 48.5278 78.468 48.6118 78.468C48.6958 78.492 48.7918 78.492 48.8878 78.528C49.0678 78.552 49.2478 78.624 49.4278 78.648C49.7878 78.708 50.1478 78.768 50.5078 78.828C51.2278 78.924 51.9838 78.984 52.7278 78.984C53.0878 78.984 53.4838 78.984 53.8438 78.984L54.3838 78.96H54.6598C54.7438 78.96 54.8398 78.936 54.9358 78.936L55.4758 78.876C55.6558 78.852 55.8358 78.852 56.0158 78.816C56.1958 78.78 56.3758 78.792 56.5558 78.756L57.0958 78.66C60.0358 78.18 62.8918 77.22 65.5558 75.9C66.9118 75.24 68.1958 74.52 69.4558 73.68C69.7558 73.476 70.0798 73.26 70.3798 73.056L71.2798 72.396C71.4358 72.276 71.5798 72.192 71.7358 72.072L72.1918 71.748L73.0918 71.052C74.2678 70.092 75.4078 69.132 76.4518 68.076C77.5318 67.02 78.5278 65.916 79.4758 64.752C80.3998 63.576 81.2758 62.352 82.0558 61.056C82.8358 59.76 83.5318 58.452 84.1318 57.06C84.7318 55.68 85.2478 54.264 85.6918 52.836C86.1118 51.396 86.4718 49.932 86.7118 48.456C87.2278 45.48 87.3958 42.456 87.2878 39.456C87.2278 37.956 87.1078 36.456 86.8678 34.956C86.7478 34.2 86.6278 33.456 86.4718 32.736C86.3998 32.016 86.2198 31.272 86.0038 30.552Z" fill="#2E2E2E"/>
<path d="M85.1039 28.3318C85.8239 29.9278 86.3279 31.5718 86.7839 33.2278C87.2039 34.9078 87.5399 36.6238 87.7079 38.3278C87.8759 40.0318 87.9839 41.7838 87.9479 43.5238C87.9239 45.2638 87.7919 46.9798 87.5879 48.7198C87.1319 52.1758 86.2679 55.5238 84.9719 58.7398C84.3119 60.3598 83.5319 61.9198 82.6559 63.3838C82.2359 64.1398 81.7559 64.8598 81.2759 65.6038L80.5199 66.6838C80.3999 66.8638 80.2439 67.0438 80.1359 67.1878L79.7399 67.6918C78.6599 69.0718 77.5199 70.3678 76.2599 71.5678L75.8039 72.0238L75.3239 72.4798C74.9999 72.7798 74.6999 73.0798 74.3639 73.3558C73.7039 73.8958 73.0439 74.4958 72.3479 75.0118L71.8319 75.4078C71.6519 75.5278 71.5079 75.6838 71.3159 75.8038L70.2359 76.5598C70.0559 76.6798 69.8759 76.7998 69.6959 76.9198L69.1559 77.2798L68.0759 77.9998L66.9599 78.6598C66.5639 78.8638 66.2039 79.1158 65.8199 79.3198L64.6799 79.9438C64.4999 80.0638 64.2839 80.1478 64.1039 80.2438L63.5039 80.5438C61.9079 81.2998 60.2639 81.9238 58.5839 82.3438L57.9599 82.4998L57.3359 82.6558L57.0119 82.7158C56.8919 82.7398 56.7959 82.7398 56.6879 82.7758L56.0279 82.8958C55.1519 83.0158 54.2879 83.0998 53.4119 83.1358C52.5359 83.1598 51.6719 83.1598 50.7719 83.1118C49.8959 83.0518 49.0319 82.9318 48.1559 82.7878C47.2799 82.6438 46.4399 82.4278 45.5759 82.1878C45.1559 82.0678 44.7359 81.9118 44.3159 81.7678C44.0999 81.6718 43.8959 81.6118 43.6919 81.5278C43.5719 81.5038 43.4759 81.4318 43.3919 81.3718C43.2719 81.3118 43.1759 81.2758 43.0679 81.2158L43.5239 80.3398C43.6079 80.3638 43.7039 80.4358 43.7999 80.4598C43.8839 80.5198 43.9799 80.5558 44.0759 80.5798C44.2559 80.6758 44.4599 80.7358 44.6519 80.8198C45.0359 80.9758 45.4319 81.1198 45.8519 81.2398C46.6679 81.4798 47.4719 81.6958 48.3119 81.8638C49.1519 82.0198 49.9919 82.1398 50.8319 82.1878C51.6719 82.2478 52.5119 82.2838 53.3879 82.2478C54.2279 82.2238 55.0679 82.1518 55.9439 82.0438L56.5679 81.9478C56.6879 81.9238 56.7839 81.9238 56.8679 81.8878L57.1679 81.8278L57.7919 81.7078L58.4159 81.5518C60.0719 81.1558 61.6919 80.5558 63.2159 79.8478L63.7919 79.5718C63.9719 79.4758 64.1759 79.3918 64.3679 79.2718L65.5079 78.6718C65.9039 78.4918 66.2639 78.2518 66.6239 78.0478L67.7399 77.4238L68.8199 76.7278L69.3599 76.4038C69.5399 76.2838 69.7199 76.1638 69.8999 76.0438L70.9799 75.3238C71.1599 75.2038 71.3399 75.0838 71.4959 74.9278L72.0119 74.5318C72.7079 74.0278 73.3679 73.4518 74.0279 72.9358C74.3519 72.6598 74.6519 72.3598 74.9879 72.0958L75.4679 71.6758L75.9239 71.2198C77.1839 70.0438 78.3239 68.7598 79.4039 67.4398L79.7999 66.9358C79.9559 66.7798 80.0759 66.6118 80.1839 66.4318L80.9399 65.3758C81.4199 64.6558 81.8999 63.9718 82.3199 63.2158C83.1959 61.7398 83.9999 60.2158 84.6599 58.6198C86.0159 55.4398 86.9159 52.1158 87.3599 48.6958C87.5999 46.9918 87.7439 45.2758 87.7799 43.5358C87.8039 41.8318 87.7799 40.0798 87.5999 38.3758C87.4199 36.6718 87.1199 34.9558 86.7239 33.2758C86.3039 31.5718 85.7999 29.9158 85.1039 28.3318Z" fill="#2E2E2E"/>
<path d="M85.1037 28.3318C85.4997 29.2078 85.8597 30.1318 86.1597 31.0318C86.4597 31.9558 86.7357 32.8558 86.9997 33.8278C87.2397 34.7518 87.4557 35.7238 87.6597 36.6478C87.8397 37.6078 87.9837 38.5678 88.1157 39.5278C88.1757 40.0078 88.2357 40.4878 88.2717 40.9678C88.2957 41.4478 88.3677 41.9278 88.3917 42.4078C88.4517 43.3678 88.4877 44.3638 88.4877 45.3118C88.4877 47.2678 88.3317 49.1878 88.0317 51.1078C87.7557 53.0278 87.3117 54.9118 86.7357 56.7838C86.4357 57.7078 86.1357 58.6078 85.7757 59.5438C85.4157 60.4438 85.0197 61.3438 84.5997 62.2198C82.8837 65.6998 80.6397 68.9398 78.0237 71.8198C76.7037 73.2598 75.3237 74.6158 73.8477 75.8758C73.0917 76.4998 72.3477 77.0998 71.5677 77.6998C70.7877 78.2998 70.0077 78.8758 69.1917 79.4038C67.5717 80.4838 65.9157 81.4798 64.1757 82.4038C62.4597 83.3278 60.6357 84.0838 58.7757 84.6838C56.8917 85.2598 54.9597 85.6438 53.0157 85.8598C52.7757 85.8838 52.5357 85.9198 52.2957 85.9198C52.0557 85.9198 51.8157 85.9438 51.5397 85.9798L50.7837 86.0038C50.5437 86.0038 50.3037 86.0038 50.0277 86.0038H49.3197H48.9597C48.8397 86.0038 48.7197 86.0038 48.5997 86.0038L47.8437 85.9798H47.4837C47.3637 85.9798 47.2437 85.9798 47.1237 85.9558C45.1677 85.8358 43.2237 85.4998 41.3397 84.9958L40.6197 84.7918L39.9357 84.5518C39.6957 84.4558 39.4797 84.3958 39.2517 84.3118C39.0237 84.2278 38.7957 84.1318 38.5677 84.0358C38.1117 83.8558 37.6677 83.6398 37.2117 83.4118L36.8877 83.2318L36.5637 83.0518C36.4437 82.9918 36.3477 82.8958 36.2397 82.8718C36.1797 82.8478 36.1197 82.8118 36.0837 82.7518C36.0237 82.7278 35.9637 82.6918 35.9277 82.6318L36.5037 81.8518C36.5277 81.8758 36.5877 81.9118 36.6237 81.9478C36.6837 81.9718 36.7077 82.0078 36.7797 82.0438C36.8637 82.1038 36.9597 82.1638 37.0797 82.2238L37.3797 82.4038L37.6797 82.5598C38.0997 82.7638 38.5197 82.9798 38.9397 83.1598C39.1557 83.2558 39.3957 83.3398 39.5997 83.4358C39.8037 83.5318 40.0557 83.6158 40.2597 83.6758L40.9197 83.9158L41.6037 84.1198C43.4277 84.6598 45.3237 84.9598 47.2197 85.1158C47.3397 85.1158 47.4597 85.1398 47.5797 85.1398L47.9397 85.1638L48.6597 85.1878C48.7797 85.1878 48.8997 85.1878 49.0197 85.2118H49.3797H50.0997C50.3397 85.2118 50.5797 85.2118 50.8197 85.2118L51.5397 85.1878C51.7797 85.1878 52.0197 85.1638 52.2597 85.1278C52.4997 85.1038 52.7397 85.1038 52.9797 85.0678C54.8637 84.8878 56.7597 84.5278 58.5957 83.9878C60.4197 83.4478 62.1957 82.7278 63.9117 81.8278C65.6277 80.9278 67.2717 79.9678 68.8917 78.9238C69.7077 78.3838 70.4757 77.8438 71.2677 77.2678C72.0477 76.6918 72.7917 76.0918 73.5237 75.4678C74.9997 74.2438 76.4037 72.8878 77.6997 71.5078C80.3157 68.6878 82.5597 65.5078 84.2997 62.0878C84.7197 61.2118 85.1157 60.3478 85.4997 59.4838C85.8597 58.5838 86.1837 57.6838 86.4837 56.7838C87.0597 54.9598 87.5397 53.0638 87.8397 51.1798C88.1397 49.2598 88.2957 47.3398 88.3197 45.4198C88.3197 44.4598 88.3197 43.4998 88.2597 42.5158C88.2357 42.0358 88.1997 41.5558 88.1637 41.0758C88.1037 40.5958 88.0797 40.1158 88.0077 39.6358C87.8877 38.6758 87.7317 37.7158 87.5517 36.7558C87.3717 35.7958 87.1677 34.8598 86.9517 33.9358C86.7117 33.0118 86.4357 32.0758 86.1357 31.1398C85.8237 30.1318 85.4997 29.1958 85.1037 28.3318Z" fill="#2E2E2E"/>
<path d="M27.5037 81.972C27.9597 82.248 28.4277 82.512 28.8837 82.776C29.1237 82.932 29.3637 83.052 29.6037 83.172L30.3237 83.568C31.2837 84.072 32.2677 84.528 33.2637 84.948C34.2477 85.404 35.2797 85.752 36.2877 86.124C36.8037 86.28 37.3077 86.484 37.8477 86.604L38.2317 86.724L38.4117 86.784L38.5917 86.844L39.3717 87.024C41.4717 87.504 43.6317 87.804 45.7917 87.9C46.0677 87.924 46.3317 87.924 46.6077 87.924H47.0277C47.1837 87.924 47.3037 87.924 47.4477 87.924H48.2637C48.5397 87.924 48.8037 87.9 49.0797 87.9C49.6197 87.876 50.1597 87.804 50.6997 87.78L51.5157 87.684C51.7917 87.66 52.0557 87.624 52.3317 87.564C53.4117 87.408 54.4557 87.24 55.5477 86.988C56.6277 86.784 57.6717 86.508 58.7277 86.208C60.8037 85.608 62.8437 84.768 64.7517 83.808L65.4717 83.448L66.1917 83.052C66.4317 82.932 66.6717 82.776 66.9117 82.656C67.1517 82.5 67.3917 82.38 67.6317 82.236C68.5557 81.696 69.4917 81.096 70.3917 80.496C71.2917 79.872 72.1677 79.236 73.0077 78.54C73.8477 77.844 74.6637 77.136 75.4317 76.38C76.9917 74.856 78.4317 73.2 79.7517 71.484C81.0717 69.744 82.3077 67.944 83.4117 66.06C84.5277 64.164 85.5357 62.256 86.3877 60.24C87.2277 58.236 87.8277 56.1 88.2117 53.964C88.9917 49.668 89.0277 45.24 88.5117 40.884C88.3917 39.804 88.2117 38.724 88.0317 37.644C87.8157 36.564 87.5757 35.52 87.3117 34.44C87.0357 33.384 86.7117 32.34 86.3517 31.284C85.9917 30.264 85.5717 29.244 85.0917 28.26C85.5717 29.256 85.9917 30.264 86.3877 31.284C86.7717 32.304 87.1077 33.36 87.4077 34.404C87.7077 35.448 87.9477 36.528 88.1637 37.608C88.3797 38.688 88.5477 39.768 88.6797 40.848C89.2197 45.204 89.2557 49.644 88.4997 53.952C88.1157 56.112 87.5157 58.248 86.6997 60.276C85.8837 62.316 84.8757 64.272 83.7597 66.18C82.6437 68.076 81.4437 69.936 80.0997 71.676C78.7797 73.416 77.3397 75.096 75.7797 76.656C74.9997 77.436 74.1957 78.18 73.3197 78.876C72.4797 79.572 71.5797 80.256 70.6797 80.88C69.7797 81.504 68.8557 82.104 67.9197 82.68C67.6797 82.836 67.4397 82.956 67.1997 83.1C66.9597 83.256 66.7197 83.376 66.4797 83.52L65.7597 83.916L65.0037 84.312C63.0237 85.308 61.0077 86.172 58.8837 86.832C57.8037 87.132 56.7597 87.408 55.6677 87.636C54.5877 87.876 53.5077 88.092 52.4277 88.236C52.1517 88.26 51.8877 88.332 51.6117 88.356L50.7957 88.452C50.2557 88.512 49.6797 88.572 49.1397 88.572C48.8637 88.572 48.5997 88.596 48.2997 88.596L47.4597 88.62C47.3037 88.62 47.1837 88.62 47.0397 88.62H46.6197C46.3437 88.62 46.0797 88.62 45.7797 88.596C43.5597 88.5 41.3637 88.236 39.1797 87.756L38.3637 87.576L38.1477 87.516L37.9317 87.456L37.5477 87.336C37.0077 87.18 36.4677 87.012 35.9637 86.856C34.9077 86.496 33.8637 86.1 32.8437 85.68C31.8237 85.224 30.8277 84.78 29.8437 84.3L29.0877 83.904C28.8477 83.748 28.6077 83.628 28.3677 83.508C27.8877 83.232 27.4077 82.968 26.9277 82.668L27.5037 81.972Z" fill="#2E2E2E"/>
<path d="M85.1037 28.3319C85.4277 28.0559 85.7637 27.7559 86.0997 27.4559C86.4357 27.1559 86.7597 26.8559 87.0597 26.5319C87.3837 26.2319 87.6837 25.9079 87.9837 25.5719C88.2837 25.2359 88.5837 24.9119 88.8597 24.5759C89.4357 23.9159 89.9757 23.2199 90.4797 22.4999C90.7197 22.1399 90.9597 21.7799 91.1997 21.4199C91.3197 21.2399 91.4157 21.0599 91.5237 20.8439L91.6797 20.5679L91.8357 20.2679C91.9317 20.0879 92.0157 19.8719 92.1117 19.6919L92.2317 19.3919L92.2917 19.2359L92.3517 19.0799L92.4717 18.7799L92.5677 18.4799C92.5917 18.4199 92.5917 18.3839 92.6277 18.3239L92.6517 18.1679C92.6757 18.0479 92.7117 17.9639 92.7117 17.8679C92.8677 17.0639 92.8677 16.2119 92.7357 15.3719C92.5797 14.5679 92.2797 13.7519 91.8957 13.0319C91.6797 12.6719 91.4757 12.3119 91.2117 11.9519C91.0917 11.7959 90.9717 11.6279 90.8157 11.4719C90.7557 11.3759 90.6597 11.3159 90.5997 11.2319C90.5757 11.2079 90.5397 11.1359 90.4797 11.1119L90.3837 11.0159L90.8037 11.1359C90.4797 11.1959 90.1437 11.2919 89.8197 11.3759C89.4957 11.4599 89.1597 11.5559 88.8237 11.6519C88.1637 11.8319 87.5397 12.0479 86.9037 12.2759C86.2797 12.5159 85.6437 12.7559 85.0437 13.0559C84.4437 13.3559 83.8677 13.6799 83.3637 14.1119C82.8837 14.5319 82.4397 15.0359 82.0077 15.5879C81.5757 16.1399 81.2277 16.6919 80.8677 17.2679C80.1477 18.4439 79.4877 19.6439 78.8877 20.8919C79.1037 20.2319 79.3437 19.5959 79.6077 18.9359C79.8717 18.2759 80.1477 17.6759 80.4837 17.0399C80.7837 16.4159 81.1437 15.8159 81.5397 15.2399C81.9357 14.6639 82.3557 14.0999 82.8957 13.5839C83.4357 13.1039 84.0357 12.7079 84.6357 12.3599C85.2597 11.9999 85.8957 11.7359 86.5557 11.4599C87.2157 11.1839 87.8757 10.9799 88.5357 10.7399C88.8597 10.6199 89.1957 10.5359 89.5557 10.4399C89.9157 10.3439 90.2157 10.2599 90.5757 10.1999L90.8157 10.1399L90.9957 10.2959C91.0557 10.3559 91.0917 10.3919 91.1517 10.4519C91.1757 10.4759 91.2477 10.5479 91.2717 10.5719C91.3677 10.6679 91.4277 10.7519 91.5117 10.8479C91.6677 11.0279 91.8117 11.2079 91.9677 11.3879C92.2437 11.7839 92.5077 12.1679 92.7237 12.5639C93.1797 13.3679 93.5037 14.2679 93.6477 15.2039C93.7317 15.6599 93.7677 16.1279 93.7317 16.6079C93.7077 17.0879 93.6717 17.5319 93.5517 18.0119C93.5277 18.1319 93.4917 18.2519 93.4677 18.3359L93.4077 18.5159C93.3837 18.5759 93.3837 18.6359 93.3477 18.6719L93.2277 18.9959L93.1077 19.3199L93.0477 19.4759L92.9877 19.6319L92.8317 19.9319L92.6757 20.2319L92.5797 20.3879L92.4957 20.5439C91.5957 22.1399 90.4557 23.5439 89.1957 24.8039C88.5717 25.4279 87.8757 26.0279 87.1797 26.6039C86.5797 27.3119 85.8597 27.8519 85.1037 28.3319Z" fill="#2E2E2E"/>
<path d="M71.6399 23.0159C71.3639 23.1959 71.0999 23.4119 70.8599 23.5919C70.7399 23.6879 70.6199 23.7959 70.4759 23.8919C70.4159 23.9519 70.3559 23.9879 70.2959 24.0479L70.1159 24.2039C69.6359 24.6239 69.1919 25.0799 68.7359 25.5599C68.2799 26.0159 67.8959 26.5199 67.4759 26.9999L66.8759 27.7559C66.6599 27.9959 66.4919 28.2599 66.2519 28.5359L66.3119 27.9959C66.3719 28.0919 66.4319 28.1759 66.4679 28.2719C66.5279 28.3679 66.5879 28.4519 66.6479 28.5479C66.7679 28.7279 66.9239 28.9079 67.0319 29.0519C67.1879 29.2079 67.3079 29.3759 67.4519 29.5319C67.5959 29.6879 67.7519 29.8319 67.9079 29.9879C68.2079 30.3119 68.5319 30.5879 68.8679 30.8279C69.0239 30.9479 69.2279 31.1039 69.3839 31.1879C69.5399 31.3079 69.7439 31.3679 69.9239 31.4639C70.3079 31.6199 70.7399 31.7399 71.1479 31.8239C71.5679 31.9199 71.9879 31.9799 72.4319 32.0039C73.3079 32.0639 74.2319 32.0639 75.1319 32.1599C74.2319 32.3159 73.3559 32.4839 72.4319 32.5559C72.3119 32.5559 72.1919 32.5559 72.0719 32.5799C71.9519 32.5799 71.8319 32.5799 71.7119 32.5799C71.4719 32.5799 71.2319 32.5559 70.9919 32.5559C70.5359 32.4959 70.0679 32.3999 69.6119 32.2799C69.3719 32.1839 69.1559 32.1239 68.9279 32.0039C68.6879 31.8839 68.5079 31.7639 68.3039 31.6079C68.1239 31.4519 67.9079 31.3319 67.7279 31.1879C67.5479 31.0319 67.3679 30.8879 67.1879 30.7079C66.8639 30.3839 66.5279 30.0479 66.2279 29.6519C66.0719 29.4719 65.9279 29.2919 65.8079 29.0759C65.7479 28.9799 65.6519 28.8959 65.5919 28.7759C65.5319 28.6559 65.4719 28.5959 65.4119 28.4519L65.2319 28.1519L65.4719 27.9119C65.6879 27.7079 65.8919 27.4319 66.0959 27.1919C66.3119 26.9519 66.5519 26.7119 66.7559 26.4719C67.2119 25.9919 67.6799 25.5479 68.1959 25.0919C68.7119 24.6719 69.2159 24.2519 69.7799 23.8919L69.9959 23.7359C70.0559 23.7119 70.1519 23.6399 70.2119 23.6159C70.3679 23.5199 70.5119 23.4599 70.6679 23.3759C71.0399 23.2559 71.3399 23.1359 71.6399 23.0159Z" fill="#2E2E2E"/>
<path d="M28.2239 82.0319C38.8679 82.0319 47.4839 74.3279 47.4839 64.8359C47.4839 55.3559 38.8439 47.6399 28.2239 47.6399C17.5679 47.6399 8.96387 55.3439 8.96387 64.8359C8.96387 74.3159 17.6039 82.0319 28.2239 82.0319Z" fill="url(#paint1_radial_33_3)"/>
<path d="M47.2437 72.5159C49.3677 72.5159 51.1197 70.7759 51.1197 68.6399C51.1197 66.5039 49.3797 64.7639 47.2437 64.7639C45.1197 64.7639 43.3677 66.5039 43.3677 68.6399C43.3797 70.7759 45.1197 72.5159 47.2437 72.5159Z" fill="white"/>
<path d="M44.6997 27.4319C44.9757 25.0319 46.7397 24.0719 48.8757 24.2759C50.9997 24.5159 52.4997 26.6519 52.2357 29.0519C51.9597 31.4519 48.5157 35.3759 47.1117 40.4279C48.5997 35.1719 44.8197 31.8359 44.6997 27.4319Z" fill="white"/>
<path d="M49.9439 38.9759C51.1679 38.0759 52.8839 38.3159 53.6999 39.4799C54.5399 40.6559 54.2159 42.3359 52.9799 43.1999C51.7439 44.0639 48.3599 44.0039 45.3599 45.4559C48.4799 43.9919 48.7199 39.8759 49.9439 38.9759Z" fill="white"/>
<path d="M41.6399 38.0519C41.2559 37.1519 41.6399 36.0959 42.5399 35.7479C43.4159 35.3519 44.4599 35.8079 44.8559 36.7079C45.2519 37.6079 44.6999 39.7679 45.1799 41.8679C44.6399 39.6359 42.0239 38.9519 41.6399 38.0519Z" fill="white"/>
<path d="M46.0439 72.132C47.1239 72.132 47.9999 71.256 47.9999 70.176C47.9999 69.096 47.1239 68.22 46.0439 68.22C44.9639 68.22 44.0879 69.096 44.0879 70.176C44.1239 71.292 44.9999 72.132 46.0439 72.132Z" fill="#2E2E2E"/>
<path d="M56.5436 72.5759C56.4596 72.6959 56.3876 72.7799 56.3036 72.8999C56.2436 73.0199 56.1476 73.1039 56.0876 73.2239C55.9316 73.4639 55.8116 73.6799 55.6676 73.9199C55.3676 74.3759 55.0076 74.7959 54.6116 75.1799C54.2276 75.5759 53.8316 75.9359 53.4116 76.2599C52.9916 76.5839 52.5716 76.9199 52.1276 77.2559C50.3876 78.5159 48.5036 79.5959 46.5116 80.4959C44.5316 81.3959 42.4556 82.0559 40.3316 82.5359L39.5516 82.6919C39.2756 82.7519 39.0116 82.7879 38.7356 82.8479L38.3516 82.9079C38.1956 82.9319 38.0756 82.9319 37.9316 82.9679C37.6556 82.9919 37.3916 83.0639 37.1156 83.0879C36.5756 83.1479 36.0356 83.2079 35.4956 83.2439C34.9556 83.3039 34.4156 83.3399 33.8756 83.3639C33.5996 83.3639 33.3356 83.3639 33.0596 83.3879H32.6396C32.4836 83.3879 32.3636 83.3879 32.2196 83.3879H31.4396L30.6236 83.3639L30.2036 83.3399L29.7836 83.3159L28.9676 83.2559L28.1516 83.1599C27.9956 83.1359 27.8756 83.1359 27.7316 83.0999L27.3116 83.0399C27.0356 83.0159 26.7716 82.9439 26.4956 82.9199L25.6796 82.7639C25.4036 82.7039 25.1396 82.6679 24.8996 82.6079C24.6236 82.5479 24.3596 82.4879 24.1196 82.4279L23.3396 82.2239C23.1836 82.1999 23.0636 82.1639 22.9556 82.1039L22.5716 81.9479L22.1876 81.7919C22.0676 81.7319 21.9476 81.6959 21.8036 81.6359C21.5636 81.5399 21.2876 81.4559 21.0236 81.3359C20.7836 81.2159 20.5076 81.1319 20.2676 81.0119C20.0276 80.8919 19.7876 80.8079 19.5116 80.6519C19.2716 80.5319 19.0316 80.4119 18.7916 80.2919L18.4316 80.1119L18.0716 79.9079C17.5916 79.6319 17.1476 79.3319 16.6916 79.0319C16.2356 78.7319 15.7916 78.4079 15.3716 78.0719C14.9516 77.7479 14.5316 77.3759 14.1476 76.9919C13.7636 76.5959 13.3676 76.2119 13.0316 75.8159C12.6716 75.3959 12.3476 74.9759 12.0476 74.5199C11.8916 74.3159 11.7476 74.0639 11.6276 73.8239C11.4716 73.5839 11.3876 73.3439 11.2676 73.1039C11.5676 73.5599 11.9276 73.9439 12.2876 74.3279C12.6476 74.7239 13.0436 75.0839 13.4276 75.4079C13.8116 75.7679 14.2076 76.1039 14.6516 76.4039C15.0716 76.7039 15.4916 77.0039 15.9356 77.2799C16.8116 77.8559 17.7356 78.3359 18.6596 78.7559L19.0196 78.9119L19.3796 79.0679C19.6196 79.1879 19.8596 79.2719 20.0996 79.3679C20.3396 79.4639 20.5796 79.5479 20.8196 79.6439C21.0596 79.7399 21.2996 79.8239 21.5396 79.8839C21.7796 79.9799 22.0196 80.0399 22.2956 80.1239C22.4156 80.1479 22.5356 80.2199 22.6556 80.2439L23.0156 80.3399L23.3756 80.4359C23.4956 80.4599 23.6156 80.4959 23.7596 80.5319L24.5156 80.6879C25.5356 80.8679 26.5556 81.0479 27.5756 81.1439C28.0916 81.2039 28.5956 81.2399 29.0996 81.2999L29.8796 81.3599L30.2636 81.3839H30.6476L31.4276 81.4079H32.2076C32.3276 81.4079 32.4836 81.4079 32.5916 81.4079H32.9756C33.2516 81.4079 33.4916 81.4079 33.7556 81.3839C34.8116 81.3599 35.8316 81.2639 36.8396 81.1799C37.8596 81.0599 38.8796 80.9039 39.8996 80.7239C40.9196 80.5439 41.9156 80.3039 42.8996 80.0279L43.6556 79.8239L44.4116 79.5839C44.8916 79.4279 45.3956 79.2599 45.8876 79.0799C47.8436 78.3599 49.7276 77.4839 51.5636 76.4759C51.8036 76.3559 52.0196 76.1999 52.2476 76.0799L52.9316 75.6599C53.3876 75.3839 53.8076 75.0839 54.2156 74.7839C54.6356 74.4599 55.0316 74.1239 55.3916 73.7279C55.5716 73.5479 55.7516 73.3319 55.9316 73.1279C56.1596 72.9359 56.3396 72.7319 56.5436 72.5759Z" fill="#2E2E2E"/>
</g>
<path d="M24.8999 110.856C24.6839 110.4 24.5999 110.16 24.4199 109.68C25.5599 109.62 26.5799 109.404 27.4439 109.08C28.3199 108.756 29.0039 108.324 29.5439 107.88C30.0839 107.436 30.5639 106.86 30.9599 106.2C31.3799 105.54 31.6799 104.904 31.8839 104.304C32.0999 103.704 32.3039 103.008 32.5079 102.204C32.6279 101.784 32.8079 101.148 33.0479 100.284C33.3239 99.4078 33.5039 98.7598 33.6239 98.2798C34.0439 98.3398 34.7039 98.4598 35.5799 98.6398C35.9399 98.7358 36.4799 98.8438 37.1999 98.9998C37.9199 99.1558 38.4839 99.2398 38.8559 99.2998C39.5399 99.3958 40.1759 99.4558 40.7399 99.4798C40.8239 100.284 40.7999 101.556 40.6199 103.26C40.5599 103.716 40.4999 104.436 40.3799 105.384C40.2599 106.344 40.1639 107.088 40.1399 107.604C39.9239 109.56 39.8999 111.18 40.0199 112.464C39.8039 112.824 39.5039 112.968 39.0359 112.92C38.7119 112.896 38.4119 112.764 38.1119 112.56C37.8119 112.356 37.6319 112.08 37.6319 111.84C37.6319 111.06 37.9079 110.22 37.9559 109.74C38.0399 109.044 38.1719 107.964 38.3159 106.5C38.4599 105.036 38.6159 103.896 38.7359 103.08C38.8919 102 39.0119 101.184 39.1199 100.656C38.7599 100.596 38.1599 100.476 37.2959 100.332C36.4199 100.176 35.7719 100.008 35.3159 99.8518C35.0399 100.428 34.7759 101.208 34.4759 102.156C34.1759 103.104 33.8999 103.956 33.6959 104.712C33.4799 105.468 33.1199 106.236 32.6759 107.112C32.2199 107.952 31.6919 108.672 31.1159 109.212C30.5159 109.752 29.6999 110.232 28.6319 110.568C27.5999 110.892 26.3399 111.012 24.8999 110.856Z" fill="white"/>
<path d="M44.6038 111.252C44.6038 111.456 44.6038 111.732 44.6278 112.056C44.4478 112.416 44.1478 112.596 43.6678 112.596C43.3438 112.596 43.0438 112.476 42.7678 112.296C42.4918 112.116 42.2518 111.84 42.2518 111.636C42.2278 110.832 42.5278 109.26 42.7078 107.412C42.8878 105.564 43.0078 104.292 43.0678 103.632C43.4878 103.608 43.6918 103.572 44.1238 103.536C44.2798 104.316 44.3638 105.336 44.3638 106.596C44.3638 107.856 44.4238 108.816 44.4838 109.452C44.8078 109.128 45.7678 108.276 47.1598 106.848C48.5758 105.408 49.4158 104.292 49.8358 103.572C50.1598 103.512 50.3758 103.452 50.4598 103.452C50.7358 103.428 50.9398 103.512 51.0838 103.692C51.2038 103.872 51.3238 104.268 51.4078 104.832C51.8638 107.772 52.0918 109.236 52.6078 112.152C52.4878 112.512 52.1878 112.728 51.7318 112.776C51.4078 112.8 51.1078 112.752 50.8078 112.596C50.5078 112.44 50.2678 112.2 50.2318 111.996C50.1718 111.672 50.2078 110.616 50.1718 109.092C50.1478 107.568 50.1118 106.452 50.1118 105.792C47.6998 108.276 45.6838 110.016 44.6038 111.252Z" fill="white"/>
<path d="M60.1439 101.796C60.5639 101.772 60.7439 101.736 61.1639 101.7C62.1239 104.46 63.1199 107.196 64.1039 109.92C64.0439 110.316 63.8039 110.58 63.3839 110.7C63.0839 110.796 62.7599 110.796 62.4239 110.7C62.0999 110.604 61.8479 110.46 61.7279 110.22C61.7279 110.196 61.5479 109.164 61.1879 107.22C61.1879 107.16 61.1639 107.124 61.1639 107.064C60.7079 107.16 60.0479 107.304 59.1839 107.52C57.8639 107.82 56.8679 107.976 56.1839 108.024C56.3999 108.684 56.6639 109.8 57.0839 111.3C56.9999 111.696 56.7239 111.924 56.2679 111.996C55.9679 112.056 55.6439 111.996 55.3439 111.876C55.0439 111.756 54.7679 111.516 54.7199 111.3C54.5999 110.82 54.6359 110.1 54.5399 109.5C54.4799 109.104 54.3839 108.54 54.2639 107.796C54.1439 107.052 54.0479 106.476 53.9879 106.116C53.8319 104.976 53.7479 104.016 53.7119 103.236C54.1319 103.26 54.3359 103.26 54.7679 103.26C55.4879 105.78 55.8839 107.064 55.9079 107.136C58.6319 106.776 59.9879 106.44 60.0839 106.44C60.7079 106.284 61.0439 106.164 61.0079 106.116C60.9479 105.876 60.7919 105.12 60.5279 103.896C60.2999 102.636 60.1799 101.952 60.1439 101.796Z" fill="white"/>
<path d="M63.684 100.596C63.78 100.392 65.16 99.9719 66.3 99.3719C67.44 98.7959 68.256 98.3159 68.7 98.1119C69 97.9559 69.36 97.9319 69.684 98.0159C70.008 98.1119 70.224 98.2199 70.308 98.4719C70.464 98.7959 70.284 99.1679 69.768 99.3959C69.312 99.5999 68.472 99.8999 67.392 100.236C66.336 100.596 65.496 100.836 64.968 100.992C65.244 101.688 65.724 102.768 66.444 104.232C67.164 105.696 67.704 106.836 68.004 107.652C68.28 108.348 68.004 108.852 67.188 109.128C66.492 109.368 66.072 109.152 65.868 108.528C65.628 107.772 65.388 106.968 65.148 106.104C64.908 105.228 64.632 104.208 64.368 103.08C64.044 101.952 63.624 100.752 63.684 100.596Z" fill="white"/>
<path d="M71.3037 97.3558C73.1277 95.9518 74.1837 95.0518 74.6037 94.7998C76.2597 93.7798 77.4237 93.7798 78.2277 94.8958C78.5037 95.2918 78.6837 95.7358 78.7677 96.2158C78.8517 96.6958 78.7917 97.0918 78.6117 97.3918C79.9917 97.2358 81.0117 97.5718 81.6357 98.4718C82.2357 99.3478 82.3557 100.272 81.8757 101.328C81.3957 102.384 80.4597 103.332 79.0557 104.184C77.3997 105.18 75.9357 105.54 74.7717 105.324C73.6437 102.636 72.4797 99.9958 71.3037 97.3558ZM72.5997 97.5718C73.1997 98.5318 73.4757 98.9758 74.0757 99.9478C74.2557 99.8278 74.5917 99.6238 74.9997 99.3718C75.4197 99.1318 75.7557 98.8918 75.9597 98.7118C76.1997 98.5318 76.4397 98.2558 76.6557 97.9558C76.8957 97.6558 76.9797 97.2958 76.9797 96.8758C76.9797 96.4558 76.8237 95.9998 76.5837 95.4958C76.2597 95.2918 75.7677 95.3758 75.1437 95.7718C74.8437 95.9518 74.4237 96.2758 73.8237 96.6958C73.2237 97.1518 72.8037 97.4158 72.5997 97.5718ZM74.5797 100.716C75.3597 101.94 75.7557 102.576 76.5357 103.812C76.9917 103.716 77.4357 103.572 77.8917 103.272C78.7917 102.732 79.5117 102.048 79.9677 101.172C80.4477 100.296 80.4837 99.6118 80.1477 99.0958C79.9077 98.7358 79.4877 98.5198 78.9237 98.4718C78.3477 98.4118 77.7837 98.5678 77.2077 98.9278C76.8597 99.1558 75.9837 99.7918 74.5797 100.716Z" fill="white"/>
<path d="M80.8801 92.892C80.5201 92.712 80.3401 92.616 79.9561 92.436C80.0761 91.956 80.2801 91.44 80.6161 90.936C80.9401 90.432 81.3361 89.976 81.7561 89.616C83.6161 87.996 85.6801 88.32 88.1761 90.816C88.5001 91.14 88.9921 91.692 89.5921 92.412C90.1921 93.132 90.7921 93.672 91.0081 93.972C91.1881 94.248 91.1041 94.668 90.8281 94.932C90.6121 95.136 90.3121 95.256 89.9881 95.292C89.6641 95.328 89.3881 95.232 89.2081 95.016C89.1481 94.956 89.1121 94.896 89.1121 94.86C88.8361 96.084 88.2121 97.14 87.2881 97.884C86.6041 98.46 85.8121 98.784 85.0081 98.844C84.1921 98.904 83.5921 98.64 83.2081 98.124C82.5481 97.224 82.4281 96.084 82.7521 94.668C83.0761 93.252 83.7481 92.112 84.7921 91.164C84.8521 91.14 84.8761 91.068 84.9481 91.044C85.0081 91.02 85.0681 90.948 85.1281 90.924C85.1881 90.864 85.2481 90.828 85.2841 90.804C84.2281 89.88 83.2681 89.844 82.3081 90.648C81.7441 91.116 81.3001 91.872 80.8801 92.892ZM88.3201 93.936C87.7801 93.312 87.3601 92.832 87.0601 92.496C86.8201 92.22 86.4601 91.872 85.9801 91.416C85.9201 91.476 85.8961 91.512 85.8241 91.536C85.0081 92.292 84.4681 93.192 84.1441 94.26C83.8441 95.34 83.9281 96.216 84.4681 96.9C84.7081 97.2 85.0441 97.356 85.4281 97.32C85.8121 97.296 86.2081 97.14 86.5681 96.816C87.1441 96.396 87.7801 95.412 88.3201 93.936Z" fill="white"/>
<path d="M103.62 75.912C103.896 76.008 104.004 76.032 104.28 76.116C104.064 77.04 103.74 77.892 103.356 78.636C102.972 79.356 102.516 79.896 101.976 80.256C101.436 80.616 100.896 80.796 100.392 80.796C99.8518 80.82 99.3118 80.796 98.7118 80.772C98.1358 80.748 97.5718 80.712 97.0918 80.676C96.5758 80.652 96.0958 80.736 95.5918 80.952C95.1118 81.156 94.6918 81.528 94.3318 82.032C96.1318 83.136 97.0318 83.712 98.8318 84.828C99.0478 85.152 99.0478 85.524 98.7718 85.908C98.5918 86.184 98.3518 86.364 98.0158 86.484C97.7158 86.604 97.3558 86.64 97.1758 86.508C96.9958 86.376 95.3758 85.104 92.3758 82.752C89.3758 80.4 87.5998 79.056 87.1558 78.696C87.4318 78.42 87.5758 78.3 87.8518 78.036C88.2358 78.276 88.9678 78.756 90.0118 79.392C91.0918 80.052 91.8118 80.496 92.1718 80.748C92.5318 80.208 92.6878 79.644 92.6278 79.044C92.5678 78.444 92.3878 77.904 92.0518 77.364C91.7518 76.824 91.4278 76.308 91.1278 75.804C90.8278 75.3 90.6118 74.724 90.5038 74.148C90.4078 73.572 90.5038 73.008 90.7798 72.468C90.9958 72.048 91.4398 71.388 92.0998 70.428C92.3158 70.632 92.4238 70.728 92.6758 70.932C92.1958 71.688 91.8958 72.108 91.8358 72.228C91.5958 72.684 91.5598 73.128 91.7158 73.584C91.8718 74.064 92.1118 74.508 92.4358 74.964C92.7598 75.42 93.0958 75.924 93.4318 76.44C93.7558 76.944 93.9718 77.58 94.0558 78.3C94.1398 79.02 94.0318 79.776 93.6958 80.556C94.2358 80.016 94.7758 79.596 95.4118 79.332C96.0358 79.056 96.6118 78.912 97.1878 78.936C97.7278 78.936 98.3278 78.96 98.9038 78.996C99.5038 79.02 100.044 79.056 100.524 79.092C101.004 79.116 101.448 79.068 101.88 78.852C102.3 78.672 102.66 78.312 102.9 77.832C103.14 77.376 103.38 76.752 103.62 75.912Z" fill="white"/>
<path d="M103.98 72.3119C104.16 72.4079 104.436 72.4679 104.76 72.5879C105.06 72.8879 105.084 73.2119 104.916 73.6679C104.796 73.9679 104.592 74.2079 104.316 74.3879C104.04 74.5919 103.716 74.6879 103.5 74.6279C102.72 74.3879 101.376 73.5479 99.6842 72.7079C98.0042 71.8679 96.8642 71.3279 96.2642 71.0279C96.3842 70.6079 96.4442 70.4279 96.5402 70.0079C97.3202 70.1279 98.3162 70.4279 99.5162 70.8479C100.716 71.3039 101.616 71.6039 102.216 71.7479C102.036 71.3279 101.556 70.1519 100.716 68.3279C99.8762 66.5039 99.1322 65.3039 98.5922 64.6079C98.6522 64.2839 98.6882 64.0679 98.7122 63.9839C98.8082 63.7079 98.9522 63.5279 99.1682 63.4799C99.4082 63.4199 99.7922 63.4559 100.344 63.5759C103.26 64.1759 104.724 64.4759 107.64 65.0159C107.94 65.2559 108.024 65.6159 107.916 66.0719C107.82 66.3719 107.64 66.6719 107.4 66.9119C107.16 67.1519 106.86 67.3079 106.62 67.2359C106.296 67.1759 105.336 66.7799 103.896 66.2399C102.456 65.7359 101.412 65.3399 100.812 65.1359C102.264 68.4119 103.2 70.8959 103.98 72.3119Z" fill="white"/>
<path d="M100.26 61.8119C99.9358 61.8119 99.7798 61.8119 99.4438 61.8359C100.068 58.5359 100.428 55.2119 100.5 51.8399C100.524 51.4439 100.656 51.1199 100.86 50.8439C101.076 50.5679 101.28 50.4239 101.52 50.4479C101.88 50.4479 102.096 50.8079 102.096 51.4679C101.94 53.3279 101.82 54.2639 101.52 56.0639C102.42 56.0879 103.74 56.2199 105.42 56.4239C107.136 56.6279 108.6 56.6279 109.176 56.8199C109.452 56.9159 109.632 57.3959 109.56 57.8759C109.536 58.1999 109.38 58.4759 109.176 58.7519C108.96 59.0279 108.72 59.1719 108.48 59.2079C105.6 58.4879 103.2 57.8279 101.256 57.2879C100.944 59.1359 100.74 60.0359 100.26 61.8119Z" fill="white"/>
<path d="M3.32422 38.8321C3.94822 35.7721 5.00422 32.7721 6.30022 29.8921C7.58422 27.0121 9.18022 24.2881 11.0762 21.7321C12.9362 19.1761 15.1322 16.8361 17.5322 14.7721L18.4322 13.9921C18.5882 13.8721 18.7322 13.7161 18.8882 13.5961L19.3682 13.2361L21.2882 11.8321C21.9482 11.4121 22.6082 10.9561 23.3042 10.5361C23.9882 10.1401 24.6602 9.6961 25.3802 9.3601C28.1642 7.8601 31.1402 6.6841 34.2002 5.8561C37.2602 5.0161 40.4162 4.5361 43.5602 4.3561C49.8602 4.0321 56.2442 4.8601 62.1602 6.9601C59.1362 6.1561 56.0402 5.5801 52.9442 5.3401C51.3842 5.1841 49.8242 5.1361 48.2882 5.1361C46.7282 5.1361 45.1682 5.1601 43.6322 5.3161C40.5482 5.5921 37.4762 6.0961 34.5122 6.9721C31.5362 7.8121 28.6682 8.9761 25.9322 10.4521C25.2482 10.7761 24.5762 11.2081 23.9162 11.5921C23.2562 11.9761 22.6322 12.4321 21.9602 12.8521L20.1002 14.2321L19.6202 14.5561C19.4642 14.6761 19.3202 14.7961 19.1642 14.9161L18.2642 15.6721C15.8882 17.6521 13.7642 19.8961 11.8442 22.3321C9.92422 24.7681 8.28022 27.3961 6.86422 30.1921L6.32422 31.2481C6.14422 31.6081 6.00022 31.9681 5.84422 32.3041C5.52022 33.0001 5.22022 33.7441 4.92022 34.4641C4.32022 35.8561 3.78022 37.3321 3.32422 38.8321Z" fill="white"/>
<path d="M89.6042 86.9519C89.3042 87.7079 89.7242 88.6919 90.6842 88.8119C91.5602 88.9319 92.5442 88.2359 92.7602 87.5159C93.0002 86.6759 92.2202 85.7399 91.2362 85.7759C90.4442 85.8119 89.8202 86.4119 89.6042 86.9519Z" fill="white"/>
</g>
<defs>
<linearGradient id="paint0_linear_33_3" x1="50.7401" y1="11.1709" x2="50.7401" y2="90.7634" gradientUnits="userSpaceOnUse">
<stop stop-color="#FFB606"/>
<stop offset="1" stop-color="#FFC63D"/>
</linearGradient>
<radialGradient id="paint1_radial_33_3" cx="0" cy="0" r="1" gradientUnits="userSpaceOnUse" gradientTransform="translate(28.2267 64.8404) rotate(90) scale(17.1845 19.266)">
<stop stop-color="#FFB606"/>
<stop offset="1" stop-color="#FFC539"/>
</radialGradient>
<clipPath id="clip0_33_3">
<rect width="120" height="120" fill="white"/>
</clipPath>
</defs>
</svg>
