<svg width="136" height="136" viewBox="0 0 136 136" fill="none" xmlns="http://www.w3.org/2000/svg">
<path d="M96.4513 32.1096C98.4641 36.2576 100.3 41.4664 101.075 47.5456C103.047 63.2536 98.0153 74.4328 90.4401 84.6328C80.8929 97.5256 63.1313 104.244 47.1921 102.626C33.2521 101.198 22.7801 95.4856 16.0753 87.3528C9.8601 79.8048 7.6433 71.8216 10.6081 62.5056C13.6409 52.9856 19.8833 47.2328 29.7433 45.6144C38.1753 44.2272 44.3905 46.9744 50.0073 51.8704C53.9513 55.2976 57.3921 59.3232 63.1313 61.0776C70.5433 63.3488 79.3561 62.3696 86.5233 56.3176C92.2081 51.4896 94.3433 46.5936 95.0913 39.1816C95.2953 37.1144 95.1865 35.1288 94.8873 33.2928C93.2825 34.2448 87.0401 37.7128 81.6545 37.6856C75.4257 37.6856 73.3857 31.8376 73.3857 31.8376C73.3857 31.8376 77.0577 26.8056 80.4985 25.3096C83.3273 24.0856 88.6857 23.7728 89.5425 23.7456C89.6513 23.5144 89.8553 22.9976 90.1953 22.3584C90.2225 22.3312 90.2225 22.2496 90.2633 22.2224C91.1201 20.5224 92.5481 17.9112 94.0985 16.4696C96.8865 13.9128 102.966 12.6616 102.966 12.6616C102.966 12.6616 107.454 16.9184 104.911 22.6304C102.979 26.7376 98.6953 30.3688 96.4513 32.1096Z" fill="url(#paint0_linear)"/>
<path d="M96.4512 32.1096C96.7912 32.7896 97.104 33.4696 97.4032 34.1496C97.716 34.8296 97.988 35.5368 98.26 36.2168C98.804 37.604 99.28 39.0456 99.6472 40.5008C100.463 43.3976 100.939 46.3488 101.211 49.3408C101.483 52.3328 101.524 55.352 101.279 58.3576C101.143 59.8536 100.939 61.3496 100.667 62.8048C100.354 64.2736 100.055 65.756 99.62 67.1976C98.7632 70.0808 97.6072 72.8688 96.2472 75.5616C95.5672 76.8944 94.8192 78.2136 94.0032 79.4784C93.2144 80.7296 92.3712 82.0352 91.5144 83.2184C91.3104 83.5312 91.0792 83.8304 90.8616 84.1296L90.5216 84.6056L90.1816 85.0544L89.8416 85.5032C89.7056 85.68 89.5968 85.816 89.5016 85.952L88.7944 86.836C88.6584 86.972 88.5496 87.108 88.4272 87.2848L88.06 87.6928L87.6928 88.1008L87.2848 88.5088C87.0128 88.7808 86.768 89.0528 86.496 89.3248L85.68 90.1136C85.544 90.2496 85.408 90.3448 85.272 90.4808L84.8232 90.848L84.388 91.2152L83.9392 91.5824C83.6264 91.8136 83.3544 92.0584 83.0552 92.2896L82.1712 92.9696L81.9672 93.1464L81.7224 93.3232L81.2464 93.6632L80.7704 94.0032C80.5936 94.112 80.4576 94.2072 80.2944 94.316C79.9816 94.52 79.6824 94.724 79.3424 94.928L78.3904 95.4992C73.2224 98.6272 67.5104 100.803 61.5944 101.959L61.0504 102.068C60.8736 102.095 60.6832 102.136 60.5064 102.177L59.3912 102.354C59.024 102.422 58.6432 102.462 58.276 102.53L57.732 102.598L57.188 102.666C55.692 102.843 54.196 102.898 52.6728 102.938C49.64 103.006 46.6208 102.762 43.6288 102.231C42.1328 101.959 40.664 101.66 39.2088 101.238C37.7536 100.83 36.312 100.382 34.884 99.8784C33.456 99.3616 32.0688 98.7904 30.668 98.1784C29.308 97.5664 27.948 96.8864 26.6152 96.1384C23.9904 94.6424 21.4472 92.9424 19.1624 90.9296C18.0064 89.9096 16.9456 88.8216 15.9664 87.6384C15.0144 86.4416 14.1304 85.1496 13.4504 83.7624L14.4432 83.2864C15.0552 84.5784 15.8712 85.8024 16.796 86.9584C17.7208 88.1144 18.7408 89.1752 19.856 90.1544C22.0728 92.1264 24.5208 93.8264 27.064 95.2816C28.356 96.0296 29.6888 96.7096 31.0488 97.3216C32.4088 97.9336 33.7688 98.5456 35.156 99.0216C36.5432 99.5384 37.9712 99.9736 39.4128 100.382C40.8544 100.79 42.3096 101.089 43.7648 101.374C49.6128 102.462 55.6648 102.367 61.5128 101.238C67.3608 100.11 73.0456 98.0424 78.1728 94.9824L79.1248 94.4112C79.4376 94.2072 79.7368 94.0032 80.0496 93.7992C80.2264 93.6904 80.3624 93.5952 80.5256 93.4864L81.0016 93.1736L81.4776 92.8608L81.7224 92.684L81.9264 92.5072L82.8104 91.8272C83.1232 91.596 83.3952 91.3512 83.6944 91.12L84.1432 90.78L84.5512 90.4128L84.9592 90.0456C85.0952 89.9096 85.2312 89.8144 85.3672 89.6784L86.1832 88.8896C86.4552 88.6584 86.7 88.3728 86.972 88.1008L87.38 87.6928L87.7472 87.2848L88.1144 86.8768C88.2504 86.7408 88.3592 86.6048 88.4816 86.4688L89.1888 85.612C89.3248 85.476 89.4336 85.34 89.5288 85.1632L89.8688 84.7144L90.2088 84.2656L90.5488 83.8168C90.7528 83.504 90.9976 83.2048 91.2016 82.9328C92.0856 81.7088 92.9016 80.4848 93.7176 79.22C94.5336 77.9552 95.2544 76.6632 95.9616 75.344C97.3488 72.692 98.5184 69.9312 99.3888 67.0752C99.8376 65.6472 100.178 64.1784 100.477 62.7232C100.749 61.2544 100.994 59.772 101.13 58.3032C101.402 55.352 101.402 52.3192 101.13 49.3272C100.885 46.3352 100.382 43.3704 99.5928 40.4872C99.2256 39.0184 98.736 37.5904 98.2328 36.2032C97.9608 35.496 97.6888 34.816 97.376 34.136C97.104 33.4696 96.7912 32.7488 96.4512 32.1096Z" fill="#2E2E2E"/>
<path d="M96.4512 32.1096C96.7912 32.7896 97.104 33.4696 97.4032 34.1496C97.716 34.8296 97.988 35.5368 98.26 36.2168C98.804 37.604 99.28 39.0456 99.6472 40.5008C100.463 43.3976 100.939 46.3488 101.211 49.3408C101.483 52.3328 101.524 55.352 101.279 58.3576C101.143 59.8536 100.939 61.3496 100.667 62.8048C100.354 64.2736 100.055 65.756 99.62 67.1976C98.7632 70.0808 97.6072 72.8688 96.2472 75.5616C95.5672 76.8944 94.8192 78.2136 94.0032 79.4784C93.2144 80.7296 92.3712 82.0352 91.5144 83.2184C91.3104 83.5312 91.0792 83.8304 90.8616 84.1296L90.5216 84.6056L90.1816 85.0544L89.8416 85.5032C89.7056 85.68 89.5968 85.816 89.5016 85.952L88.7944 86.836C88.6584 86.972 88.5496 87.108 88.4272 87.2848L88.06 87.6928L87.6928 88.1008L87.2848 88.5088C87.0128 88.7808 86.768 89.0528 86.496 89.3248L85.68 90.1136C85.544 90.2496 85.408 90.3448 85.272 90.4808L84.8232 90.848L84.388 91.2152L83.9392 91.5824C83.6264 91.8136 83.3544 92.0584 83.0552 92.2896L82.1712 92.9696L81.9672 93.1464L81.7224 93.3232L81.2464 93.6632L80.7704 94.0032C80.5936 94.112 80.4576 94.2072 80.2944 94.316C79.9816 94.52 79.6824 94.724 79.3424 94.928L78.3904 95.4992C73.2224 98.6272 67.5104 100.803 61.5944 101.959L61.0504 102.068C60.8736 102.095 60.6832 102.136 60.5064 102.177L59.3912 102.354C59.024 102.422 58.6432 102.462 58.276 102.53L57.732 102.598L57.188 102.666C55.692 102.843 54.196 102.898 52.6728 102.938C49.64 103.006 46.6208 102.762 43.6288 102.231C42.1328 101.959 40.664 101.66 39.2088 101.238C37.7536 100.83 36.312 100.382 34.884 99.8784C33.456 99.3616 32.0688 98.7904 30.668 98.1784C29.308 97.5664 27.948 96.8864 26.6152 96.1384C23.9904 94.6424 21.4472 92.9424 19.1624 90.9296C18.0064 89.9096 16.9456 88.8216 15.9664 87.6384C15.0144 86.4416 14.1304 85.1496 13.4504 83.7624L14.4432 83.2864C15.0552 84.5784 15.8712 85.8024 16.796 86.9584C17.7208 88.1144 18.7408 89.1752 19.856 90.1544C22.0728 92.1264 24.5208 93.8264 27.064 95.2816C28.356 96.0296 29.6888 96.7096 31.0488 97.3216C32.4088 97.9336 33.7688 98.5456 35.156 99.0216C36.5432 99.5384 37.9712 99.9736 39.4128 100.382C40.8544 100.79 42.3096 101.089 43.7648 101.374C49.6128 102.462 55.6648 102.367 61.5128 101.238C67.3608 100.11 73.0456 98.0424 78.1728 94.9824L79.1248 94.4112C79.4376 94.2072 79.7368 94.0032 80.0496 93.7992C80.2264 93.6904 80.3624 93.5952 80.5256 93.4864L81.0016 93.1736L81.4776 92.8608L81.7224 92.684L81.9264 92.5072L82.8104 91.8272C83.1232 91.596 83.3952 91.3512 83.6944 91.12L84.1432 90.78L84.5512 90.4128L84.9592 90.0456C85.0952 89.9096 85.2312 89.8144 85.3672 89.6784L86.1832 88.8896C86.4552 88.6584 86.7 88.3728 86.972 88.1008L87.38 87.6928L87.7472 87.2848L88.1144 86.8768C88.2504 86.7408 88.3592 86.6048 88.4816 86.4688L89.1888 85.612C89.3248 85.476 89.4336 85.34 89.5288 85.1632L89.8688 84.7144L90.2088 84.2656L90.5488 83.8168C90.7528 83.504 90.9976 83.2048 91.2016 82.9328C92.0856 81.7088 92.9016 80.4848 93.7176 79.22C94.5336 77.9552 95.2544 76.6632 95.9616 75.344C97.3488 72.692 98.5184 69.9312 99.3888 67.0752C99.8376 65.6472 100.178 64.1784 100.477 62.7232C100.749 61.2544 100.994 59.772 101.13 58.3032C101.402 55.352 101.402 52.3192 101.13 49.3272C100.885 46.3352 100.382 43.3704 99.5928 40.4872C99.2256 39.0184 98.736 37.5904 98.2328 36.2032C97.9608 35.496 97.6888 34.816 97.376 34.136C97.104 33.4696 96.7912 32.7488 96.4512 32.1096Z" fill="#2E2E2E"/>
<path d="M96.4513 32.1096C96.7913 32.7896 97.1041 33.4696 97.4033 34.1496C97.7161 34.8296 97.9881 35.5368 98.2601 36.2168C98.8041 37.604 99.2801 39.0456 99.6473 40.5008C100.463 43.3976 100.939 46.3896 101.211 49.368C101.483 52.36 101.524 55.3792 101.279 58.3848C101.034 61.3768 100.463 64.3688 99.6065 67.252C98.7497 70.1352 97.5937 72.9232 96.2065 75.616C94.8193 78.3088 93.2145 80.852 91.4737 83.3C91.0385 83.912 90.5897 84.524 90.1409 85.136C89.6649 85.748 89.2161 86.3328 88.7129 86.904C87.7201 88.06 86.6729 89.148 85.5849 90.168C83.3681 92.208 80.9201 94.044 78.3769 95.608C73.2089 98.7768 67.4969 100.939 61.5401 102.095C58.5753 102.666 55.5561 103.006 52.5233 103.088C49.4905 103.156 46.4713 102.911 43.4793 102.408C40.4873 101.905 37.5633 101.075 34.7073 100.055C33.2793 99.5384 31.8921 98.9672 30.4913 98.3552L29.9745 98.124C29.7977 98.056 29.6345 97.9472 29.4577 97.8928C29.1177 97.716 28.7777 97.5528 28.4377 97.376C28.0977 97.1992 27.7577 97.036 27.4177 96.832C27.0777 96.6552 26.7377 96.4648 26.4249 96.288C25.0921 95.4992 23.8409 94.6968 22.6169 93.772C21.3929 92.8608 20.2369 91.8952 19.1217 90.8752C18.0065 89.8552 16.9049 88.7672 15.9257 87.6112C15.4089 87.04 14.9329 86.4144 14.4977 85.8024C14.2937 85.4896 14.0625 85.1496 13.8857 84.8096C13.6817 84.4696 13.5185 84.1024 13.3689 83.6808L14.4161 83.368C14.5113 83.6808 14.6609 83.98 14.8241 84.2792C15.0009 84.592 15.1913 84.8912 15.3681 85.1904C15.7761 85.7616 16.2521 86.3872 16.7009 86.9176C17.6529 88.0464 18.7137 89.0936 19.7881 90.1136C20.8761 91.1336 22.0321 92.0448 23.2153 92.9696C24.4121 93.8536 25.6225 94.6968 26.8873 95.4584C27.2001 95.6352 27.5401 95.8256 27.8393 96.0024C28.1521 96.1792 28.4921 96.3424 28.8321 96.5192C29.1721 96.696 29.4849 96.8592 29.8249 97.036C30.0017 97.104 30.1649 97.2128 30.3417 97.2672L30.8585 97.4984C32.2185 98.1104 33.5785 98.6952 34.9657 99.1984C37.7537 100.218 40.6505 101.034 43.5609 101.578C46.4713 102.122 49.4769 102.367 52.4689 102.326C55.4337 102.299 58.4257 101.986 61.3769 101.442C67.2249 100.314 72.9097 98.2056 78.0369 95.1456C80.5937 93.6088 83.0009 91.8544 85.2041 89.8144C86.2921 88.7944 87.3529 87.7472 88.3321 86.6184C88.8489 86.0744 89.2841 85.4624 89.7601 84.8912C90.2361 84.32 90.6441 83.6944 91.0929 83.0824C92.8201 80.6752 94.4657 78.1184 95.8529 75.4664C97.2401 72.8144 98.4097 70.0536 99.2801 67.1704C100.164 64.3144 100.749 61.3632 101.007 58.3576C101.279 55.3656 101.279 52.3736 101.007 49.3816C100.762 46.3896 100.259 43.4248 99.4705 40.5144C99.1033 39.0456 98.6137 37.6176 98.1105 36.2304C97.8385 35.5232 97.5665 34.8432 97.2537 34.1632C97.1041 33.4696 96.7913 32.7488 96.4513 32.1096Z" fill="#2E2E2E"/>
<path d="M97.4713 34.6256C97.7161 35.4416 97.9201 36.2576 98.0833 37.1144C98.2465 37.9712 98.4233 38.7872 98.5593 39.6304C98.8313 41.3304 98.9945 43.0304 99.1033 44.7304C99.2801 48.1304 99.1305 51.5984 98.5865 54.9576C98.3145 56.6576 97.9337 58.3304 97.4985 59.9896C97.0225 61.6216 96.4785 63.2536 95.7985 64.8584C95.1185 66.4224 94.3705 67.9864 93.4865 69.4552C92.6025 70.9512 91.6505 72.3792 90.5897 73.6984C89.5425 75.0584 88.3729 76.3504 87.1625 77.5744C85.9521 78.7984 84.6465 79.9272 83.3545 81.0424L82.3345 81.8584L81.8177 82.2664C81.6409 82.4024 81.4777 82.4976 81.3009 82.6336L80.2537 83.3816C79.9137 83.6128 79.5465 83.8576 79.2065 84.0888C77.7785 85.0408 76.2825 85.9248 74.7593 86.7C71.6721 88.264 68.3673 89.42 64.9673 90.032L64.3145 90.1408C64.1105 90.168 63.8793 90.2088 63.6617 90.2496C63.4577 90.2768 63.2265 90.3177 63.0089 90.3585L62.3561 90.4265C62.2609 90.4265 62.1521 90.4536 62.0161 90.4536L61.6761 90.4808C61.4721 90.4808 61.2409 90.508 61.0233 90.508C60.5881 90.508 60.1393 90.5353 59.7313 90.5353C58.8473 90.5353 58.0041 90.5081 57.1065 90.3993C56.6713 90.3312 56.2225 90.2905 55.8145 90.2225C55.6105 90.1953 55.3793 90.1545 55.1617 90.0865C55.0665 90.0593 54.9577 90.0593 54.8217 90.0185C54.7265 89.9913 54.6177 89.9504 54.4817 89.9096L54.8217 88.8624C54.8897 88.8897 54.9985 88.9305 55.0937 88.9305C55.1889 88.9577 55.2977 88.9577 55.4065 88.9985C55.6105 89.0257 55.8145 89.1073 56.0185 89.1345C56.4265 89.2024 56.8345 89.2705 57.2425 89.3385C58.0585 89.4473 58.9153 89.5153 59.7585 89.5153C60.1665 89.5153 60.6153 89.5153 61.0233 89.5153L61.6353 89.488H61.9481C62.0433 89.488 62.1521 89.4608 62.2609 89.4608L62.8729 89.3928C63.0769 89.3656 63.2809 89.3656 63.4849 89.3248C63.6889 89.284 63.8929 89.2976 64.0969 89.2568L64.7089 89.148C68.0409 88.604 71.2777 87.516 74.2969 86.02C75.8337 85.272 77.2889 84.456 78.7169 83.504C79.0569 83.2728 79.4241 83.028 79.7641 82.7968L80.7841 82.0488C80.9609 81.9128 81.1241 81.8176 81.3009 81.6816L81.8177 81.3144L82.8377 80.5256C84.1705 79.4376 85.4625 78.3496 86.6457 77.1528C87.8697 75.956 88.9985 74.7048 90.0729 73.3856C91.1201 72.0528 92.1129 70.6656 92.9969 69.1968C93.8809 67.728 94.6697 66.2456 95.3497 64.668C96.0297 63.104 96.6145 61.4992 97.1177 59.8808C97.5937 58.2488 98.0017 56.5896 98.2737 54.9168C98.8585 51.544 99.0489 48.1168 98.9265 44.7168C98.8585 43.0168 98.7225 41.3168 98.4505 39.6168C98.3145 38.76 98.1785 37.9168 98.0017 37.1008C97.9201 36.2848 97.7161 35.4416 97.4713 34.6256Z" fill="#2E2E2E"/>
<path d="M96.4514 32.1096C97.2674 33.9184 97.8386 35.7816 98.3554 37.6584C98.8314 39.5624 99.2122 41.5072 99.4026 43.4384C99.593 45.3696 99.7154 47.3552 99.6746 49.3272C99.6474 51.2992 99.4978 53.244 99.2666 55.216C98.7498 59.1328 97.7705 62.9272 96.3017 66.572C95.5537 68.408 94.6698 70.176 93.6769 71.8352C93.2009 72.692 92.6569 73.508 92.1129 74.3512L91.2561 75.5752C91.1202 75.7792 90.9433 75.9832 90.8209 76.1464L90.3722 76.7176C89.1482 78.2816 87.8562 79.7504 86.4282 81.1104L85.9114 81.6272L85.3674 82.144C85.0002 82.484 84.6602 82.824 84.2794 83.1368C83.5314 83.7488 82.7834 84.4288 81.9946 85.0136L81.4097 85.4624C81.2057 85.5984 81.0425 85.7752 80.8249 85.9112L79.6009 86.768C79.3969 86.904 79.1929 87.04 78.9889 87.176L78.3769 87.584L77.1529 88.4L75.8881 89.148C75.4393 89.3792 75.0313 89.6648 74.5961 89.896L73.3041 90.6032C73.1001 90.7392 72.8554 90.8344 72.6514 90.9432L71.9713 91.2832C70.1625 92.14 68.2994 92.8472 66.3953 93.3232L65.6881 93.5L64.9809 93.6768L64.6137 93.7448C64.4777 93.772 64.3689 93.772 64.2465 93.8128L63.4985 93.9488C62.5057 94.0848 61.5265 94.18 60.5337 94.2208C59.5409 94.248 58.5617 94.248 57.5417 94.1936C56.5489 94.1256 55.5697 93.9896 54.5769 93.8264C53.5841 93.6632 52.6321 93.4184 51.6529 93.1464C51.1769 93.0104 50.7009 92.8336 50.2249 92.6704C49.9801 92.5616 49.7489 92.4936 49.5177 92.3984C49.3817 92.3712 49.2729 92.2896 49.1777 92.2216C49.0417 92.1536 48.9329 92.1128 48.8105 92.0448L49.3273 91.052C49.4225 91.0792 49.5313 91.1608 49.6401 91.188C49.7353 91.256 49.8441 91.2968 49.9529 91.324C50.1569 91.4328 50.3881 91.5008 50.6057 91.596C51.0409 91.7728 51.4897 91.936 51.9657 92.072C52.8905 92.344 53.8017 92.5888 54.7537 92.7792C55.7057 92.956 56.6577 93.092 57.6097 93.1464C58.5617 93.2144 59.5137 93.2552 60.5065 93.2144C61.4585 93.1872 62.4106 93.1056 63.4033 92.9832L64.1105 92.8744C64.2465 92.8472 64.3553 92.8472 64.4505 92.8064L64.7905 92.7384L65.4977 92.6024L66.2049 92.4256C68.0817 91.9768 69.9177 91.2968 71.6449 90.4944L72.2977 90.1816C72.5017 90.0728 72.733 89.9776 72.9506 89.8416L74.2426 89.1616C74.6914 88.9576 75.0993 88.6856 75.5074 88.4544L76.7722 87.7472L77.9961 86.9584L78.6081 86.5912C78.8121 86.4552 79.0161 86.3192 79.2201 86.1832L80.4441 85.3672C80.6481 85.2312 80.8521 85.0952 81.0289 84.9184L81.6137 84.4696C82.4025 83.8984 83.1506 83.2456 83.8986 82.6608C84.2658 82.348 84.6058 82.008 84.9866 81.7088L85.5306 81.2328L86.0474 80.716C87.4754 79.3832 88.7674 77.928 89.9914 76.432L90.4402 75.8608C90.617 75.684 90.753 75.4936 90.8754 75.2896L91.7322 74.0928C92.2761 73.2768 92.8201 72.5016 93.2962 71.6448C94.289 69.972 95.2001 68.2448 95.9482 66.436C97.485 62.832 98.505 59.0648 99.0082 55.1888C99.2802 53.2576 99.4434 51.3128 99.4841 49.3408C99.5113 47.4096 99.4841 45.424 99.2802 43.4928C99.0761 41.5616 98.7362 39.6168 98.2874 37.7128C97.8114 35.7816 97.2402 33.9048 96.4514 32.1096Z" fill="#2E2E2E"/>
<path d="M96.4513 32.1096C96.9001 33.1024 97.3081 34.1496 97.6481 35.1696C97.9881 36.2168 98.3009 37.2368 98.6001 38.3384C98.8721 39.3856 99.1169 40.4872 99.3481 41.5344C99.5521 42.6224 99.7153 43.7104 99.8649 44.7984C99.9329 45.3424 100.001 45.8864 100.042 46.4304C100.069 46.9744 100.15 47.5184 100.178 48.0624C100.246 49.1504 100.286 50.2792 100.286 51.3536C100.286 53.5704 100.11 55.7464 99.7697 57.9224C99.4569 60.0984 98.9537 62.2336 98.3009 64.3552C97.9609 65.4024 97.6209 66.4224 97.2129 67.4832C96.8049 68.5032 96.3561 69.5232 95.8801 70.516C93.9353 74.46 91.3921 78.132 88.4273 81.396C86.9313 83.028 85.3673 84.5648 83.6945 85.9928C82.8377 86.7 81.9945 87.38 81.1105 88.06C80.2265 88.74 79.3425 89.3928 78.4177 89.9912C76.5817 91.2152 74.7049 92.344 72.7329 93.3912C70.7881 94.4384 68.7209 95.2952 66.6129 95.9752C64.4777 96.628 62.2881 97.0632 60.0849 97.308C59.8129 97.3352 59.5409 97.376 59.2689 97.376C58.9969 97.376 58.7249 97.4032 58.4121 97.444L57.5553 97.4712C57.2833 97.4712 57.0113 97.4712 56.6985 97.4712H55.8961H55.4881C55.3521 97.4712 55.2161 97.4712 55.0801 97.4712L54.2233 97.444H53.8153C53.6793 97.444 53.5433 97.444 53.4073 97.4168C51.1905 97.2808 48.9873 96.9 46.8521 96.3288L46.0361 96.0976L45.2609 95.8256C44.9889 95.7168 44.7441 95.6488 44.4857 95.5536C44.2273 95.4584 43.9689 95.3496 43.7105 95.2408C43.1937 95.0368 42.6905 94.792 42.1737 94.5336L41.8065 94.3296L41.4393 94.1256C41.3033 94.0576 41.1945 93.9488 41.0721 93.9216C41.0041 93.8944 40.9361 93.8536 40.8953 93.7856C40.8273 93.7584 40.7593 93.7176 40.7185 93.6496L41.3713 92.7656C41.3985 92.7928 41.4665 92.8336 41.5073 92.8744C41.5753 92.9016 41.6025 92.9424 41.6841 92.9832C41.7793 93.0512 41.8881 93.1192 42.0241 93.1872L42.3641 93.3912L42.7041 93.568C43.1801 93.7992 43.6561 94.044 44.1321 94.248C44.3769 94.3568 44.6489 94.452 44.8801 94.5608C45.1113 94.6696 45.3969 94.7648 45.6281 94.8328L46.3761 95.1048L47.1513 95.336C49.2185 95.948 51.3673 96.288 53.5161 96.4648C53.6521 96.4648 53.7881 96.492 53.9241 96.492L54.3321 96.5192L55.1481 96.5464C55.2841 96.5464 55.4201 96.5464 55.5561 96.5736H55.9641H56.7801C57.0521 96.5736 57.3241 96.5736 57.5961 96.5736L58.4121 96.5464C58.6841 96.5464 58.9561 96.5192 59.2281 96.4784C59.5001 96.4512 59.7721 96.4512 60.0441 96.4104C62.1793 96.2064 64.3281 95.7984 66.4089 95.1864C68.4761 94.5744 70.4889 93.7584 72.4337 92.7384C74.3785 91.7184 76.2417 90.6304 78.0777 89.4472C79.0025 88.8352 79.8729 88.2232 80.7705 87.5704C81.6545 86.9176 82.4977 86.2376 83.3273 85.5304C85.0001 84.1432 86.5913 82.6064 88.0601 81.0424C91.0249 77.8464 93.5681 74.2424 95.5401 70.3664C96.0161 69.3736 96.4649 68.3944 96.9001 67.4152C97.3081 66.3952 97.6753 65.3752 98.0153 64.3552C98.6681 62.288 99.2121 60.1392 99.5521 58.004C99.8921 55.828 100.069 53.652 100.096 51.476C100.096 50.388 100.096 49.3 100.028 48.1848C100.001 47.6408 99.9601 47.0968 99.9193 46.5528C99.8513 46.0088 99.8241 45.4648 99.7425 44.9208C99.6065 43.8328 99.4297 42.7448 99.2257 41.6568C99.0217 40.5688 98.7905 39.508 98.5457 38.4608C98.2737 37.4136 97.9609 36.3528 97.6209 35.292C97.2673 34.1496 96.9001 33.0888 96.4513 32.1096Z" fill="#2E2E2E"/>
<path d="M31.1714 92.9015C31.6882 93.2143 32.2186 93.5135 32.7354 93.8127C33.0074 93.9895 33.2794 94.1255 33.5514 94.2615L34.3674 94.7104C35.4554 95.2816 36.5706 95.7984 37.6994 96.2744C38.8146 96.7912 39.9842 97.1856 41.1266 97.6072C41.7114 97.784 42.2826 98.0152 42.8946 98.1512L43.3298 98.2872L43.5338 98.3551L43.7378 98.4231L44.6218 98.6272C47.0018 99.1712 49.4498 99.5112 51.8978 99.6199C52.2106 99.6471 52.5098 99.6472 52.8226 99.6472H53.2986C53.4754 99.6472 53.6114 99.6472 53.7746 99.6472H54.6994C55.0122 99.6472 55.3114 99.6199 55.6242 99.6199C56.2362 99.5928 56.8482 99.5112 57.4602 99.4839L58.385 99.3752C58.6978 99.348 58.997 99.3072 59.3098 99.2392C60.5338 99.0624 61.717 98.872 62.9546 98.5864C64.1786 98.3552 65.3618 98.0424 66.5586 97.7024C68.9114 97.0224 71.2234 96.0704 73.3857 94.9824L74.2017 94.5744L75.0177 94.1255C75.2897 93.9895 75.5617 93.8127 75.8337 93.6768C76.1058 93.5 76.3778 93.3639 76.6497 93.2007C77.6969 92.5887 78.7577 91.9087 79.7777 91.2287C80.7977 90.5215 81.7906 89.8008 82.7426 89.012C83.6946 88.2232 84.6194 87.4207 85.4897 86.5639C87.2577 84.8368 88.8897 82.96 90.3857 81.0152C91.8817 79.0432 93.2825 77.0032 94.5338 74.868C95.7985 72.7192 96.941 70.5568 97.9066 68.272C98.8586 66.0008 99.5386 63.58 99.9737 61.1592C100.858 56.2904 100.899 51.272 100.314 46.3352C100.178 45.1112 99.9737 43.8872 99.7697 42.6632C99.5249 41.4392 99.2529 40.256 98.9538 39.032C98.6409 37.8352 98.2738 36.652 97.8657 35.4552C97.4577 34.2992 96.9818 33.1432 96.4378 32.028C96.9818 33.1568 97.4578 34.2992 97.9066 35.4552C98.3418 36.6112 98.7226 37.808 99.0626 38.9912C99.4026 40.1744 99.6746 41.3984 99.9193 42.6224C100.164 43.8464 100.355 45.0704 100.504 46.2944C101.116 51.2312 101.157 56.2632 100.3 61.1456C99.8649 63.5936 99.185 66.0144 98.2602 68.3128C97.3354 70.6248 96.193 72.8416 94.9282 75.004C93.6634 77.1528 92.3034 79.2607 90.7802 81.2327C89.2842 83.2048 87.6522 85.1087 85.8842 86.8768C85.0002 87.7607 84.089 88.604 83.0962 89.3927C82.1442 90.1815 81.1242 90.9568 80.1042 91.664C79.0842 92.3712 78.037 93.0512 76.9762 93.7039C76.7042 93.8808 76.4322 94.0168 76.1602 94.18C75.8882 94.3568 75.6162 94.4928 75.3442 94.656L74.5282 95.1047L73.6714 95.5535C71.4274 96.6824 69.1426 97.6615 66.7354 98.4095C65.5114 98.7495 64.3282 99.0623 63.0906 99.3207C61.8666 99.5928 60.6426 99.8375 59.4186 100.001C59.1058 100.028 58.8066 100.11 58.4938 100.137L57.569 100.246C56.957 100.314 56.3042 100.382 55.6922 100.382C55.3794 100.382 55.0802 100.409 54.7402 100.409L53.7882 100.436C53.6114 100.436 53.4754 100.436 53.3122 100.436H52.8362C52.5234 100.436 52.2242 100.436 51.8842 100.409C49.3682 100.3 46.8794 100.001 44.4042 99.4567L43.4794 99.2527L43.2346 99.1847L42.9898 99.1167L42.5546 98.9808C41.9426 98.8039 41.3306 98.6135 40.7594 98.4368C39.5626 98.0287 38.3794 97.5799 37.2234 97.104C36.0674 96.5872 34.9386 96.084 33.8234 95.54L32.9666 95.0912C32.6946 94.9144 32.4226 94.7784 32.1506 94.6424C31.6066 94.3296 31.0626 94.0304 30.5186 93.6904L31.1714 92.9015Z" fill="#2E2E2E"/>
<path d="M96.4513 32.1095C96.8185 31.7967 97.1993 31.4567 97.5801 31.1167C97.9609 30.7767 98.3281 30.4367 98.6681 30.0695C99.0353 29.7295 99.3753 29.3623 99.7153 28.9815C100.055 28.6007 100.395 28.2335 100.708 27.8527C101.361 27.1047 101.973 26.3159 102.544 25.4999C102.816 25.0919 103.088 24.6839 103.36 24.2759C103.496 24.0719 103.605 23.8679 103.727 23.6231L103.904 23.3103L104.081 22.9703C104.19 22.7663 104.285 22.5215 104.394 22.3175L104.53 21.9775L104.598 21.8007L104.666 21.6239L104.802 21.2839L104.91 20.9439C104.938 20.8759 104.938 20.8351 104.978 20.7671L105.006 20.5903C105.033 20.4543 105.074 20.3591 105.074 20.2503C105.25 19.3391 105.25 18.3735 105.101 17.4215C104.924 16.5103 104.584 15.5855 104.149 14.7695C103.904 14.3615 103.673 13.9535 103.374 13.5455C103.238 13.3687 103.102 13.1783 102.925 13.0015C102.857 12.8927 102.748 12.8247 102.68 12.7295C102.653 12.7023 102.612 12.6207 102.544 12.5935L102.435 12.4847L102.911 12.6207C102.544 12.6887 102.163 12.7975 101.796 12.8927C101.429 12.9879 101.048 13.0967 100.667 13.2055C99.9193 13.4095 99.2121 13.6543 98.4913 13.9127C97.7841 14.1847 97.0633 14.4567 96.3833 14.7967C95.7033 15.1367 95.0505 15.5039 94.4793 15.9935C93.9353 16.4695 93.4321 17.0407 92.9425 17.6663C92.4529 18.2919 92.0585 18.9175 91.6505 19.5703C90.8345 20.9031 90.0865 22.2631 89.4065 23.6775C89.6513 22.9295 89.9233 22.2087 90.2225 21.4607C90.5217 20.7127 90.8345 20.0327 91.2153 19.3119C91.5553 18.6047 91.9633 17.9247 92.4121 17.2719C92.8609 16.6191 93.3369 15.9799 93.9489 15.3951C94.5609 14.8511 95.2409 14.4023 95.9209 14.0079C96.6281 13.5999 97.3489 13.3007 98.0969 12.9879C98.8449 12.6751 99.5929 12.4439 100.341 12.1719C100.708 12.0359 101.089 11.9407 101.497 11.8319C101.905 11.7231 102.245 11.6279 102.653 11.5599L102.925 11.4919L103.129 11.6687C103.197 11.7367 103.238 11.7775 103.306 11.8455C103.333 11.8727 103.414 11.9543 103.442 11.9815C103.55 12.0903 103.618 12.1855 103.714 12.2943C103.89 12.4983 104.054 12.7023 104.23 12.9063C104.543 13.3551 104.842 13.7903 105.087 14.2391C105.604 15.1503 105.971 16.1703 106.134 17.2311C106.23 17.7479 106.27 18.2783 106.23 18.8223C106.202 19.3663 106.162 19.8695 106.026 20.4135C105.998 20.5495 105.958 20.6855 105.93 20.7807L105.862 20.9847C105.835 21.0527 105.835 21.1207 105.794 21.1615L105.658 21.5287L105.522 21.8959L105.454 22.0727L105.386 22.2495L105.21 22.5895L105.033 22.9295L104.924 23.1063L104.829 23.2831C103.809 25.0919 102.517 26.6831 101.089 28.1111C100.382 28.8183 99.5929 29.4983 98.8041 30.1511C98.1241 30.9535 97.3081 31.5655 96.4513 32.1095Z" fill="#2E2E2E"/>
<path d="M81.1921 26.0847C80.8793 26.2887 80.5801 26.5335 80.3081 26.7375C80.1721 26.8463 80.0361 26.9687 79.8729 27.0775C79.8049 27.1455 79.7369 27.1863 79.6689 27.2543L79.4649 27.4311C78.9209 27.9071 78.4177 28.4239 77.9009 28.9679C77.3841 29.4847 76.9489 30.0559 76.4729 30.5999L75.7929 31.4567C75.5481 31.7287 75.3577 32.0279 75.0857 32.3407L75.1537 31.7287C75.2217 31.8375 75.2897 31.9327 75.3305 32.0415C75.3985 32.1503 75.4665 32.2455 75.5345 32.3543C75.6705 32.5583 75.8473 32.7623 75.9697 32.9255C76.1465 33.1023 76.2825 33.2927 76.4457 33.4695C76.6089 33.6463 76.7857 33.8095 76.9625 33.9863C77.3025 34.3535 77.6697 34.6663 78.0505 34.9383C78.2273 35.0743 78.4585 35.2511 78.6353 35.3463C78.8121 35.4823 79.0433 35.5503 79.2473 35.6591C79.6825 35.8359 80.1721 35.9719 80.6345 36.0671C81.1105 36.1759 81.5865 36.2439 82.0897 36.2711C83.0825 36.3391 84.1297 36.3391 85.1497 36.4479C84.1297 36.6247 83.1369 36.8151 82.0897 36.8967C81.9537 36.8967 81.8177 36.8967 81.6817 36.9239C81.5457 36.9239 81.4097 36.9239 81.2737 36.9239C81.0017 36.9239 80.7297 36.8967 80.4577 36.8967C79.9409 36.8287 79.4105 36.7199 78.8937 36.5839C78.6217 36.4751 78.3769 36.4071 78.1185 36.2711C77.8465 36.1351 77.6425 35.9991 77.4113 35.8223C77.2073 35.6455 76.9625 35.5095 76.7585 35.3463C76.5545 35.1695 76.3505 35.0063 76.1465 34.8023C75.7793 34.4351 75.3985 34.0543 75.0585 33.6055C74.8817 33.4015 74.7185 33.1975 74.5825 32.9527C74.5145 32.8439 74.4057 32.7487 74.3377 32.6127C74.2697 32.4767 74.2017 32.4087 74.1337 32.2455L73.9297 31.9055L74.2017 31.6335C74.4465 31.4023 74.6777 31.0895 74.9089 30.8175C75.1537 30.5455 75.4257 30.2735 75.6569 30.0015C76.1737 29.4575 76.7041 28.9543 77.2889 28.4375C77.8737 27.9615 78.4449 27.4855 79.0841 27.0775L79.3289 26.9007C79.3969 26.8735 79.5057 26.7919 79.5737 26.7647C79.7505 26.6559 79.9137 26.5879 80.0905 26.4927C80.5121 26.3567 80.8521 26.2207 81.1921 26.0847Z" fill="#2E2E2E"/>
<path d="M31.9872 92.9695C44.0504 92.9695 53.8152 84.2383 53.8152 73.4807C53.8152 62.7367 44.0232 53.9919 31.9872 53.9919C19.9104 53.9919 10.1592 62.7231 10.1592 73.4807C10.1592 84.2247 19.9512 92.9695 31.9872 92.9695Z" fill="url(#paint1_radial)"/>
<path d="M53.5434 82.1848C55.9506 82.1848 57.9362 80.2128 57.9362 77.792C57.9362 75.3712 55.9642 73.3992 53.5434 73.3992C51.1362 73.3992 49.1506 75.3712 49.1506 77.792C49.1642 80.2128 51.1362 82.1848 53.5434 82.1848Z" fill="white"/>
<path d="M50.6602 31.0895C50.973 28.3695 52.9722 27.2815 55.393 27.5127C57.8002 27.7847 59.5002 30.2055 59.201 32.9255C58.8882 35.6455 54.985 40.0927 53.3938 45.8183C55.0802 39.8615 50.7962 36.0807 50.6602 31.0895Z" fill="white"/>
<path d="M56.6032 44.1728C57.9903 43.1528 59.9351 43.4248 60.8599 44.744C61.8119 46.0768 61.4447 47.9808 60.0439 48.96C58.6431 49.9392 54.808 49.8712 51.408 51.5168C54.944 49.8576 55.216 45.1928 56.6032 44.1728Z" fill="white"/>
<path d="M47.1921 43.1256C46.7569 42.1056 47.1921 40.9088 48.2121 40.5144C49.2049 40.0656 50.3881 40.5824 50.8369 41.6024C51.2857 42.6224 50.6601 45.0704 51.2041 47.4504C50.5921 44.9208 47.6273 44.1456 47.1921 43.1256Z" fill="white"/>
<path d="M52.1834 81.7495C53.4074 81.7495 54.4002 80.7567 54.4002 79.5327C54.4002 78.3087 53.4074 77.3159 52.1834 77.3159C50.9594 77.3159 49.9666 78.3087 49.9666 79.5327C50.0074 80.7975 51.0002 81.7495 52.1834 81.7495Z" fill="#2E2E2E"/>
<path d="M64.0833 82.2527C63.9881 82.3887 63.9065 82.4839 63.8113 82.6199C63.7433 82.7559 63.6345 82.8511 63.5665 82.9871C63.3897 83.2591 63.2537 83.5039 63.0905 83.7759C62.7505 84.2927 62.3425 84.7687 61.8937 85.2039C61.4585 85.6527 61.0097 86.0607 60.5337 86.4279C60.0577 86.7951 59.5817 87.1759 59.0785 87.5567C57.1065 88.9847 54.9713 90.2087 52.7137 91.2287C50.4697 92.2487 48.1169 92.9967 45.7097 93.5407L44.8257 93.7175C44.5129 93.7855 44.2137 93.8263 43.9009 93.8943L43.4657 93.9623C43.2889 93.9895 43.1529 93.9895 42.9897 94.0303C42.6769 94.0575 42.3777 94.1391 42.0649 94.1663C41.4529 94.2343 40.8409 94.3023 40.2289 94.3431C39.6169 94.4111 39.0049 94.4519 38.3929 94.4791C38.0801 94.4791 37.7809 94.4791 37.4681 94.5063H36.9921C36.8153 94.5063 36.6793 94.5063 36.5161 94.5063H35.6321L34.7073 94.4791L34.2313 94.4519L33.7553 94.4247L32.8305 94.3567L31.9057 94.2479C31.7289 94.2207 31.5929 94.2207 31.4297 94.1799L30.9537 94.1119C30.6409 94.0847 30.3417 94.0031 30.0289 93.9759L29.1041 93.7991C28.7913 93.7311 28.4921 93.6903 28.2201 93.6223C27.9073 93.5543 27.6081 93.4863 27.3361 93.4183L26.4521 93.1871C26.2753 93.1599 26.1393 93.1191 26.0169 93.0511L25.5817 92.8743L25.1465 92.6975C25.0105 92.6295 24.8745 92.5887 24.7113 92.5207C24.4393 92.4119 24.1265 92.3167 23.8273 92.1807C23.5553 92.0447 23.2425 91.9495 22.9705 91.8135C22.6985 91.6775 22.4265 91.5823 22.1137 91.4055C21.8417 91.2695 21.5697 91.1335 21.2977 90.9975L20.8897 90.7935L20.4817 90.5623C19.9377 90.2495 19.4345 89.9095 18.9177 89.5695C18.4009 89.2295 17.8977 88.8623 17.4217 88.4815C16.9457 88.1143 16.4697 87.6927 16.0345 87.2575C15.5993 86.8087 15.1505 86.3735 14.7697 85.9247C14.3617 85.4487 13.9945 84.9727 13.6545 84.4559C13.4777 84.2247 13.3145 83.9391 13.1785 83.6671C13.0017 83.3951 12.9065 83.1231 12.7705 82.8511C13.1105 83.3679 13.5185 83.8031 13.9265 84.2383C14.3345 84.6871 14.7833 85.0951 15.2185 85.4623C15.6537 85.8703 16.1025 86.2511 16.6057 86.5911C17.0817 86.9311 17.5577 87.2711 18.0609 87.5839C19.0537 88.2367 20.1009 88.7807 21.1481 89.2567L21.5561 89.4335L21.9641 89.6103C22.2361 89.7463 22.5081 89.8415 22.7801 89.9503C23.0521 90.0591 23.3241 90.1543 23.5961 90.2631C23.8681 90.3719 24.1401 90.4671 24.4121 90.5351C24.6841 90.6439 24.9561 90.7119 25.2689 90.8071C25.4049 90.8343 25.5409 90.9159 25.6769 90.9431L26.0849 91.0519L26.4929 91.1607C26.6289 91.1879 26.7649 91.2287 26.9281 91.2695L27.7849 91.4463C28.9409 91.6503 30.0969 91.8543 31.2529 91.9631C31.8377 92.0311 32.4089 92.0719 32.9801 92.1399L33.8641 92.2079L34.2993 92.2351H34.7345L35.6185 92.2623H36.5025C36.6385 92.2623 36.8153 92.2623 36.9377 92.2623H37.3729C37.6857 92.2623 37.9577 92.2623 38.2569 92.2351C39.4537 92.2079 40.6097 92.0991 41.7521 92.0039C42.9081 91.8679 44.0641 91.6911 45.2201 91.4871C46.3761 91.2831 47.5049 91.0111 48.6201 90.6983L49.4769 90.4671L50.3337 90.1951C50.8777 90.0183 51.4489 89.8279 52.0065 89.6239C54.2233 88.8079 56.3585 87.8151 58.4393 86.6727C58.7113 86.5367 58.9561 86.3599 59.2145 86.2239L59.9897 85.7479C60.5065 85.4351 60.9825 85.0951 61.4449 84.7551C61.9209 84.3879 62.3697 84.0071 62.7777 83.5583C62.9817 83.3543 63.1857 83.1095 63.3897 82.8783C63.6481 82.6607 63.8521 82.4295 64.0833 82.2527Z" fill="#2E2E2E"/>
<path d="M28.22 125.637C27.9752 125.12 27.88 124.848 27.676 124.304C28.968 124.236 30.124 123.991 31.1032 123.624C32.096 123.257 32.8712 122.767 33.4832 122.264C34.0952 121.761 34.6392 121.108 35.088 120.36C35.564 119.612 35.904 118.891 36.1352 118.211C36.38 117.531 36.6112 116.742 36.8424 115.831C36.9784 115.355 37.1824 114.634 37.4544 113.655C37.7672 112.662 37.9712 111.928 38.1072 111.384C38.5832 111.452 39.3312 111.588 40.324 111.792C40.732 111.901 41.344 112.023 42.16 112.2C42.976 112.377 43.6152 112.472 44.0368 112.54C44.812 112.649 45.5328 112.717 46.172 112.744C46.2672 113.655 46.24 115.097 46.036 117.028C45.968 117.545 45.9 118.361 45.764 119.435C45.628 120.523 45.5192 121.366 45.492 121.951C45.2472 124.168 45.22 126.004 45.356 127.459C45.1112 127.867 44.7712 128.03 44.2408 127.976C43.8736 127.949 43.5336 127.799 43.1936 127.568C42.8536 127.337 42.6496 127.024 42.6496 126.752C42.6496 125.868 42.9624 124.916 43.0168 124.372C43.112 123.583 43.2616 122.359 43.4248 120.7C43.588 119.041 43.7648 117.749 43.9008 116.824C44.0776 115.6 44.2136 114.675 44.336 114.077C43.928 114.009 43.248 113.873 42.2688 113.71C41.276 113.533 40.5416 113.342 40.0248 113.166C39.712 113.818 39.4128 114.702 39.0728 115.777C38.7328 116.851 38.42 117.817 38.1888 118.674C37.944 119.53 37.536 120.401 37.0328 121.394C36.516 122.346 35.9176 123.162 35.2648 123.774C34.5848 124.386 33.66 124.93 32.4496 125.31C31.28 125.678 29.852 125.814 28.22 125.637Z" fill="white"/>
<path d="M50.5514 126.086C50.5514 126.317 50.5514 126.63 50.5786 126.997C50.3746 127.405 50.0346 127.609 49.4906 127.609C49.1234 127.609 48.7834 127.473 48.4706 127.269C48.1578 127.065 47.8858 126.752 47.8858 126.521C47.8586 125.61 48.1986 123.828 48.4026 121.734C48.6066 119.639 48.7426 118.198 48.8106 117.45C49.2866 117.422 49.5178 117.382 50.0074 117.341C50.1842 118.225 50.2794 119.381 50.2794 120.809C50.2794 122.237 50.3474 123.325 50.4154 124.046C50.7826 123.678 51.8706 122.713 53.4482 121.094C55.053 119.462 56.005 118.198 56.481 117.382C56.8482 117.314 57.093 117.246 57.1882 117.246C57.501 117.218 57.7322 117.314 57.8954 117.518C58.0314 117.722 58.1674 118.17 58.2626 118.81C58.7794 122.142 59.0378 123.801 59.6226 127.106C59.4866 127.514 59.1466 127.758 58.6298 127.813C58.2626 127.84 57.9226 127.786 57.5826 127.609C57.2426 127.432 56.9706 127.16 56.9298 126.929C56.8618 126.562 56.9026 125.365 56.8618 123.638C56.8346 121.91 56.7938 120.646 56.7938 119.898C54.0602 122.713 51.7754 124.685 50.5514 126.086Z" fill="white"/>
<path d="M68.1631 115.369C68.6391 115.342 68.8431 115.301 69.3191 115.26C70.4071 118.388 71.5359 121.489 72.6511 124.576C72.5831 125.025 72.3111 125.324 71.8351 125.46C71.4951 125.569 71.1279 125.569 70.7471 125.46C70.3799 125.351 70.0943 125.188 69.9583 124.916C69.9583 124.889 69.7543 123.719 69.3463 121.516C69.3463 121.448 69.3191 121.407 69.3191 121.339C68.8023 121.448 68.0543 121.611 67.0751 121.856C65.5791 122.196 64.4503 122.373 63.6751 122.427C63.9199 123.175 64.2191 124.44 64.6951 126.14C64.5999 126.589 64.2871 126.847 63.7703 126.929C63.4303 126.997 63.0631 126.929 62.7231 126.793C62.3831 126.657 62.0703 126.385 62.0159 126.14C61.8799 125.596 61.9207 124.78 61.8119 124.1C61.7439 123.651 61.6351 123.012 61.4991 122.169C61.3631 121.326 61.2543 120.673 61.1863 120.265C61.0095 118.973 60.9143 117.885 60.8735 117.001C61.3495 117.028 61.5807 117.028 62.0703 117.028C62.8863 119.884 63.3351 121.339 63.3623 121.421C66.4495 121.013 67.9863 120.632 68.0951 120.632C68.8023 120.455 69.1831 120.319 69.1423 120.265C69.0743 119.993 68.8975 119.136 68.5983 117.749C68.3399 116.321 68.2039 115.546 68.1631 115.369Z" fill="white"/>
<path d="M72.1752 114.009C72.284 113.778 73.848 113.302 75.14 112.622C76.432 111.969 77.3568 111.425 77.86 111.194C78.2 111.017 78.608 110.99 78.9752 111.085C79.3424 111.194 79.5872 111.316 79.6824 111.602C79.8592 111.969 79.6552 112.39 79.0704 112.649C78.5536 112.88 77.6016 113.22 76.3776 113.601C75.1808 114.009 74.2288 114.281 73.6304 114.458C73.9432 115.246 74.4872 116.47 75.3032 118.13C76.1192 119.789 76.7312 121.081 77.0712 122.006C77.384 122.794 77.0712 123.366 76.1464 123.678C75.3576 123.95 74.8816 123.706 74.6504 122.998C74.3784 122.142 74.1064 121.23 73.8344 120.251C73.5624 119.258 73.2496 118.102 72.9504 116.824C72.5832 115.546 72.1072 114.186 72.1752 114.009Z" fill="white"/>
<path d="M80.8113 110.337C82.8785 108.746 84.0753 107.726 84.5513 107.44C86.4281 106.284 87.7473 106.284 88.6585 107.549C88.9713 107.998 89.1753 108.501 89.2705 109.045C89.3657 109.589 89.2977 110.038 89.0937 110.378C90.6577 110.201 91.8137 110.582 92.5209 111.602C93.2009 112.594 93.3369 113.642 92.7929 114.838C92.2489 116.035 91.1881 117.11 89.5969 118.075C87.7201 119.204 86.0609 119.612 84.7417 119.367C83.4633 116.321 82.1441 113.329 80.8113 110.337ZM82.2801 110.582C82.9601 111.67 83.2729 112.173 83.9529 113.274C84.1569 113.138 84.5377 112.907 85.0001 112.622C85.4761 112.35 85.8569 112.078 86.0881 111.874C86.3601 111.67 86.6321 111.357 86.8769 111.017C87.1489 110.677 87.2441 110.269 87.2441 109.793C87.2441 109.317 87.0673 108.8 86.7953 108.229C86.4281 107.998 85.8705 108.093 85.1633 108.542C84.8233 108.746 84.3473 109.113 83.6673 109.589C82.9873 110.106 82.5113 110.405 82.2801 110.582ZM84.5241 114.145C85.4081 115.532 85.8569 116.253 86.7409 117.654C87.2577 117.545 87.7609 117.382 88.2777 117.042C89.2977 116.43 90.1137 115.654 90.6305 114.662C91.1745 113.669 91.2153 112.894 90.8345 112.309C90.5625 111.901 90.0865 111.656 89.4473 111.602C88.7945 111.534 88.1553 111.71 87.5025 112.118C87.1081 112.377 86.1153 113.098 84.5241 114.145Z" fill="white"/>
<path d="M91.6639 105.278C91.2559 105.074 91.0519 104.965 90.6167 104.761C90.7527 104.217 90.9839 103.632 91.3647 103.061C91.7319 102.49 92.1807 101.973 92.6567 101.565C94.7647 99.7288 97.1039 100.096 99.9327 102.925C100.3 103.292 100.858 103.918 101.538 104.734C102.218 105.55 102.898 106.162 103.142 106.502C103.346 106.814 103.251 107.29 102.938 107.59C102.694 107.821 102.354 107.957 101.986 107.998C101.619 108.038 101.306 107.93 101.102 107.685C101.034 107.617 100.994 107.549 100.994 107.508C100.681 108.895 99.9735 110.092 98.9263 110.935C98.1511 111.588 97.2535 111.955 96.3423 112.023C95.4175 112.091 94.7375 111.792 94.3023 111.207C93.5543 110.187 93.4183 108.895 93.7855 107.29C94.1527 105.686 94.9143 104.394 96.0975 103.319C96.1655 103.292 96.1927 103.21 96.2743 103.183C96.3423 103.156 96.4103 103.074 96.4783 103.047C96.5463 102.979 96.6143 102.938 96.6551 102.911C95.4583 101.864 94.3703 101.823 93.2823 102.734C92.6431 103.265 92.1399 104.122 91.6639 105.278ZM100.096 106.461C99.4839 105.754 99.0079 105.21 98.6679 104.829C98.3959 104.516 97.9879 104.122 97.4439 103.605C97.3759 103.673 97.3487 103.714 97.2671 103.741C96.3423 104.598 95.7303 105.618 95.3631 106.828C95.0231 108.052 95.1183 109.045 95.7303 109.82C96.0023 110.16 96.3831 110.337 96.8183 110.296C97.2535 110.269 97.7023 110.092 98.1103 109.725C98.7631 109.249 99.4839 108.134 100.096 106.461Z" fill="white"/>
<path d="M117.436 86.0335C117.749 86.1423 117.871 86.1695 118.184 86.2647C117.939 87.3119 117.572 88.2775 117.137 89.1207C116.702 89.9367 116.185 90.5487 115.573 90.9567C114.961 91.3647 114.349 91.5687 113.778 91.5687C113.166 91.5959 112.554 91.5687 111.874 91.5415C111.221 91.5143 110.582 91.4735 110.038 91.4327C109.453 91.4055 108.909 91.5007 108.338 91.7455C107.794 91.9767 107.318 92.3983 106.91 92.9695C108.95 94.2207 109.97 94.8735 112.01 96.1383C112.254 96.5055 112.254 96.9271 111.942 97.3623C111.738 97.6751 111.466 97.8791 111.085 98.0151C110.745 98.1511 110.337 98.1919 110.133 98.0423C109.929 97.8927 108.093 96.4511 104.693 93.7855C101.293 91.1199 99.2801 89.5967 98.7769 89.1887C99.0897 88.8759 99.2529 88.7399 99.5657 88.4407C100.001 88.7127 100.83 89.2567 102.014 89.9775C103.238 90.7255 104.054 91.2287 104.462 91.5143C104.87 90.9023 105.046 90.2631 104.978 89.5831C104.91 88.9031 104.706 88.2911 104.326 87.6791C103.986 87.0671 103.618 86.4823 103.278 85.9112C102.938 85.34 102.694 84.6872 102.571 84.0344C102.462 83.3816 102.571 82.7424 102.884 82.1304C103.129 81.6544 103.632 80.9064 104.38 79.8184C104.625 80.0496 104.747 80.1584 105.033 80.3896C104.489 81.2464 104.149 81.7224 104.081 81.8584C103.809 82.3752 103.768 82.8784 103.945 83.3952C104.122 83.9392 104.394 84.4424 104.761 84.9592C105.128 85.476 105.509 86.0471 105.89 86.6319C106.257 87.2031 106.502 87.9239 106.597 88.7399C106.692 89.5559 106.57 90.4127 106.189 91.2967C106.801 90.6847 107.413 90.2087 108.134 89.9095C108.841 89.5967 109.494 89.4335 110.146 89.4607C110.758 89.4607 111.438 89.4879 112.091 89.5287C112.771 89.5559 113.383 89.5967 113.927 89.6375C114.471 89.6647 114.974 89.6103 115.464 89.3655C115.94 89.1615 116.348 88.7535 116.62 88.2095C116.892 87.6927 117.164 86.9855 117.436 86.0335Z" fill="white"/>
<path d="M117.844 81.9537C118.048 82.0625 118.361 82.1305 118.728 82.2665C119.068 82.6065 119.095 82.9737 118.905 83.4905C118.769 83.8305 118.538 84.1025 118.225 84.3065C117.912 84.5377 117.545 84.6465 117.3 84.5785C116.416 84.3065 114.893 83.3545 112.975 82.4025C111.071 81.4505 109.779 80.8385 109.099 80.4985C109.235 80.0225 109.303 79.8185 109.412 79.3425C110.296 79.4785 111.425 79.8185 112.785 80.2945C114.145 80.8113 115.165 81.1513 115.845 81.3145C115.641 80.8385 115.097 79.5057 114.145 77.4385C113.193 75.3713 112.35 74.0113 111.738 73.2225C111.806 72.8553 111.847 72.6104 111.874 72.5152C111.983 72.2024 112.146 71.9984 112.391 71.944C112.663 71.876 113.098 71.9168 113.723 72.0528C117.028 72.7328 118.687 73.0728 121.992 73.6848C122.332 73.9568 122.427 74.3648 122.305 74.8816C122.196 75.2216 121.992 75.5617 121.72 75.8337C121.448 76.1057 121.108 76.2825 120.836 76.2009C120.469 76.1329 119.381 75.6841 117.749 75.0721C116.117 74.5009 114.934 74.052 114.254 73.8208C115.899 77.5337 116.96 80.3489 117.844 81.9537Z" fill="white"/>
<path d="M113.628 70.0536C113.261 70.0536 113.084 70.0536 112.703 70.0808C113.411 66.3408 113.819 62.5736 113.9 58.752C113.927 58.3032 114.077 57.936 114.308 57.6232C114.553 57.3104 114.784 57.1472 115.056 57.1744C115.464 57.1744 115.709 57.5824 115.709 58.3304C115.532 60.4384 115.396 61.4992 115.056 63.5392C116.076 63.5664 117.572 63.716 119.476 63.9472C121.421 64.1784 123.08 64.1784 123.733 64.396C124.046 64.5048 124.25 65.0488 124.168 65.5928C124.141 65.96 123.964 66.2728 123.733 66.5856C123.488 66.8984 123.216 67.0616 122.944 67.1024C119.68 66.2864 116.96 65.5384 114.757 64.9264C114.403 67.0208 114.172 68.0408 113.628 70.0536Z" fill="white"/>
<path d="M3.76733 44.0095C4.47453 40.5415 5.67133 37.1415 7.14013 33.8775C8.59533 30.6135 10.4041 27.5263 12.5529 24.6295C14.6609 21.7327 17.1497 19.0807 19.8697 16.7415L20.8897 15.8575C21.0665 15.7215 21.2297 15.5447 21.4065 15.4087L21.9505 15.0007L24.1265 13.4095C24.8745 12.9335 25.6225 12.4167 26.4113 11.9407C27.1865 11.4919 27.9481 10.9887 28.7641 10.6079C31.9193 8.9079 35.2921 7.5751 38.7601 6.6367C42.2281 5.6847 45.8049 5.1407 49.3681 4.9367C56.5081 4.5695 63.7433 5.5079 70.4481 7.8879C67.0209 6.9767 63.5121 6.3239 60.0033 6.0519C58.2353 5.8751 56.4673 5.8207 54.7265 5.8207C52.9585 5.8207 51.1905 5.8479 49.4497 6.0247C45.9545 6.3375 42.4729 6.9087 39.1137 7.9015C35.7409 8.8535 32.4905 10.1727 29.3897 11.8455C28.6145 12.2127 27.8529 12.7023 27.1049 13.1375C26.3569 13.5727 25.6497 14.0895 24.8881 14.5655L22.7801 16.1295L22.2361 16.4967C22.0593 16.6327 21.8961 16.7687 21.7193 16.9047L20.6993 17.7615C18.0065 20.0055 15.5993 22.5487 13.4233 25.3095C11.2473 28.0703 9.38413 31.0487 7.77933 34.2175L7.16733 35.4143C6.96333 35.8223 6.80013 36.2303 6.62333 36.6111C6.25613 37.3999 5.91613 38.2431 5.57613 39.0591C4.89613 40.6367 4.28413 42.3095 3.76733 44.0095Z" fill="white"/>
<path d="M101.551 98.5456C101.211 99.4024 101.687 100.518 102.775 100.654C103.768 100.79 104.883 100.001 105.128 99.1848C105.4 98.2328 104.516 97.172 103.401 97.2128C102.503 97.2536 101.796 97.9336 101.551 98.5456Z" fill="white"/>
<defs>
<linearGradient id="paint0_linear" x1="57.5058" y1="12.6605" x2="57.5058" y2="102.865" gradientUnits="userSpaceOnUse">
<stop stop-color="#FFB606"/>
<stop offset="1" stop-color="#FFC63D"/>
</linearGradient>
<radialGradient id="paint1_radial" cx="0" cy="0" r="1" gradientUnits="userSpaceOnUse" gradientTransform="translate(31.9904 73.4859) rotate(90) scale(19.4758 21.8348)">
<stop stop-color="#FFB606"/>
<stop offset="1" stop-color="#FFC539"/>
</radialGradient>
</defs>
</svg>
