<svg width="16" height="16" viewBox="0 0 16 16" fill="none" xmlns="http://www.w3.org/2000/svg">
<g clip-path="url(#clip0)">
<path d="M8.90136 0H7.99995H7.34267C5.34412 0.168159 3.48163 1.08087 2.1242 2.55731C0.766768 4.03376 0.0134277 5.96621 0.0134277 7.97183C0.0134277 9.97745 0.766768 11.9099 2.1242 13.3863C3.48163 14.8628 5.34412 15.7755 7.34267 15.9437H7.99995H8.90136C10.8999 15.7755 12.7624 14.8628 14.1198 13.3863C15.4773 11.9099 16.2306 9.97745 16.2306 7.97183C16.2306 5.96621 15.4773 4.03376 14.1198 2.55731C12.7624 1.08087 10.8999 0.168159 8.90136 0V0ZM11.9436 10.6103C12.1204 10.7871 12.2198 11.0269 12.2198 11.277C12.2198 11.527 12.1204 11.7669 11.9436 11.9437C11.7668 12.1205 11.527 12.2198 11.2769 12.2198C11.0269 12.2198 10.7871 12.1205 10.6103 11.9437L7.99995 9.38967L5.38962 11.9437C5.30233 12.0317 5.19848 12.1015 5.08406 12.1492C4.96964 12.1969 4.84691 12.2214 4.72296 12.2214C4.599 12.2214 4.47627 12.1969 4.36185 12.1492C4.24743 12.1015 4.14358 12.0317 4.05629 11.9437C3.88305 11.765 3.78617 11.5259 3.78617 11.277C3.78617 11.0281 3.88305 10.789 4.05629 10.6103L6.66662 8L4.05629 5.38967C3.87948 5.21286 3.78015 4.97305 3.78015 4.723C3.78015 4.47296 3.87948 4.23315 4.05629 4.05634C4.2331 3.87953 4.47291 3.7802 4.72296 3.7802C4.973 3.7802 5.21281 3.87953 5.38962 4.05634L7.99995 6.66667L10.6103 4.05634C10.789 3.8831 11.0281 3.78622 11.2769 3.78622C11.5258 3.78622 11.7649 3.8831 11.9436 4.05634C12.0316 4.14363 12.1015 4.24748 12.1491 4.3619C12.1968 4.47632 12.2214 4.59905 12.2214 4.723C12.2214 4.84696 12.1968 4.96969 12.1491 5.08411C12.1015 5.19853 12.0316 5.30238 11.9436 5.38967L9.38962 8L11.9436 10.6103Z" fill="white"/>
</g>
<defs>
<clipPath id="clip0">
<rect width="16" height="16" fill="white"/>
</clipPath>
</defs>
</svg>
