<svg width="170" height="64" viewBox="0 0 170 64" fill="none" xmlns="http://www.w3.org/2000/svg">
<path d="M45.3889 15.1103C46.3361 17.0623 47.2001 19.5135 47.5649 22.3743C48.4929 29.7663 46.1249 35.0271 42.5601 39.8271C38.0673 45.8943 29.7089 49.0558 22.2081 48.2942C15.6481 47.6222 10.7201 44.9342 7.56489 41.1071C4.64009 37.5551 3.59689 33.7983 4.99209 29.4143C6.41929 24.9343 9.35689 22.2271 13.9969 21.4655C17.9649 20.8127 20.8897 22.1055 23.5329 24.4094C25.3889 26.0222 27.0081 27.9167 29.7089 28.7423C33.1969 29.8111 37.3441 29.3503 40.7169 26.5023C43.3921 24.2303 44.3969 21.9263 44.7489 18.4383C44.8449 17.4655 44.7937 16.5311 44.6529 15.6671C43.8977 16.1151 40.9601 17.7471 38.4257 17.7343C35.4945 17.7343 34.5345 14.9823 34.5345 14.9823C34.5345 14.9823 36.2625 12.6143 37.8817 11.9103C39.2129 11.3343 41.7345 11.1871 42.1377 11.1743C42.1889 11.0655 42.2849 10.8223 42.4449 10.5215C42.4577 10.5087 42.4577 10.4703 42.4769 10.4575C42.8801 9.65745 43.5521 8.42865 44.2817 7.75025C45.5937 6.54705 48.4545 5.95825 48.4545 5.95825C48.4545 5.95825 50.5665 7.96145 49.3697 10.6495C48.4609 12.5823 46.4449 14.2911 45.3889 15.1103Z" fill="url(#paint0_linear)"/>
<path d="M45.3888 15.1104C45.5488 15.4304 45.696 15.7504 45.8368 16.0704C45.984 16.3904 46.112 16.7232 46.24 17.0432C46.496 17.696 46.72 18.3744 46.8928 19.0592C47.2768 20.4224 47.5008 21.8112 47.6288 23.2192C47.7568 24.6272 47.776 26.048 47.6608 27.4624C47.5968 28.1664 47.5008 28.8704 47.3728 29.5552C47.2256 30.2464 47.0848 30.944 46.88 31.6224C46.4768 32.9792 45.9328 34.2912 45.2928 35.5584C44.9728 36.1856 44.6208 36.8064 44.2368 37.4016C43.8656 37.9904 43.4688 38.6048 43.0656 39.1616C42.9696 39.3088 42.8608 39.4496 42.7584 39.5904L42.5984 39.8144L42.4384 40.0256L42.2784 40.2368C42.2144 40.32 42.1632 40.384 42.1184 40.448L41.7856 40.864C41.7216 40.928 41.6704 40.992 41.6128 41.0752L41.44 41.2672L41.2672 41.4592L41.0752 41.6512C40.9472 41.7792 40.832 41.9072 40.704 42.0352L40.32 42.4064C40.256 42.4704 40.192 42.5152 40.128 42.5792L39.9168 42.752L39.712 42.9248L39.5008 43.0976C39.3536 43.2064 39.2256 43.3216 39.0848 43.4304L38.6688 43.7504L38.5728 43.8336L38.4576 43.9168L38.2336 44.0768L38.0096 44.2368C37.9264 44.288 37.8624 44.3328 37.7856 44.384C37.6384 44.48 37.4976 44.576 37.3376 44.672L36.8896 44.9408C34.4576 46.4128 31.7696 47.4368 28.9856 47.9808L28.7296 48.032C28.6464 48.0448 28.5568 48.064 28.4736 48.0832L27.9488 48.1664C27.776 48.1984 27.5968 48.2176 27.424 48.2496L27.168 48.2816L26.912 48.3136C26.208 48.3968 25.504 48.4224 24.7872 48.4416C23.36 48.4736 21.9392 48.3584 20.5312 48.1088C19.8272 47.9808 19.136 47.84 18.4512 47.6416C17.7664 47.4496 17.088 47.2384 16.416 47.0016C15.744 46.7584 15.0912 46.4896 14.432 46.2016C13.792 45.9136 13.152 45.5936 12.5248 45.2416C11.2896 44.5376 10.0928 43.7376 9.01759 42.7904C8.47359 42.3104 7.97439 41.7984 7.51359 41.2416C7.06559 40.6784 6.64959 40.0704 6.32959 39.4176L6.79679 39.1936C7.08479 39.8016 7.46879 40.3776 7.90399 40.9216C8.33919 41.4656 8.81919 41.9648 9.34399 42.4256C10.3872 43.3536 11.5392 44.1536 12.736 44.8384C13.344 45.1904 13.9712 45.5104 14.6112 45.7984C15.2512 46.0864 15.8912 46.3744 16.544 46.5984C17.1968 46.8416 17.8688 47.0464 18.5472 47.2384C19.2256 47.4304 19.9104 47.5712 20.5952 47.7056C23.3472 48.2176 26.1952 48.1728 28.9472 47.6416C31.6992 47.1104 34.3744 46.1376 36.7872 44.6976L37.2352 44.4288C37.3824 44.3328 37.5232 44.2368 37.6704 44.1408C37.7536 44.0896 37.8176 44.0448 37.8944 43.9936L38.1184 43.8464L38.3424 43.6992L38.4576 43.616L38.5536 43.5328L38.9696 43.2128C39.1168 43.104 39.2448 42.9888 39.3856 42.88L39.5968 42.72L39.7888 42.5472L39.9808 42.3744C40.0448 42.3104 40.1088 42.2656 40.1728 42.2016L40.5568 41.8304C40.6848 41.7216 40.8 41.5872 40.928 41.4592L41.12 41.2672L41.2928 41.0752L41.4656 40.8832C41.5296 40.8192 41.5808 40.7552 41.6384 40.6912L41.9712 40.288C42.0352 40.224 42.0864 40.16 42.1312 40.0768L42.2912 39.8656L42.4512 39.6544L42.6112 39.4432C42.7072 39.296 42.8224 39.1552 42.9184 39.0272C43.3344 38.4512 43.7184 37.8752 44.1024 37.28C44.4864 36.6848 44.8256 36.0768 45.1584 35.456C45.8112 34.208 46.3616 32.9088 46.7712 31.5648C46.9824 30.8928 47.1424 30.2016 47.2832 29.5168C47.4112 28.8256 47.5264 28.128 47.5904 27.4368C47.7184 26.048 47.7184 24.6208 47.5904 23.2128C47.4752 21.8048 47.2384 20.4096 46.8672 19.0528C46.6944 18.3616 46.464 17.6896 46.2272 17.0368C46.0992 16.704 45.9712 16.384 45.824 16.064C45.696 15.7504 45.5488 15.4112 45.3888 15.1104Z" fill="#2E2E2E"/>
<path d="M45.3888 15.1104C45.5488 15.4304 45.696 15.7504 45.8368 16.0704C45.984 16.3904 46.112 16.7232 46.24 17.0432C46.496 17.696 46.72 18.3744 46.8928 19.0592C47.2768 20.4224 47.5008 21.8112 47.6288 23.2192C47.7568 24.6272 47.776 26.048 47.6608 27.4624C47.5968 28.1664 47.5008 28.8704 47.3728 29.5552C47.2256 30.2464 47.0848 30.944 46.88 31.6224C46.4768 32.9792 45.9328 34.2912 45.2928 35.5584C44.9728 36.1856 44.6208 36.8064 44.2368 37.4016C43.8656 37.9904 43.4688 38.6048 43.0656 39.1616C42.9696 39.3088 42.8608 39.4496 42.7584 39.5904L42.5984 39.8144L42.4384 40.0256L42.2784 40.2368C42.2144 40.32 42.1632 40.384 42.1184 40.448L41.7856 40.864C41.7216 40.928 41.6704 40.992 41.6128 41.0752L41.44 41.2672L41.2672 41.4592L41.0752 41.6512C40.9472 41.7792 40.832 41.9072 40.704 42.0352L40.32 42.4064C40.256 42.4704 40.192 42.5152 40.128 42.5792L39.9168 42.752L39.712 42.9248L39.5008 43.0976C39.3536 43.2064 39.2256 43.3216 39.0848 43.4304L38.6688 43.7504L38.5728 43.8336L38.4576 43.9168L38.2336 44.0768L38.0096 44.2368C37.9264 44.288 37.8624 44.3328 37.7856 44.384C37.6384 44.48 37.4976 44.576 37.3376 44.672L36.8896 44.9408C34.4576 46.4128 31.7696 47.4368 28.9856 47.9808L28.7296 48.032C28.6464 48.0448 28.5568 48.064 28.4736 48.0832L27.9488 48.1664C27.776 48.1984 27.5968 48.2176 27.424 48.2496L27.168 48.2816L26.912 48.3136C26.208 48.3968 25.504 48.4224 24.7872 48.4416C23.36 48.4736 21.9392 48.3584 20.5312 48.1088C19.8272 47.9808 19.136 47.84 18.4512 47.6416C17.7664 47.4496 17.088 47.2384 16.416 47.0016C15.744 46.7584 15.0912 46.4896 14.432 46.2016C13.792 45.9136 13.152 45.5936 12.5248 45.2416C11.2896 44.5376 10.0928 43.7376 9.01759 42.7904C8.47359 42.3104 7.97439 41.7984 7.51359 41.2416C7.06559 40.6784 6.64959 40.0704 6.32959 39.4176L6.79679 39.1936C7.08479 39.8016 7.46879 40.3776 7.90399 40.9216C8.33919 41.4656 8.81919 41.9648 9.34399 42.4256C10.3872 43.3536 11.5392 44.1536 12.736 44.8384C13.344 45.1904 13.9712 45.5104 14.6112 45.7984C15.2512 46.0864 15.8912 46.3744 16.544 46.5984C17.1968 46.8416 17.8688 47.0464 18.5472 47.2384C19.2256 47.4304 19.9104 47.5712 20.5952 47.7056C23.3472 48.2176 26.1952 48.1728 28.9472 47.6416C31.6992 47.1104 34.3744 46.1376 36.7872 44.6976L37.2352 44.4288C37.3824 44.3328 37.5232 44.2368 37.6704 44.1408C37.7536 44.0896 37.8176 44.0448 37.8944 43.9936L38.1184 43.8464L38.3424 43.6992L38.4576 43.616L38.5536 43.5328L38.9696 43.2128C39.1168 43.104 39.2448 42.9888 39.3856 42.88L39.5968 42.72L39.7888 42.5472L39.9808 42.3744C40.0448 42.3104 40.1088 42.2656 40.1728 42.2016L40.5568 41.8304C40.6848 41.7216 40.8 41.5872 40.928 41.4592L41.12 41.2672L41.2928 41.0752L41.4656 40.8832C41.5296 40.8192 41.5808 40.7552 41.6384 40.6912L41.9712 40.288C42.0352 40.224 42.0864 40.16 42.1312 40.0768L42.2912 39.8656L42.4512 39.6544L42.6112 39.4432C42.7072 39.296 42.8224 39.1552 42.9184 39.0272C43.3344 38.4512 43.7184 37.8752 44.1024 37.28C44.4864 36.6848 44.8256 36.0768 45.1584 35.456C45.8112 34.208 46.3616 32.9088 46.7712 31.5648C46.9824 30.8928 47.1424 30.2016 47.2832 29.5168C47.4112 28.8256 47.5264 28.128 47.5904 27.4368C47.7184 26.048 47.7184 24.6208 47.5904 23.2128C47.4752 21.8048 47.2384 20.4096 46.8672 19.0528C46.6944 18.3616 46.464 17.6896 46.2272 17.0368C46.0992 16.704 45.9712 16.384 45.824 16.064C45.696 15.7504 45.5488 15.4112 45.3888 15.1104Z" fill="#2E2E2E"/>
<path d="M45.3889 15.1104C45.5489 15.4304 45.6961 15.7504 45.8369 16.0704C45.9841 16.3904 46.1121 16.7232 46.2401 17.0432C46.4961 17.696 46.7201 18.3744 46.8929 19.0592C47.2769 20.4224 47.5009 21.8304 47.6289 23.232C47.7569 24.64 47.7761 26.0608 47.6609 27.4752C47.5457 28.8832 47.2769 30.2912 46.8737 31.648C46.4705 33.0048 45.9265 34.3168 45.2737 35.584C44.6209 36.8512 43.8657 38.048 43.0465 39.2C42.8417 39.488 42.6305 39.776 42.4193 40.064C42.1953 40.352 41.9841 40.6272 41.7473 40.896C41.2801 41.44 40.7873 41.952 40.2753 42.432C39.2321 43.392 38.0801 44.256 36.8833 44.992C34.4513 46.4832 31.7633 47.5008 28.9601 48.0448C27.5649 48.3136 26.1441 48.4736 24.7169 48.512C23.2897 48.544 21.8689 48.4288 20.4609 48.192C19.0529 47.9552 17.6769 47.5648 16.3329 47.0848C15.6609 46.8416 15.0081 46.5728 14.3489 46.2848L14.1057 46.176C14.0225 46.144 13.9457 46.0928 13.8625 46.0672C13.7025 45.984 13.5425 45.9072 13.3825 45.824C13.2225 45.7408 13.0625 45.664 12.9025 45.568C12.7425 45.4848 12.5825 45.3952 12.4353 45.312C11.8081 44.9408 11.2193 44.5632 10.6433 44.128C10.0673 43.6992 9.52326 43.2448 8.99846 42.7648C8.47366 42.2848 7.95526 41.7728 7.49446 41.2288C7.25126 40.96 7.02726 40.6656 6.82246 40.3776C6.72646 40.2304 6.61766 40.0704 6.53446 39.9104C6.43846 39.7504 6.36166 39.5776 6.29126 39.3792L6.78406 39.232C6.82886 39.3792 6.89926 39.52 6.97606 39.6608C7.05926 39.808 7.14886 39.9488 7.23206 40.0896C7.42406 40.3584 7.64806 40.6528 7.85926 40.9024C8.30726 41.4336 8.80646 41.9264 9.31206 42.4064C9.82406 42.8864 10.3681 43.3152 10.9249 43.7504C11.4881 44.1664 12.0577 44.5632 12.6529 44.9216C12.8001 45.0048 12.9601 45.0944 13.1009 45.1776C13.2481 45.2608 13.4081 45.3376 13.5681 45.4208C13.7281 45.504 13.8753 45.5808 14.0353 45.664C14.1185 45.696 14.1953 45.7472 14.2785 45.7728L14.5217 45.8816C15.1617 46.1696 15.8017 46.4448 16.4545 46.6816C17.7665 47.1616 19.1297 47.5456 20.4993 47.8016C21.8689 48.0576 23.2833 48.1728 24.6913 48.1536C26.0865 48.1408 27.4945 47.9936 28.8833 47.7376C31.6353 47.2064 34.3105 46.2144 36.7233 44.7744C37.9265 44.0512 39.0593 43.2256 40.0961 42.2656C40.6081 41.7856 41.1073 41.2928 41.5681 40.7616C41.8113 40.5056 42.0161 40.2176 42.2401 39.9488C42.4641 39.68 42.6561 39.3856 42.8673 39.0976C43.6801 37.9648 44.4545 36.7616 45.1073 35.5136C45.7601 34.2656 46.3105 32.9664 46.7201 31.6096C47.1361 30.2656 47.4113 28.8768 47.5329 27.4624C47.6609 26.0544 47.6609 24.6464 47.5329 23.2384C47.4177 21.8304 47.1809 20.4352 46.8097 19.0656C46.6369 18.3744 46.4065 17.7024 46.1697 17.0496C46.0417 16.7168 45.9137 16.3968 45.7665 16.0768C45.6961 15.7504 45.5489 15.4112 45.3889 15.1104Z" fill="#2E2E2E"/>
<path d="M45.8688 16.2944C45.984 16.6784 46.08 17.0624 46.1568 17.4656C46.2336 17.8688 46.3168 18.2528 46.3808 18.6496C46.5088 19.4496 46.5856 20.2496 46.6368 21.0496C46.72 22.6496 46.6496 24.2816 46.3936 25.8624C46.2656 26.6624 46.0864 27.4496 45.8816 28.2304C45.6576 28.9984 45.4016 29.7664 45.0816 30.5216C44.7616 31.2576 44.4096 31.9936 43.9936 32.6848C43.5776 33.3888 43.1296 34.0608 42.6304 34.6816C42.1376 35.3216 41.5872 35.9296 41.0176 36.5056C40.448 37.0816 39.8336 37.6128 39.2256 38.1376L38.7456 38.5216L38.5024 38.7136C38.4192 38.7776 38.3424 38.8224 38.2592 38.8864L37.7664 39.2384C37.6064 39.3472 37.4336 39.4624 37.2736 39.5712C36.6016 40.0192 35.8976 40.4352 35.1808 40.8C33.728 41.536 32.1728 42.08 30.5728 42.368L30.2656 42.4192C30.1696 42.432 30.0608 42.4512 29.9584 42.4704C29.8624 42.4832 29.7536 42.5024 29.6512 42.5216L29.344 42.5536C29.2992 42.5536 29.248 42.5664 29.184 42.5664L29.024 42.5792C28.928 42.5792 28.8192 42.592 28.7168 42.592C28.512 42.592 28.3008 42.6048 28.1088 42.6048C27.6928 42.6048 27.296 42.592 26.8736 42.5408C26.6688 42.5088 26.4576 42.4896 26.2656 42.4576C26.1696 42.4448 26.0608 42.4256 25.9584 42.3936C25.9136 42.3808 25.8624 42.3808 25.7984 42.3616C25.7536 42.3488 25.7024 42.3296 25.6384 42.3104L25.7984 41.8176C25.8304 41.8304 25.8816 41.8496 25.9264 41.8496C25.9712 41.8624 26.0224 41.8624 26.0736 41.8816C26.1696 41.8944 26.2656 41.9328 26.3616 41.9456C26.5536 41.9776 26.7456 42.0096 26.9376 42.0416C27.3216 42.0928 27.7248 42.1248 28.1216 42.1248C28.3136 42.1248 28.5248 42.1248 28.7168 42.1248L29.0048 42.112H29.152C29.1968 42.112 29.248 42.0992 29.2992 42.0992L29.5872 42.0672C29.6832 42.0544 29.7792 42.0544 29.8752 42.0352C29.9712 42.016 30.0672 42.0224 30.1632 42.0032L30.4512 41.952C32.0192 41.696 33.5424 41.184 34.9632 40.48C35.6864 40.128 36.3712 39.744 37.0432 39.296C37.2032 39.1872 37.376 39.072 37.536 38.9632L38.016 38.6112C38.0992 38.5472 38.176 38.5024 38.2592 38.4384L38.5024 38.2656L38.9824 37.8944C39.6096 37.3824 40.2176 36.8704 40.7744 36.3072C41.3504 35.744 41.8816 35.1552 42.3872 34.5344C42.88 33.9072 43.3472 33.2544 43.7632 32.5632C44.1792 31.872 44.5504 31.1744 44.8704 30.432C45.1904 29.696 45.4656 28.9408 45.7024 28.1792C45.9264 27.4112 46.1184 26.6304 46.2464 25.8432C46.5216 24.256 46.6112 22.6432 46.5536 21.0432C46.5216 20.2432 46.4576 19.4432 46.3296 18.6432C46.2656 18.24 46.2016 17.8432 46.1184 17.4592C46.08 17.0752 45.984 16.6784 45.8688 16.2944Z" fill="#2E2E2E"/>
<path d="M45.3889 15.1104C45.7729 15.9616 46.0417 16.8384 46.2849 17.7216C46.5089 18.6176 46.6881 19.5328 46.7777 20.4416C46.8673 21.3504 46.9249 22.2848 46.9057 23.2128C46.8929 24.1408 46.8225 25.056 46.7137 25.984C46.4705 27.8272 46.0097 29.6128 45.3185 31.328C44.9665 32.192 44.5505 33.024 44.0833 33.8048C43.8593 34.208 43.6033 34.592 43.3473 34.9888L42.9441 35.5648C42.8801 35.6608 42.7969 35.7568 42.7393 35.8336L42.5281 36.1024C41.9521 36.8384 41.3441 37.5296 40.6721 38.1696L40.4289 38.4128L40.1729 38.656C40.0001 38.816 39.8401 38.976 39.6609 39.1232C39.3089 39.4112 38.9569 39.7312 38.5857 40.0064L38.3105 40.2176C38.2145 40.2816 38.1377 40.3648 38.0353 40.4288L37.4593 40.832C37.3633 40.896 37.2673 40.96 37.1713 41.024L36.8833 41.216L36.3073 41.6L35.7121 41.952C35.5009 42.0608 35.3089 42.1952 35.1041 42.304L34.4961 42.6368C34.4001 42.7008 34.2849 42.7456 34.1889 42.7968L33.8689 42.9568C33.0177 43.36 32.1409 43.6928 31.2449 43.9168L30.9121 44L30.5793 44.0832L30.4065 44.1152C30.3425 44.128 30.2913 44.128 30.2337 44.1472L29.8817 44.2112C29.4145 44.2752 28.9537 44.32 28.4865 44.3392C28.0193 44.352 27.5585 44.352 27.0785 44.3264C26.6113 44.2944 26.1505 44.2304 25.6833 44.1536C25.2161 44.0768 24.7681 43.9616 24.3073 43.8336C24.0833 43.7696 23.8593 43.6864 23.6353 43.6096C23.5201 43.5584 23.4113 43.5264 23.3025 43.4816C23.2385 43.4688 23.1873 43.4304 23.1425 43.3984C23.0785 43.3664 23.0273 43.3472 22.9697 43.3152L23.2129 42.848C23.2577 42.8608 23.3089 42.8992 23.3601 42.912C23.4049 42.944 23.4561 42.9632 23.5073 42.976C23.6033 43.0272 23.7121 43.0592 23.8145 43.104C24.0193 43.1872 24.2305 43.264 24.4545 43.328C24.8897 43.456 25.3185 43.5712 25.7665 43.6608C26.2145 43.744 26.6625 43.808 27.1105 43.8336C27.5585 43.8656 28.0065 43.8848 28.4737 43.8656C28.9217 43.8528 29.3697 43.8144 29.8369 43.7568L30.1697 43.7056C30.2337 43.6928 30.2849 43.6928 30.3297 43.6736L30.4897 43.6416L30.8225 43.5776L31.1553 43.4944C32.0385 43.2832 32.9025 42.9632 33.7153 42.5856L34.0225 42.4384C34.1185 42.3872 34.2273 42.3424 34.3297 42.2784L34.9377 41.9584C35.1489 41.8624 35.3409 41.7344 35.5329 41.6256L36.1281 41.2928L36.7041 40.9216L36.9921 40.7488C37.0881 40.6848 37.1841 40.6208 37.2801 40.5568L37.8561 40.1728C37.9521 40.1088 38.0481 40.0448 38.1313 39.9616L38.4065 39.7504C38.7777 39.4816 39.1297 39.1744 39.4817 38.8992C39.6545 38.752 39.8145 38.592 39.9937 38.4512L40.2497 38.2272L40.4929 37.984C41.1649 37.3568 41.7729 36.672 42.3489 35.968L42.5601 35.6992C42.6433 35.616 42.7073 35.5264 42.7649 35.4304L43.1681 34.8672C43.4241 34.4832 43.6801 34.1184 43.9041 33.7152C44.3713 32.928 44.8001 32.1152 45.1521 31.264C45.8753 29.568 46.3553 27.7952 46.5921 25.9712C46.7201 25.0624 46.7969 24.1472 46.8161 23.2192C46.8289 22.3104 46.8161 21.376 46.7201 20.4672C46.6241 19.5584 46.4641 18.6432 46.2529 17.7472C46.0289 16.8384 45.7601 15.9552 45.3889 15.1104Z" fill="#2E2E2E"/>
<path d="M45.3888 15.1104C45.6 15.5776 45.792 16.0704 45.952 16.5504C46.112 17.0432 46.2592 17.5232 46.4 18.0416C46.528 18.5344 46.6432 19.0528 46.752 19.5456C46.848 20.0576 46.9248 20.5696 46.9952 21.0816C47.0272 21.3376 47.0592 21.5936 47.0784 21.8496C47.0912 22.1056 47.1296 22.3616 47.1424 22.6176C47.1744 23.1296 47.1936 23.6608 47.1936 24.1664C47.1936 25.2096 47.1104 26.2336 46.9504 27.2576C46.8032 28.2816 46.5664 29.2864 46.2592 30.2848C46.0992 30.7776 45.9392 31.2576 45.7472 31.7568C45.5552 32.2368 45.344 32.7168 45.12 33.184C44.2048 35.04 43.008 36.768 41.6128 38.304C40.9088 39.072 40.1728 39.7952 39.3856 40.4672C38.9824 40.8 38.5856 41.12 38.1696 41.44C37.7536 41.76 37.3376 42.0672 36.9024 42.3488C36.0384 42.9248 35.1552 43.456 34.2272 43.9488C33.312 44.4416 32.3392 44.8448 31.3472 45.1648C30.3424 45.472 29.312 45.6768 28.2752 45.792C28.1472 45.8048 28.0192 45.824 27.8912 45.824C27.7632 45.824 27.6352 45.8368 27.488 45.856L27.0848 45.8688C26.9568 45.8688 26.8288 45.8688 26.6816 45.8688H26.304H26.112C26.048 45.8688 25.984 45.8688 25.92 45.8688L25.5168 45.856H25.3248C25.2608 45.856 25.1968 45.856 25.1328 45.8432C24.0896 45.7792 23.0528 45.6 22.048 45.3312L21.664 45.2224L21.2992 45.0944C21.1712 45.0432 21.056 45.0112 20.9344 44.9664C20.8128 44.9216 20.6912 44.8704 20.5696 44.8192C20.3264 44.7232 20.0896 44.608 19.8464 44.4864L19.6736 44.3904L19.5008 44.2944C19.4368 44.2624 19.3856 44.2112 19.328 44.1984C19.296 44.1856 19.264 44.1664 19.2448 44.1344C19.2128 44.1216 19.1808 44.1024 19.1616 44.0704L19.4688 43.6544C19.4816 43.6672 19.5136 43.6864 19.5328 43.7056C19.5648 43.7184 19.5776 43.7376 19.616 43.7568C19.6608 43.7888 19.712 43.8208 19.776 43.8528L19.936 43.9488L20.096 44.032C20.32 44.1408 20.544 44.256 20.768 44.352C20.8832 44.4032 21.0112 44.448 21.12 44.4992C21.2288 44.5504 21.3632 44.5952 21.472 44.6272L21.824 44.7552L22.1888 44.864C23.1616 45.152 24.1728 45.312 25.184 45.3952C25.248 45.3952 25.312 45.408 25.376 45.408L25.568 45.4208L25.952 45.4336C26.016 45.4336 26.08 45.4336 26.144 45.4464H26.336H26.72C26.848 45.4464 26.976 45.4464 27.104 45.4464L27.488 45.4336C27.616 45.4336 27.744 45.4208 27.872 45.4016C28 45.3888 28.128 45.3888 28.256 45.3696C29.2608 45.2736 30.272 45.0816 31.2512 44.7936C32.224 44.5056 33.1712 44.1216 34.0864 43.6416C35.0016 43.1616 35.8784 42.6496 36.7424 42.0928C37.1776 41.8048 37.5872 41.5168 38.0096 41.2096C38.4256 40.9024 38.8224 40.5824 39.2128 40.2496C40 39.5968 40.7488 38.8736 41.44 38.1376C42.8352 36.6336 44.032 34.9376 44.96 33.1136C45.184 32.6464 45.3952 32.1856 45.6 31.7248C45.792 31.2448 45.9648 30.7648 46.1248 30.2848C46.432 29.312 46.688 28.3008 46.848 27.296C47.008 26.272 47.0912 25.248 47.104 24.224C47.104 23.712 47.104 23.2 47.072 22.6752C47.0592 22.4192 47.04 22.1632 47.0208 21.9072C46.9888 21.6512 46.976 21.3952 46.9376 21.1392C46.8736 20.6272 46.7904 20.1152 46.6944 19.6032C46.5984 19.0912 46.4896 18.592 46.3744 18.0992C46.2464 17.6064 46.0992 17.1072 45.9392 16.608C45.7728 16.0704 45.6 15.5712 45.3888 15.1104Z" fill="#2E2E2E"/>
<path d="M14.6688 43.7184C14.912 43.8656 15.1616 44.0064 15.4048 44.1472C15.5328 44.2304 15.6608 44.2944 15.7888 44.3584L16.1728 44.5696C16.6848 44.8384 17.2096 45.0816 17.7408 45.3056C18.2656 45.5488 18.816 45.7344 19.3536 45.9328C19.6288 46.016 19.8976 46.1248 20.1856 46.1888L20.3904 46.2528L20.4864 46.2848L20.5824 46.3168L20.9984 46.4128C22.1184 46.6688 23.2704 46.8288 24.4224 46.88C24.5696 46.8928 24.7104 46.8928 24.8576 46.8928H25.0816C25.1648 46.8928 25.2288 46.8928 25.3056 46.8928H25.7408C25.888 46.8928 26.0288 46.88 26.176 46.88C26.464 46.8672 26.752 46.8288 27.04 46.816L27.4752 46.7648C27.6224 46.752 27.7632 46.7328 27.9104 46.7008C28.4864 46.6176 29.0432 46.528 29.6256 46.3936C30.2016 46.2848 30.7584 46.1376 31.3216 45.9776C32.4288 45.6576 33.5168 45.2096 34.5344 44.6976L34.9184 44.5056L35.3024 44.2944C35.4304 44.2304 35.5584 44.1472 35.6864 44.0832C35.8144 44 35.9424 43.936 36.0704 43.8592C36.5632 43.5712 37.0624 43.2512 37.5424 42.9312C38.0224 42.5984 38.4896 42.2592 38.9376 41.888C39.3856 41.5168 39.8208 41.1392 40.2304 40.736C41.0624 39.9232 41.8304 39.04 42.5344 38.1248C43.2384 37.1968 43.8976 36.2368 44.4864 35.232C45.0816 34.2208 45.6192 33.2032 46.0736 32.128C46.5216 31.0592 46.8416 29.92 47.0464 28.7808C47.4624 26.4896 47.4816 24.128 47.2064 21.8048C47.1424 21.2288 47.0464 20.6528 46.9504 20.0768C46.8352 19.5008 46.7072 18.944 46.5664 18.368C46.4192 17.8048 46.2464 17.248 46.0544 16.6848C45.8624 16.1408 45.6384 15.5968 45.3824 15.072C45.6384 15.6032 45.8624 16.1408 46.0736 16.6848C46.2784 17.2288 46.4576 17.792 46.6176 18.3488C46.7776 18.9056 46.9056 19.4816 47.0208 20.0576C47.136 20.6336 47.2256 21.2096 47.296 21.7856C47.584 24.1088 47.6032 26.4768 47.2 28.7744C46.9952 29.9264 46.6752 31.0656 46.24 32.1472C45.8048 33.2352 45.2672 34.2784 44.672 35.296C44.0768 36.3072 43.4368 37.2992 42.72 38.2272C42.016 39.1552 41.248 40.0512 40.416 40.8832C40 41.2992 39.5712 41.696 39.104 42.0672C38.656 42.4384 38.176 42.8032 37.696 43.136C37.216 43.4688 36.7232 43.7888 36.224 44.096C36.096 44.1792 35.968 44.2432 35.84 44.32C35.712 44.4032 35.584 44.4672 35.456 44.544L35.072 44.7552L34.6688 44.9664C33.6128 45.4976 32.5376 45.9584 31.4048 46.3104C30.8288 46.4704 30.272 46.6176 29.6896 46.7392C29.1136 46.8672 28.5376 46.9824 27.9616 47.0592C27.8144 47.072 27.6736 47.1104 27.5264 47.1232L27.0912 47.1744C26.8032 47.2064 26.496 47.2384 26.208 47.2384C26.0608 47.2384 25.92 47.2512 25.76 47.2512L25.312 47.264C25.2288 47.264 25.1648 47.264 25.088 47.264H24.864C24.7168 47.264 24.576 47.264 24.416 47.2512C23.232 47.2 22.0608 47.0592 20.896 46.8032L20.4608 46.7072L20.3456 46.6752L20.2304 46.6432L20.0256 46.5792C19.7376 46.496 19.4496 46.4064 19.1808 46.3232C18.6176 46.1312 18.0608 45.92 17.5168 45.696C16.9728 45.4528 16.4416 45.216 15.9168 44.96L15.5136 44.7488C15.3856 44.6656 15.2576 44.6016 15.1296 44.5376C14.8736 44.3904 14.6176 44.2496 14.3616 44.0896L14.6688 43.7184Z" fill="#2E2E2E"/>
<path d="M45.3889 15.1104C45.5617 14.9632 45.7409 14.8032 45.9201 14.6432C46.0993 14.4832 46.2721 14.3232 46.4321 14.1504C46.6049 13.9904 46.7649 13.8176 46.9249 13.6384C47.0849 13.4592 47.2449 13.2864 47.3921 13.1072C47.6993 12.7552 47.9873 12.384 48.2561 12C48.3841 11.808 48.5121 11.616 48.6401 11.424C48.7041 11.328 48.7553 11.232 48.8129 11.1168L48.8961 10.9696L48.9793 10.8096C49.0305 10.7136 49.0753 10.5984 49.1265 10.5024L49.1905 10.3424L49.2225 10.2592L49.2545 10.176L49.3185 10.016L49.3697 9.85596C49.3825 9.82396 49.3825 9.80476 49.4017 9.77276L49.4145 9.68956C49.4273 9.62556 49.4465 9.58076 49.4465 9.52956C49.5297 9.10076 49.5297 8.64636 49.4593 8.19836C49.3761 7.76956 49.2161 7.33436 49.0113 6.95036C48.8961 6.75836 48.7873 6.56636 48.6465 6.37436C48.5825 6.29116 48.5185 6.20156 48.4353 6.11836C48.4033 6.06716 48.3521 6.03516 48.3201 5.99036C48.3073 5.97756 48.2881 5.93916 48.2561 5.92636L48.2049 5.87516L48.4289 5.93916C48.2561 5.97116 48.0769 6.02236 47.9041 6.06716C47.7313 6.11196 47.5521 6.16316 47.3729 6.21436C47.0209 6.31036 46.6881 6.42556 46.3489 6.54716C46.0161 6.67516 45.6769 6.80316 45.3569 6.96316C45.0369 7.12316 44.7297 7.29596 44.4609 7.52636C44.2049 7.75036 43.9681 8.01916 43.7377 8.31356C43.5073 8.60796 43.3217 8.90236 43.1297 9.20956C42.7457 9.83676 42.3937 10.4768 42.0737 11.1424C42.1889 10.7904 42.3169 10.4512 42.4577 10.0992C42.5985 9.74716 42.7457 9.42716 42.9249 9.08796C43.0849 8.75516 43.2769 8.43516 43.4881 8.12796C43.6993 7.82076 43.9233 7.51996 44.2113 7.24476C44.4993 6.98876 44.8193 6.77756 45.1393 6.59196C45.4721 6.39996 45.8113 6.25916 46.1633 6.11196C46.5153 5.96476 46.8673 5.85596 47.2193 5.72796C47.3921 5.66396 47.5713 5.61916 47.7633 5.56796C47.9553 5.51676 48.1153 5.47196 48.3073 5.43996L48.4353 5.40796L48.5313 5.49116C48.5633 5.52316 48.5825 5.54236 48.6145 5.57436C48.6273 5.58716 48.6657 5.62556 48.6785 5.63836C48.7297 5.68956 48.7617 5.73436 48.8065 5.78556C48.8897 5.88156 48.9665 5.97756 49.0497 6.07356C49.1969 6.28476 49.3377 6.48956 49.4529 6.70076C49.6961 7.12956 49.8689 7.60956 49.9457 8.10876C49.9905 8.35196 50.0097 8.60156 49.9905 8.85756C49.9777 9.11356 49.9585 9.35036 49.8945 9.60636C49.8817 9.67036 49.8625 9.73436 49.8497 9.77916L49.8177 9.87516C49.8049 9.90716 49.8049 9.93916 49.7857 9.95836L49.7217 10.1312L49.6577 10.304L49.6257 10.3872L49.5937 10.4704L49.5105 10.6304L49.4273 10.7904L49.3761 10.8736L49.3313 10.9568C48.8513 11.808 48.2433 12.5568 47.5713 13.2288C47.2385 13.5616 46.8673 13.8816 46.4961 14.1888C46.1761 14.5664 45.7921 14.8544 45.3889 15.1104Z" fill="#2E2E2E"/>
<path d="M38.2081 12.2751C38.0609 12.3711 37.9201 12.4863 37.7921 12.5823C37.7281 12.6335 37.6641 12.6911 37.5873 12.7423C37.5553 12.7743 37.5233 12.7935 37.4913 12.8255L37.3953 12.9087C37.1393 13.1327 36.9025 13.3759 36.6593 13.6319C36.4161 13.8751 36.2113 14.1439 35.9873 14.3999L35.6673 14.8031C35.5521 14.9311 35.4625 15.0719 35.3345 15.2191L35.3665 14.9311C35.3985 14.9823 35.4305 15.0271 35.4497 15.0783C35.4817 15.1295 35.5137 15.1743 35.5457 15.2255C35.6097 15.3215 35.6929 15.4175 35.7505 15.4943C35.8337 15.5775 35.8977 15.6671 35.9745 15.7503C36.0513 15.8335 36.1345 15.9103 36.2177 15.9935C36.3777 16.1663 36.5505 16.3135 36.7297 16.4415C36.8129 16.5055 36.9217 16.5887 37.0049 16.6335C37.0881 16.6975 37.1969 16.7295 37.2929 16.7807C37.4977 16.8639 37.7281 16.9279 37.9457 16.9727C38.1697 17.0239 38.3937 17.0559 38.6305 17.0687C39.0977 17.1007 39.5905 17.1007 40.0705 17.1519C39.5905 17.2351 39.1233 17.3247 38.6305 17.3631C38.5665 17.3631 38.5025 17.3631 38.4385 17.3759C38.3745 17.3759 38.3105 17.3759 38.2465 17.3759C38.1185 17.3759 37.9905 17.3631 37.8625 17.3631C37.6193 17.3311 37.3697 17.2799 37.1265 17.2159C36.9985 17.1647 36.8833 17.1327 36.7617 17.0687C36.6337 17.0047 36.5377 16.9407 36.4289 16.8575C36.3329 16.7743 36.2177 16.7103 36.1217 16.6335C36.0257 16.5503 35.9297 16.4735 35.8337 16.3775C35.6609 16.2047 35.4817 16.0255 35.3217 15.8143C35.2385 15.7183 35.1617 15.6223 35.0977 15.5071C35.0657 15.4559 35.0145 15.4111 34.9825 15.3471C34.9505 15.2831 34.9185 15.2511 34.8865 15.1743L34.7905 15.0143L34.9185 14.8863C35.0337 14.7775 35.1425 14.6303 35.2513 14.5023C35.3665 14.3743 35.4945 14.2463 35.6033 14.1183C35.8465 13.8623 36.0961 13.6255 36.3713 13.3823C36.6465 13.1583 36.9153 12.9343 37.2161 12.7423L37.3313 12.6591C37.3633 12.6463 37.4145 12.6079 37.4465 12.5951C37.5297 12.5439 37.6065 12.5119 37.6897 12.4671C37.8881 12.4031 38.0481 12.3391 38.2081 12.2751Z" fill="#2E2E2E"/>
<path d="M15.053 43.7504C20.7298 43.7504 25.325 39.6416 25.325 34.5792C25.325 29.5232 20.717 25.408 15.053 25.408C9.3698 25.408 4.78101 29.5168 4.78101 34.5792C4.78101 39.6352 9.389 43.7504 15.053 43.7504Z" fill="url(#paint1_radial)"/>
<path d="M25.1968 38.6752C26.3296 38.6752 27.264 37.7472 27.264 36.608C27.264 35.4688 26.336 34.5408 25.1968 34.5408C24.064 34.5408 23.1296 35.4688 23.1296 36.608C23.136 37.7472 24.064 38.6752 25.1968 38.6752Z" fill="white"/>
<path d="M23.8401 14.6305C23.9873 13.3505 24.9281 12.8385 26.0673 12.9473C27.2001 13.0753 28.0001 14.2145 27.8593 15.4945C27.7121 16.7745 25.8753 18.8673 25.1265 21.5617C25.9201 18.7585 23.9041 16.9793 23.8401 14.6305Z" fill="#2E2E2E"/>
<path d="M26.6369 20.7871C27.2897 20.3071 28.2049 20.4351 28.6401 21.0559C29.0881 21.6831 28.9153 22.5791 28.2561 23.0399C27.5969 23.5007 25.7921 23.4687 24.1921 24.2431C25.8561 23.4623 25.9841 21.2671 26.6369 20.7871Z" fill="#2E2E2E"/>
<path d="M22.2082 20.2944C22.0034 19.8144 22.2082 19.2512 22.6882 19.0656C23.1554 18.8544 23.7122 19.0976 23.9234 19.5776C24.1346 20.0576 23.8402 21.2096 24.0962 22.3296C23.8082 21.1392 22.413 20.7744 22.2082 20.2944Z" fill="#2E2E2E"/>
<path d="M24.5569 38.4704C25.1329 38.4704 25.6001 38.0032 25.6001 37.4272C25.6001 36.8512 25.1329 36.384 24.5569 36.384C23.9809 36.384 23.5137 36.8512 23.5137 37.4272C23.5329 38.0224 24.0001 38.4704 24.5569 38.4704Z" fill="#2E2E2E"/>
<path d="M30.157 38.7073C30.1122 38.7713 30.0738 38.8161 30.029 38.8801C29.997 38.9441 29.9458 38.9889 29.9138 39.0529C29.8306 39.1809 29.7666 39.2961 29.6898 39.4241C29.5298 39.6673 29.3378 39.8913 29.1266 40.0961C28.9218 40.3073 28.7106 40.4993 28.4866 40.6721C28.2626 40.8449 28.0386 41.0241 27.8018 41.2033C26.8738 41.8753 25.869 42.4513 24.8066 42.9313C23.7506 43.4113 22.6434 43.7633 21.5106 44.0193L21.0946 44.1025C20.9474 44.1345 20.8066 44.1537 20.6594 44.1857L20.4546 44.2177C20.3714 44.2305 20.3074 44.2305 20.2306 44.2497C20.0834 44.2625 19.9426 44.3009 19.7954 44.3137C19.5074 44.3457 19.2194 44.3777 18.9314 44.3969C18.6434 44.4289 18.3554 44.4481 18.0674 44.4609C17.9202 44.4609 17.7794 44.4609 17.6322 44.4737H17.4082C17.325 44.4737 17.261 44.4737 17.1842 44.4737H16.7682L16.333 44.4609L16.109 44.4481L15.885 44.4353L15.4498 44.4033L15.0146 44.3521C14.9314 44.3393 14.8674 44.3393 14.7906 44.3201L14.5666 44.2881C14.4194 44.2753 14.2786 44.2369 14.1314 44.2241L13.6962 44.1409C13.549 44.1089 13.4082 44.0897 13.2802 44.0577C13.133 44.0257 12.9922 43.9937 12.8642 43.9617L12.4482 43.8529C12.365 43.8401 12.301 43.8209 12.2434 43.7889L12.0386 43.7057L11.8338 43.6225C11.7698 43.5905 11.7058 43.5713 11.629 43.5393C11.501 43.4881 11.3538 43.4433 11.213 43.3793C11.085 43.3153 10.9378 43.2705 10.8098 43.2065C10.6818 43.1425 10.5538 43.0977 10.4066 43.0145C10.2786 42.9505 10.1506 42.8865 10.0226 42.8225L9.83057 42.7265L9.63857 42.6177C9.38257 42.4705 9.14577 42.3105 8.90257 42.1505C8.65937 41.9905 8.42257 41.8177 8.19857 41.6385C7.97457 41.4657 7.75057 41.2673 7.54577 41.0625C7.34097 40.8513 7.12977 40.6465 6.95057 40.4353C6.75857 40.2113 6.58577 39.9873 6.42577 39.7441C6.34257 39.6353 6.26577 39.5009 6.20177 39.3729C6.11857 39.2449 6.07377 39.1169 6.00977 38.9889C6.16977 39.2321 6.36177 39.4369 6.55377 39.6417C6.74577 39.8529 6.95697 40.0449 7.16177 40.2177C7.36657 40.4097 7.57777 40.5889 7.81457 40.7489C8.03857 40.9089 8.26257 41.0689 8.49937 41.2161C8.96657 41.5233 9.45937 41.7793 9.95217 42.0033L10.1442 42.0865L10.3362 42.1697C10.4642 42.2337 10.5922 42.2785 10.7202 42.3297C10.8482 42.3809 10.9762 42.4257 11.1042 42.4769C11.2322 42.5281 11.3602 42.5729 11.4882 42.6049C11.6162 42.6561 11.7442 42.6881 11.8914 42.7329C11.9554 42.7457 12.0194 42.7841 12.0834 42.7969L12.2754 42.8481L12.4674 42.8993C12.5314 42.9121 12.5954 42.9313 12.6722 42.9505L13.0754 43.0337C13.6194 43.1297 14.1634 43.2257 14.7074 43.2769C14.9826 43.3089 15.2514 43.3281 15.5202 43.3601L15.9362 43.3921L16.141 43.4049H16.3458L16.7618 43.4177H17.1778C17.2418 43.4177 17.325 43.4177 17.3826 43.4177H17.5874C17.7346 43.4177 17.8626 43.4177 18.0034 43.4049C18.5666 43.3921 19.1106 43.3409 19.6482 43.2961C20.1922 43.2321 20.7362 43.1489 21.2802 43.0529C21.8242 42.9569 22.3554 42.8289 22.8802 42.6817L23.2834 42.5729L23.6866 42.4449C23.9426 42.3617 24.2114 42.2721 24.4738 42.1761C25.517 41.7921 26.5218 41.3249 27.501 40.7873C27.629 40.7233 27.7442 40.6401 27.8658 40.5761L28.2306 40.3521C28.4738 40.2049 28.6978 40.0449 28.9154 39.8849C29.1394 39.7121 29.3506 39.5329 29.5426 39.3217C29.6386 39.2257 29.7346 39.1105 29.8306 39.0017C29.9522 38.8993 30.0482 38.7905 30.157 38.7073Z" fill="#2E2E2E"/>
<path d="M13.2799 59.1232C13.1647 58.88 13.1199 58.752 13.0239 58.496C13.6319 58.464 14.1759 58.3488 14.6367 58.176C15.1039 58.0032 15.4687 57.7728 15.7567 57.536C16.0447 57.2992 16.3007 56.992 16.5119 56.64C16.7359 56.288 16.8959 55.9488 17.0047 55.6288C17.1199 55.3088 17.2287 54.9376 17.3375 54.5088C17.4015 54.2848 17.4975 53.9456 17.6255 53.4848C17.7727 53.0176 17.8687 52.672 17.9327 52.416C18.1567 52.448 18.5087 52.512 18.9759 52.608C19.1679 52.6592 19.4559 52.7168 19.8399 52.8C20.2239 52.8832 20.5247 52.928 20.7231 52.96C21.0879 53.0112 21.4271 53.0432 21.7279 53.056C21.7727 53.4848 21.7599 54.1632 21.6639 55.072C21.6319 55.3152 21.5999 55.6992 21.5359 56.2048C21.4719 56.7168 21.4207 57.1136 21.4079 57.3888C21.2927 58.432 21.2799 59.296 21.3439 59.9808C21.2287 60.1728 21.0687 60.2496 20.8191 60.224C20.6463 60.2112 20.4863 60.1408 20.3263 60.032C20.1663 59.9232 20.0703 59.776 20.0703 59.648C20.0703 59.232 20.2175 58.784 20.2431 58.528C20.2879 58.1568 20.3583 57.5808 20.4351 56.8C20.5119 56.0192 20.5951 55.4112 20.6591 54.976C20.7423 54.4 20.8063 53.9648 20.8639 53.6832C20.6719 53.6512 20.3519 53.5872 19.8911 53.5104C19.4239 53.4272 19.0783 53.3376 18.8351 53.2544C18.6879 53.5616 18.5471 53.9776 18.3871 54.4832C18.2271 54.9888 18.0799 55.4432 17.9711 55.8464C17.8559 56.2496 17.6639 56.6592 17.4271 57.1264C17.1839 57.5744 16.9023 57.9584 16.5951 58.2464C16.2751 58.5344 15.8399 58.7904 15.2703 58.9696C14.7199 59.1424 14.0479 59.2064 13.2799 59.1232Z" fill="#2E2E2E"/>
<path d="M23.7888 59.3345C23.7888 59.4433 23.7888 59.5905 23.8016 59.7633C23.7056 59.9553 23.5456 60.0513 23.2896 60.0513C23.1168 60.0513 22.9568 59.9873 22.8096 59.8913C22.6624 59.7953 22.5344 59.6481 22.5344 59.5393C22.5216 59.1105 22.6816 58.2721 22.7776 57.2865C22.8736 56.3009 22.9376 55.6225 22.9696 55.2705C23.1936 55.2577 23.3024 55.2385 23.5328 55.2193C23.616 55.6353 23.6608 56.1793 23.6608 56.8513C23.6608 57.5233 23.6928 58.0353 23.7248 58.3745C23.8976 58.2017 24.4096 57.7473 25.152 56.9857C25.9072 56.2177 26.3552 55.6225 26.5792 55.2385C26.752 55.2065 26.8672 55.1745 26.912 55.1745C27.0592 55.1617 27.168 55.2065 27.2448 55.3025C27.3088 55.3985 27.3728 55.6097 27.4176 55.9105C27.6608 57.4785 27.7824 58.2593 28.0576 59.8145C27.9936 60.0065 27.8336 60.1217 27.5904 60.1473C27.4176 60.1601 27.2576 60.1345 27.0976 60.0513C26.9376 59.9681 26.8096 59.8401 26.7904 59.7313C26.7584 59.5585 26.7776 58.9953 26.7584 58.1825C26.7456 57.3697 26.7264 56.7745 26.7264 56.4225C25.44 57.7473 24.3648 58.6753 23.7888 59.3345Z" fill="#2E2E2E"/>
<path d="M32.0766 54.2912C32.3006 54.2784 32.3966 54.2592 32.6206 54.24C33.1326 55.712 33.6638 57.1712 34.1886 58.624C34.1566 58.8352 34.0286 58.976 33.8046 59.04C33.6446 59.0912 33.4718 59.0912 33.2926 59.04C33.1198 58.9888 32.9854 58.912 32.9214 58.784C32.9214 58.7712 32.8254 58.2208 32.6334 57.184C32.6334 57.152 32.6206 57.1328 32.6206 57.1008C32.3774 57.152 32.0254 57.2288 31.5646 57.344C30.8606 57.504 30.3294 57.5872 29.9646 57.6128C30.0798 57.9648 30.2206 58.56 30.4446 59.36C30.3998 59.5712 30.2526 59.6928 30.0094 59.7312C29.8494 59.7632 29.6766 59.7312 29.5166 59.6672C29.3566 59.6032 29.2094 59.4752 29.1838 59.36C29.1198 59.104 29.139 58.72 29.0878 58.4C29.0558 58.1888 29.0046 57.888 28.9406 57.4912C28.8766 57.0944 28.8254 56.7872 28.7934 56.5952C28.7102 55.9872 28.6654 55.4752 28.6462 55.0592C28.8702 55.072 28.979 55.072 29.2094 55.072C29.5934 56.416 29.8046 57.1008 29.8174 57.1392C31.2702 56.9472 31.9934 56.768 32.0446 56.768C32.3774 56.6848 32.5566 56.6208 32.5374 56.5952C32.5054 56.4672 32.4222 56.064 32.2814 55.4112C32.1598 54.7392 32.0958 54.3744 32.0766 54.2912Z" fill="#2E2E2E"/>
<path d="M33.9647 53.6512C34.0159 53.5424 34.7519 53.3184 35.3599 52.9984C35.9679 52.6912 36.4031 52.4352 36.6399 52.3264C36.7999 52.2432 36.9919 52.2304 37.1647 52.2752C37.3375 52.3264 37.4527 52.384 37.4975 52.5184C37.5807 52.6912 37.4847 52.8896 37.2095 53.0112C36.9663 53.12 36.5183 53.28 35.9423 53.4592C35.3791 53.6512 34.9311 53.7792 34.6495 53.8624C34.7967 54.2336 35.0527 54.8096 35.4367 55.5904C35.8207 56.3712 36.1087 56.9792 36.2687 57.4144C36.4159 57.7856 36.2687 58.0544 35.8335 58.2016C35.4623 58.3296 35.2383 58.2144 35.1295 57.8816C35.0015 57.4784 34.8735 57.0496 34.7455 56.5888C34.6175 56.1216 34.4703 55.5776 34.3295 54.976C34.1567 54.3744 33.9327 53.7344 33.9647 53.6512Z" fill="#2E2E2E"/>
<path d="M38.0288 51.9232C39.0016 51.1744 39.5648 50.6944 39.7888 50.56C40.672 50.016 41.2928 50.016 41.7216 50.6112C41.8688 50.8224 41.9648 51.0592 42.0096 51.3152C42.0544 51.5712 42.0224 51.7824 41.9264 51.9424C42.6624 51.8592 43.2064 52.0384 43.5392 52.5184C43.8592 52.9856 43.9232 53.4784 43.6672 54.0416C43.4112 54.6048 42.912 55.1104 42.1632 55.5648C41.28 56.096 40.4992 56.288 39.8784 56.1728C39.2768 54.7392 38.656 53.3312 38.0288 51.9232ZM38.72 52.0384C39.04 52.5504 39.1872 52.7872 39.5072 53.3056C39.6032 53.2416 39.7824 53.1328 40 52.9984C40.224 52.8704 40.4032 52.7424 40.512 52.6464C40.64 52.5504 40.768 52.4032 40.8832 52.2432C41.0112 52.0832 41.056 51.8912 41.056 51.6672C41.056 51.4432 40.9728 51.2 40.8448 50.9312C40.672 50.8224 40.4096 50.8672 40.0768 51.0784C39.9168 51.1744 39.6928 51.3472 39.3728 51.5712C39.0528 51.8144 38.8288 51.9552 38.72 52.0384ZM39.776 53.7152C40.192 54.368 40.4032 54.7072 40.8192 55.3664C41.0624 55.3152 41.2992 55.2384 41.5424 55.0784C42.0224 54.7904 42.4064 54.4256 42.6496 53.9584C42.9056 53.4912 42.9248 53.1264 42.7456 52.8512C42.6176 52.6592 42.3936 52.544 42.0928 52.5184C41.7856 52.4864 41.4848 52.5696 41.1776 52.7616C40.992 52.8832 40.5248 53.2224 39.776 53.7152Z" fill="#2E2E2E"/>
<path d="M43.1359 49.5424C42.9439 49.4464 42.8479 49.3952 42.6431 49.2992C42.7071 49.0432 42.8159 48.768 42.9951 48.4992C43.1679 48.2304 43.3791 47.9872 43.6031 47.7952C44.5951 46.9312 45.6959 47.104 47.0271 48.4352C47.1999 48.608 47.4623 48.9024 47.7823 49.2864C48.1023 49.6704 48.4223 49.9584 48.5375 50.1184C48.6335 50.2656 48.5887 50.4896 48.4415 50.6304C48.3263 50.7392 48.1663 50.8032 47.9935 50.8224C47.8207 50.8416 47.6735 50.7904 47.5775 50.6752C47.5455 50.6432 47.5263 50.6112 47.5263 50.592C47.3791 51.2448 47.0463 51.808 46.5535 52.2048C46.1887 52.512 45.7663 52.6848 45.3375 52.7168C44.9023 52.7488 44.5823 52.608 44.3775 52.3328C44.0255 51.8528 43.9615 51.2448 44.1343 50.4896C44.3071 49.7344 44.6655 49.1264 45.2223 48.6208C45.2543 48.608 45.2671 48.5696 45.3055 48.5568C45.3375 48.544 45.3695 48.5056 45.4015 48.4928C45.4335 48.4608 45.4655 48.4416 45.4847 48.4288C44.9215 47.936 44.4095 47.9168 43.8975 48.3456C43.5967 48.5952 43.3599 48.9984 43.1359 49.5424ZM47.1039 50.0992C46.8159 49.7664 46.5919 49.5104 46.4319 49.3312C46.3039 49.184 46.1119 48.9984 45.8559 48.7552C45.8239 48.7872 45.8111 48.8064 45.7727 48.8192C45.3375 49.2224 45.0495 49.7024 44.8767 50.272C44.7167 50.848 44.7615 51.3152 45.0495 51.68C45.1775 51.84 45.3567 51.9232 45.5615 51.904C45.7663 51.8912 45.9775 51.808 46.1695 51.6352C46.4767 51.4112 46.8159 50.8864 47.1039 50.0992Z" fill="#2E2E2E"/>
<path d="M55.264 40.4866C55.4112 40.5378 55.4688 40.5506 55.616 40.5954C55.5008 41.0882 55.328 41.5426 55.1232 41.9394C54.9184 42.3234 54.6752 42.6114 54.3872 42.8034C54.0992 42.9954 53.8112 43.0914 53.5424 43.0914C53.2544 43.1042 52.9664 43.0914 52.6464 43.0786C52.3392 43.0658 52.0384 43.0466 51.7824 43.0274C51.5072 43.0146 51.2512 43.0594 50.9824 43.1746C50.7264 43.2834 50.5024 43.4818 50.3104 43.7506C51.2704 44.3394 51.7504 44.6466 52.7104 45.2418C52.8256 45.4146 52.8256 45.613 52.6784 45.8178C52.5824 45.965 52.4544 46.061 52.2752 46.125C52.1152 46.189 51.9232 46.2082 51.8272 46.1378C51.7312 46.0674 50.8672 45.389 49.2672 44.1346C47.6672 42.8802 46.72 42.1634 46.4832 41.9714C46.6304 41.8242 46.7072 41.7602 46.8544 41.6194C47.0592 41.7474 47.4496 42.0034 48.0064 42.3426C48.5824 42.6946 48.9664 42.9314 49.1584 43.0658C49.3504 42.7778 49.4336 42.477 49.4016 42.157C49.3696 41.837 49.2736 41.549 49.0944 41.261C48.9344 40.973 48.7616 40.6978 48.6016 40.429C48.4416 40.1602 48.3264 39.853 48.2688 39.5458C48.2176 39.2386 48.2688 38.9378 48.416 38.6498C48.5312 38.4258 48.768 38.0738 49.12 37.5618C49.2352 37.6706 49.2928 37.7218 49.4272 37.8306C49.1712 38.2338 49.0112 38.4578 48.9792 38.5218C48.8512 38.765 48.832 39.0018 48.9152 39.245C48.9984 39.501 49.1264 39.7378 49.2992 39.981C49.472 40.2242 49.6512 40.493 49.8304 40.7682C50.0032 41.037 50.1184 41.3762 50.1632 41.7602C50.208 42.1442 50.1504 42.5474 49.9712 42.9634C50.2592 42.6754 50.5472 42.4514 50.8864 42.3106C51.2192 42.1634 51.5264 42.0866 51.8336 42.0994C52.1216 42.0994 52.4416 42.1122 52.7488 42.1314C53.0688 42.1442 53.3568 42.1634 53.6128 42.1826C53.8688 42.1954 54.1056 42.1698 54.336 42.0546C54.56 41.9586 54.752 41.7666 54.88 41.5106C55.008 41.2674 55.136 40.9346 55.264 40.4866Z" fill="#2E2E2E"/>
<path d="M55.456 38.5664C55.552 38.6176 55.6992 38.6496 55.872 38.7136C56.032 38.8736 56.0448 39.0464 55.9552 39.2896C55.8912 39.4496 55.7824 39.5776 55.6352 39.6736C55.488 39.7824 55.3152 39.8336 55.2 39.8016C54.784 39.6736 54.0672 39.2256 53.1648 38.7776C52.2688 38.3296 51.6608 38.0416 51.3408 37.8816C51.4048 37.6576 51.4368 37.5616 51.488 37.3376C51.904 37.4016 52.4352 37.5616 53.0752 37.7856C53.7152 38.0288 54.1952 38.1888 54.5152 38.2656C54.4192 38.0416 54.1632 37.4144 53.7152 36.4416C53.2672 35.4688 52.8704 34.8288 52.5824 34.4576C52.6144 34.2848 52.6336 34.1696 52.6464 34.1248C52.6976 33.9776 52.7744 33.8816 52.8896 33.856C53.0176 33.824 53.2224 33.8432 53.5168 33.9072C55.072 34.2272 55.8528 34.3872 57.408 34.6752C57.568 34.8032 57.6128 34.9952 57.5552 35.2384C57.504 35.3984 57.408 35.5584 57.28 35.6864C57.152 35.8144 56.992 35.8976 56.864 35.8592C56.6912 35.8272 56.1792 35.616 55.4112 35.328C54.6432 35.0592 54.0864 34.848 53.7664 34.7392C54.5408 36.4864 55.04 37.8112 55.456 38.5664Z" fill="#2E2E2E"/>
<path d="M53.4718 32.9665C53.299 32.9665 53.2158 32.9665 53.0366 32.9793C53.3694 31.2193 53.5614 29.4465 53.5998 27.6481C53.6126 27.4369 53.683 27.2641 53.7918 27.1169C53.907 26.9697 54.0158 26.8929 54.1438 26.9057C54.3358 26.9057 54.451 27.0977 54.451 27.4497C54.3678 28.4417 54.3038 28.9409 54.1438 29.9009C54.6238 29.9137 55.3278 29.9841 56.2238 30.0929C57.139 30.2017 57.9198 30.2017 58.227 30.3041C58.3742 30.3553 58.4702 30.6113 58.4318 30.8673C58.419 31.0401 58.3358 31.1873 58.227 31.3345C58.1118 31.4817 57.9838 31.5585 57.8558 31.5777C56.3198 31.1937 55.0398 30.8417 54.003 30.5537C53.8366 31.5393 53.7278 32.0193 53.4718 32.9665Z" fill="#2E2E2E"/>
<path d="M1.77271 20.7103C2.10551 19.0783 2.6687 17.4783 3.3599 15.9423C4.0447 14.4063 4.8959 12.9535 5.9071 11.5903C6.8991 10.2271 8.0703 8.97914 9.3503 7.87834L9.8303 7.46234C9.9135 7.39834 9.9903 7.31514 10.0735 7.25114L10.3295 7.05914L11.3535 6.31034C11.7055 6.08634 12.0575 5.84314 12.4287 5.61914C12.7935 5.40794 13.1519 5.17114 13.5359 4.99194C15.0207 4.19194 16.6079 3.56474 18.2399 3.12314C19.8719 2.67514 21.5551 2.41914 23.2319 2.32314C26.5919 2.15034 29.9967 2.59194 33.1519 3.71194C31.5391 3.28314 29.8879 2.97594 28.2367 2.84794C27.4047 2.76474 26.5727 2.73914 25.7535 2.73914C24.9215 2.73914 24.0895 2.75194 23.2703 2.83514C21.6255 2.98234 19.9871 3.25114 18.4063 3.71834C16.8191 4.16634 15.2895 4.78714 13.8303 5.57434C13.4655 5.74714 13.1071 5.97754 12.7551 6.18234C12.4031 6.38714 12.0703 6.63034 11.7119 6.85434L10.7199 7.59034L10.4639 7.76314C10.3807 7.82714 10.3039 7.89114 10.2207 7.95514L9.7407 8.35834C8.4735 9.41434 7.3407 10.6111 6.3167 11.9103C5.2927 13.2095 4.4159 14.6111 3.6607 16.1023L3.3727 16.6655C3.2767 16.8575 3.1999 17.0495 3.1167 17.2287C2.9439 17.5999 2.7839 17.9967 2.6239 18.3807C2.3039 19.1231 2.01591 19.9103 1.77271 20.7103Z" fill="#2E2E2E"/>
<path d="M47.7887 46.3743C47.6287 46.7775 47.8527 47.3023 48.3647 47.3663C48.8319 47.4303 49.3567 47.0591 49.4719 46.6751C49.5999 46.2271 49.1839 45.7279 48.6591 45.7471C48.2367 45.7663 47.9039 46.0863 47.7887 46.3743Z" fill="#2E2E2E"/>
<defs>
<linearGradient id="paint0_linear" x1="27.0616" y1="5.95773" x2="27.0616" y2="48.4071" gradientUnits="userSpaceOnUse">
<stop stop-color="#FFB606"/>
<stop offset="1" stop-color="#FFC63D"/>
</linearGradient>
<radialGradient id="paint1_radial" cx="0" cy="0" r="1" gradientUnits="userSpaceOnUse" gradientTransform="translate(15.0545 34.5816) rotate(90) scale(9.16506 10.2752)">
<stop stop-color="#FFB606"/>
<stop offset="1" stop-color="#FFC539"/>
</radialGradient>
</defs>
</svg>
